<svg width="191" height="31" viewBox="0 0 191 31" fill="none" xmlns="http://www.w3.org/2000/svg">
<path fill-rule="evenodd" clip-rule="evenodd" d="M97.997 11.3481V22.6958L99.144 23.9894C100.507 25.5257 102.768 26.7446 104.327 26.7824C105.911 26.8209 107.942 25.764 109.44 24.1226L110.721 22.7188V16.899V11.0788L109.098 9.5389C108.183 8.67068 106.813 7.80282 105.957 7.54905C104.556 7.1333 104.304 7.16966 102.683 8.02564L100.927 8.95289L100.825 4.58839L100.724 0.223535L99.3603 0.111949L97.997 0V11.3481ZM55.8797 1.85019C53.7123 2.82388 51.6408 4.5092 51.1406 5.70643C50.8534 6.39323 50.7541 9.77648 50.821 16.6017L50.9181 26.5005L52.0887 26.6125L53.2589 26.7244L53.3611 22.113L53.4629 17.5016L57.7236 17.4004L61.9844 17.2989L62.0861 21.8999L62.1879 26.5005H63.4603H64.7327L64.8294 16.3299L64.9258 6.15889L63.3753 4.48653C62.016 3.02077 58.8724 1.12235 57.8254 1.13495C57.6255 1.13711 56.75 1.45927 55.8797 1.85019ZM132.897 5.04914V7.22077L130.917 8.47451C127.903 10.3841 127.851 10.5259 127.779 17.0862C127.706 23.6702 127.803 23.9319 131.004 25.7806L132.873 26.8605L132.885 28.9302L132.897 31H134.17H135.442V28.8496C135.442 26.8266 135.506 26.6661 136.527 26.1434C137.123 25.8378 138.187 25.0186 138.89 24.3224L140.168 23.0568V17.1783C140.168 10.4989 140.068 10.2189 137.068 8.47775C135.486 7.55985 135.475 7.53861 135.368 5.32847C135.26 3.10644 135.258 3.1032 134.079 2.99054L132.897 2.87751V5.04914ZM60.5367 5.38714L62.0062 6.77118V10.7865V14.8019H57.6436H53.2811V10.9748V7.14806L54.8691 5.5754C57.0078 3.45812 58.438 3.41061 60.5367 5.38714ZM16.745 4.59019C11.6201 5.37634 7.39098 7.58397 3.4298 11.541C1.70515 13.2638 0.179722 15.029 0.0404844 15.4638C-0.524826 17.2273 4.94287 22.8084 9.39883 25.016C12.9027 26.7521 15.7099 27.4137 19.7002 27.4443C24.0391 27.4774 26.6435 26.9285 30.1961 25.2324C33.4862 23.6615 36.0219 21.7095 38.2955 18.9972C40.5273 16.3353 40.5629 15.8825 38.7288 13.5287C34.463 8.05371 28.1802 4.85044 21.1358 4.55924C19.3207 4.48401 17.3448 4.49804 16.745 4.59019ZM24.4735 7.08687C27.4786 8.56954 30.2884 12.4265 29.7762 14.3656C29.541 15.2561 30.5291 15.876 31.1707 15.2406C31.707 14.7097 29.6526 10.5248 27.9265 8.63325C26.669 7.25461 26.633 7.15886 27.4702 7.41083C29.89 8.13939 32.9561 10.1469 35.5584 12.7065C37.1078 14.231 38.3758 15.6287 38.3758 15.813C38.3758 16.5376 35.321 19.8895 33.268 21.4175C30.3317 23.6028 27.1092 25.1086 26.7162 24.479C26.4865 24.1111 26.0499 24.1975 24.6746 24.8832C22.0505 26.1917 18.6477 26.3004 16.1368 25.1561C15.0716 24.6708 13.6483 23.7216 12.9743 23.0474C11.3609 21.4337 9.90997 18.4259 10.4397 17.7938C10.9832 17.1455 10.5458 16.2417 9.68857 16.2417C8.66556 16.2417 8.44635 16.8094 9.02911 17.9508C9.30722 18.4958 9.99468 19.8794 10.5564 21.0259C11.1184 22.172 11.9887 23.4297 12.49 23.8206C14.0675 25.0488 13.143 24.9387 10.3488 23.5651C8.37582 22.595 6.84603 21.4431 4.62332 19.2542L1.59027 16.2673L2.36608 15.1881C5.24098 11.1904 12.7383 6.13442 13.6428 7.58325C13.8377 7.89569 14.2834 7.82154 15.3264 7.30248C17.4022 6.26976 17.6106 6.22225 20.2183 6.19129C22.0865 6.16897 23.0048 6.36227 24.4735 7.08687ZM17.9021 7.61996C14.2074 8.52886 11.4772 11.9668 11.4336 15.7651C11.3925 19.3348 12.9263 22.0179 15.9346 23.6392C20.9926 26.3648 27.2136 23.5985 28.5645 18.0231C30.0685 11.8153 24.1845 6.07466 17.9021 7.61996ZM74.4277 8.1797C73.3833 8.69516 72.1207 9.64617 71.6223 10.2934L70.7163 11.4697L70.8145 18.9853L70.913 26.5005L72.0945 26.6132L73.276 26.7262V19.8874C73.276 16.1262 73.4276 12.654 73.613 12.1713C73.9718 11.2372 76.0651 9.76244 77.0325 9.76244C77.3521 9.76244 78.1882 10.2624 78.891 10.8733L80.1685 11.9837L80.267 19.2423L80.3651 26.5005H81.6375H82.9099L83.1102 18.9414C83.2208 14.7839 83.3433 11.3549 83.3829 11.3218C84.0387 10.771 86.0455 9.76244 86.4847 9.76244C86.8042 9.76244 87.6404 10.2624 88.3431 10.8733L89.6206 11.9837L89.7191 19.2423L89.8173 26.5005H91.0897H92.3621V18.8708V11.2412L91.0897 9.9165C89.4406 8.19986 87.0489 7.11566 85.6045 7.42955C85.0068 7.55949 83.8024 8.2067 82.9281 8.86758C81.3383 10.0691 81.338 10.0691 80.6698 9.33769C79.9256 8.52274 77.5706 7.24273 76.8155 7.24273C76.5468 7.24273 75.4726 7.6646 74.4277 8.1797ZM121.084 7.50442C119.96 7.79094 117.443 9.6199 116.767 10.6404C116.24 11.438 116.172 12.5453 116.258 19.0299L116.356 26.5005L117.537 26.6132L118.719 26.7262V19.5526C118.719 12.9654 118.778 12.3055 119.434 11.4794C120.302 10.387 122.079 9.6073 123.1 9.87151C123.65 10.0141 123.958 9.83083 124.256 9.18434C124.503 8.64801 124.53 8.18078 124.326 7.99072C123.867 7.56381 121.968 7.27872 121.084 7.50442ZM148.992 7.97956C148.146 8.40359 146.96 9.30781 146.356 9.98885C145.43 11.0331 145.258 11.5262 145.258 13.1317C145.258 15.5815 145.894 16.1917 150.186 17.8572C151.974 18.5512 153.642 19.3935 153.892 19.729C154.965 21.1699 154.138 22.9816 151.879 24.1356C150.977 24.5967 150.29 24.4596 147.844 23.3311C146.292 22.6155 146.236 22.6137 145.754 23.267C144.966 24.3332 145.159 24.8163 146.68 25.5844C149.304 26.9102 151.003 27.0908 152.969 26.2532C153.929 25.8443 155.205 24.9577 155.803 24.2828C156.747 23.2181 156.891 22.7764 156.891 20.9406C156.891 19.0404 156.782 18.7348 155.819 17.9317C155.229 17.4404 153.552 16.5963 152.092 16.0556C148.402 14.6896 147.803 14.2659 147.803 13.0258C147.803 12.3131 148.145 11.7012 148.891 11.0792C150.548 9.69837 151.269 9.61198 153.682 10.5058C155.518 11.1857 155.921 11.2343 156.193 10.8088C156.899 9.70341 156.535 9.0202 154.86 8.30893C152.201 7.18046 150.748 7.0991 148.992 7.97956ZM183.248 7.90901C182.448 8.28625 181.221 9.19046 180.521 9.9183C179.381 11.1047 179.249 11.4496 179.249 13.236C179.249 14.9743 179.376 15.3303 180.237 16.0102C180.78 16.439 182.498 17.2535 184.054 17.8201C185.61 18.3867 187.17 19.0983 187.52 19.4014C188.4 20.1642 188.342 22.1763 187.414 23.0953C185.982 24.5139 185.041 24.6061 182.451 23.5802C179.901 22.5694 179.449 22.6932 179.436 24.4048C179.432 25.0279 179.844 25.3422 181.444 25.9347C184.373 27.0199 186.214 26.9184 188.288 25.5585C189.229 24.9412 190.257 23.9423 190.572 23.339C191.294 21.9564 191.066 19.0382 190.159 18.0451C189.802 17.6549 188.183 16.8335 186.561 16.2194C182.547 14.7 181.976 14.2954 181.976 12.9765C181.976 11.7894 183.343 10.248 184.693 9.91254C185.12 9.80635 186.428 10.0749 187.6 10.5094C189.652 11.2696 189.748 11.2743 190.216 10.6418C191.018 9.55438 190.787 9.16815 188.835 8.33664C186.187 7.20853 184.937 7.11314 183.248 7.90901ZM161.617 15.3299V23.0568L162.895 24.3224C164.552 25.9635 166.18 26.7788 167.797 26.7788C169.415 26.7788 171.042 25.9635 172.699 24.3224L173.978 23.0568V15.3299V7.60269H172.705H171.433V14.7493C171.433 21.8437 171.426 21.9028 170.538 22.852C168.728 24.785 166.866 24.785 165.057 22.852C164.169 21.9028 164.162 21.8437 164.162 14.7493V7.60269H162.89H161.617V15.3299ZM23.7759 9.12639C25.5889 9.9669 27.2885 12.0791 27.8687 14.2122C28.6772 17.1855 27.2855 20.6713 24.5375 22.5572C22.4842 23.966 18.8557 24.2418 16.7133 23.1511C11.4245 20.4586 10.6163 13.8336 15.1123 10.023C17.6113 7.90505 20.4971 7.60629 23.7759 9.12639ZM11.4954 9.37224C10.5113 10.7404 9.31049 13.366 9.30031 14.1719C9.28722 15.1957 9.94197 14.8904 10.1939 13.7555C10.3215 13.1802 10.9759 11.8048 11.6481 10.6994C12.9292 8.59293 12.8089 7.54581 11.4954 9.37224ZM106.152 10.4629C107.906 11.6079 108.149 12.4236 108.164 17.219C108.176 21.6026 108.173 21.6198 107.082 22.8505C105.326 24.8299 103.821 24.8645 101.723 22.9733C100.948 22.2742 100.905 21.9665 100.905 17.116V11.9967L102.19 10.8797C103.674 9.58966 104.656 9.48635 106.152 10.4629ZM135.438 10.3002C137.403 11.3063 137.623 11.9963 137.623 17.1416C137.623 22.3815 137.433 22.9358 135.286 23.9445C134.161 24.4732 133.873 24.4829 132.777 24.0294C130.612 23.1338 130.352 22.4049 130.352 17.2179C130.352 14.6392 130.523 12.2782 130.739 11.8794C131.162 11.0975 133.161 9.76604 133.915 9.76388C134.175 9.76316 134.86 10.0043 135.438 10.3002ZM18.8768 11.2635C17.3292 12.0053 16.9973 14.1331 18.2122 15.5218C18.5594 15.9185 18.6005 16.4911 18.3667 17.6815C18.1919 18.5724 18.0421 19.747 18.0334 20.2912C18.0177 21.2628 18.0577 21.2811 20.1986 21.2811C22.6453 21.2811 22.5777 21.3934 21.9974 18.2852C21.6797 16.5826 21.7102 16.1024 22.1792 15.4393C23.0757 14.1716 22.9005 12.4567 21.7855 11.5885C20.737 10.7718 20.0601 10.6962 18.8768 11.2635ZM29.8885 18.3161C29.7682 19.0613 29.1662 20.4568 28.551 21.4175C27.4324 23.1641 27.3415 23.9329 28.3518 23.1025C29.1934 22.411 30.7414 19.0864 30.7414 17.9709C30.7414 16.4958 30.1434 16.7381 29.8885 18.3161Z" fill="white"/>
</svg>
