<svg width="344" height="83" viewBox="0 0 344 83" fill="none" xmlns="http://www.w3.org/2000/svg">
<g clip-path="url(#clip0_8380_120)" filter="url(#filter0_d_8380_120)">
<path fill-rule="evenodd" clip-rule="evenodd" d="M11.1168 67.685L31.5755 55.8417L45.68 31.4845V8C45.3079 8 44.9359 8.24434 44.6538 8.73026L27.9465 37.5832L11.2416 66.4357C10.9599 66.9224 10.9329 67.3641 11.1172 67.685" fill="#FF4724"/>
<path fill-rule="evenodd" clip-rule="evenodd" d="M45.6797 8V31.4845L59.7834 55.8417L80.2421 67.685C80.4268 67.3641 80.4002 66.9224 80.1185 66.4357L63.4124 37.5832L46.7055 8.73026C46.423 8.24355 46.051 8 45.6797 8Z" fill="#9E1F63"/>
<path fill-rule="evenodd" clip-rule="evenodd" d="M80.2425 67.6831L59.7837 55.8398H31.5759L11.1172 67.6831C11.3014 68.0056 11.6981 68.2058 12.2627 68.2058H79.0962C79.6608 68.2058 80.0574 68.0056 80.2425 67.6831Z" fill="#662D91"/>
<path fill-rule="evenodd" clip-rule="evenodd" d="M31.5762 55.8416H59.7839L45.6802 31.4844L31.5762 55.8416Z" fill="white"/>
<path d="M94.9176 46V28.5455H101.31C102.548 28.5455 103.574 28.75 104.386 29.1591C105.199 29.5625 105.807 30.1108 106.21 30.804C106.614 31.4915 106.815 32.267 106.815 33.1307C106.815 33.858 106.682 34.4716 106.415 34.9716C106.148 35.4659 105.79 35.8636 105.341 36.1648C104.898 36.4602 104.409 36.6761 103.875 36.8125V36.983C104.455 37.0114 105.02 37.1989 105.571 37.5455C106.128 37.8864 106.588 38.3722 106.952 39.0028C107.315 39.6335 107.497 40.4006 107.497 41.304C107.497 42.196 107.287 42.9972 106.866 43.7074C106.452 44.4119 105.81 44.9716 104.94 45.3864C104.071 45.7955 102.96 46 101.608 46H94.9176ZM97.5511 43.7415H101.352C102.614 43.7415 103.517 43.4972 104.062 43.0085C104.608 42.5199 104.881 41.9091 104.881 41.1761C104.881 40.625 104.741 40.1193 104.463 39.6591C104.185 39.1989 103.787 38.8324 103.27 38.5597C102.759 38.2869 102.151 38.1506 101.446 38.1506H97.5511V43.7415ZM97.5511 36.0966H101.08C101.67 36.0966 102.202 35.983 102.673 35.7557C103.151 35.5284 103.528 35.2102 103.807 34.8011C104.091 34.3864 104.233 33.8977 104.233 33.3352C104.233 32.6136 103.98 32.0085 103.474 31.5199C102.969 31.0312 102.193 30.7869 101.148 30.7869H97.5511V36.0966ZM114.226 46.2898C113.396 46.2898 112.646 46.1364 111.976 45.8295C111.305 45.517 110.774 45.0653 110.382 44.4744C109.996 43.8835 109.803 43.1591 109.803 42.3011C109.803 41.5625 109.945 40.9545 110.229 40.4773C110.513 40 110.896 39.6222 111.379 39.3438C111.862 39.0653 112.402 38.8551 112.999 38.7131C113.595 38.571 114.203 38.4631 114.822 38.3892C115.607 38.2983 116.243 38.2244 116.732 38.1676C117.22 38.1051 117.575 38.0057 117.797 37.8693C118.018 37.733 118.129 37.5114 118.129 37.2045V37.1449C118.129 36.4006 117.919 35.8239 117.499 35.4148C117.084 35.0057 116.464 34.8011 115.641 34.8011C114.783 34.8011 114.107 34.9915 113.612 35.3722C113.124 35.7472 112.786 36.1648 112.598 36.625L110.203 36.0795C110.487 35.2841 110.902 34.642 111.447 34.1534C111.999 33.6591 112.632 33.3011 113.348 33.0795C114.064 32.8523 114.817 32.7386 115.607 32.7386C116.129 32.7386 116.683 32.8011 117.268 32.9261C117.859 33.0455 118.411 33.267 118.922 33.5909C119.439 33.9148 119.862 34.3778 120.192 34.9801C120.521 35.5767 120.686 36.3523 120.686 37.3068V46H118.197V44.2102H118.095C117.93 44.5398 117.683 44.8636 117.354 45.1818C117.024 45.5 116.601 45.7642 116.084 45.9744C115.567 46.1847 114.947 46.2898 114.226 46.2898ZM114.78 44.2443C115.484 44.2443 116.087 44.1051 116.587 43.8267C117.092 43.5483 117.476 43.1847 117.737 42.7358C118.004 42.2812 118.138 41.7955 118.138 41.2784V39.5909C118.047 39.6818 117.871 39.767 117.609 39.8466C117.354 39.9205 117.061 39.9858 116.732 40.0426C116.402 40.0937 116.081 40.142 115.768 40.1875C115.456 40.2273 115.195 40.2614 114.984 40.2898C114.49 40.3523 114.038 40.4574 113.629 40.6051C113.226 40.7528 112.902 40.9659 112.658 41.2443C112.419 41.517 112.3 41.8807 112.3 42.3352C112.3 42.9659 112.533 43.4432 112.999 43.767C113.464 44.0852 114.058 44.2443 114.78 44.2443ZM133.89 36.1051L131.58 36.5142C131.484 36.2187 131.33 35.9375 131.12 35.6705C130.915 35.4034 130.637 35.1847 130.285 35.0142C129.933 34.8437 129.492 34.7585 128.964 34.7585C128.242 34.7585 127.64 34.9205 127.157 35.2443C126.674 35.5625 126.433 35.9744 126.433 36.4801C126.433 36.9176 126.594 37.2699 126.918 37.5369C127.242 37.804 127.765 38.0227 128.487 38.1932L130.566 38.6705C131.771 38.9489 132.668 39.3778 133.259 39.9574C133.85 40.5369 134.146 41.2898 134.146 42.2159C134.146 43 133.918 43.6989 133.464 44.3125C133.015 44.9205 132.387 45.3977 131.58 45.7443C130.779 46.0909 129.85 46.2642 128.793 46.2642C127.327 46.2642 126.131 45.9517 125.205 45.3267C124.279 44.696 123.711 43.8011 123.501 42.642L125.964 42.267C126.117 42.9091 126.433 43.3949 126.91 43.7244C127.387 44.0483 128.009 44.2102 128.776 44.2102C129.612 44.2102 130.279 44.0369 130.779 43.6903C131.279 43.3381 131.529 42.9091 131.529 42.4034C131.529 41.9943 131.376 41.6506 131.069 41.3722C130.768 41.0937 130.305 40.8835 129.68 40.7415L127.464 40.2557C126.242 39.9773 125.339 39.5341 124.754 38.9261C124.174 38.3182 123.884 37.5483 123.884 36.6165C123.884 35.8437 124.1 35.1676 124.532 34.5881C124.964 34.0085 125.56 33.5568 126.322 33.233C127.083 32.9034 127.955 32.7386 128.938 32.7386C130.353 32.7386 131.467 33.0455 132.279 33.6591C133.092 34.267 133.629 35.0824 133.89 36.1051ZM136.947 46V32.9091H139.496V46H136.947ZM138.234 30.8892C137.791 30.8892 137.411 30.7415 137.092 30.446C136.78 30.1449 136.624 29.7869 136.624 29.3722C136.624 28.9517 136.78 28.5937 137.092 28.2983C137.411 27.9972 137.791 27.8466 138.234 27.8466C138.678 27.8466 139.055 27.9972 139.368 28.2983C139.686 28.5937 139.845 28.9517 139.845 29.3722C139.845 29.7869 139.686 30.1449 139.368 30.446C139.055 30.7415 138.678 30.8892 138.234 30.8892ZM148.438 46.2642C147.171 46.2642 146.08 45.9773 145.165 45.4034C144.256 44.8239 143.558 44.0256 143.069 43.0085C142.58 41.9915 142.336 40.8267 142.336 39.5142C142.336 38.1847 142.586 37.0114 143.086 35.9943C143.586 34.9716 144.29 34.1733 145.2 33.5994C146.109 33.0256 147.18 32.7386 148.413 32.7386C149.407 32.7386 150.293 32.9233 151.072 33.2926C151.85 33.6562 152.478 34.1676 152.955 34.8267C153.438 35.4858 153.725 36.2557 153.816 37.1364H151.336C151.2 36.5227 150.887 35.9943 150.398 35.5511C149.915 35.108 149.268 34.8864 148.455 34.8864C147.745 34.8864 147.123 35.0739 146.589 35.4489C146.06 35.8182 145.648 36.3466 145.353 37.0341C145.058 37.7159 144.91 38.5227 144.91 39.4545C144.91 40.4091 145.055 41.233 145.344 41.9261C145.634 42.6193 146.043 43.1562 146.572 43.5369C147.106 43.9176 147.734 44.108 148.455 44.108C148.938 44.108 149.376 44.0199 149.768 43.8438C150.165 43.6619 150.498 43.4034 150.765 43.0682C151.038 42.733 151.228 42.3295 151.336 41.858H153.816C153.725 42.7045 153.45 43.4602 152.989 44.125C152.529 44.7898 151.913 45.3125 151.14 45.6932C150.373 46.0739 149.472 46.2642 148.438 46.2642ZM164.572 46H161.776L168.058 28.5455H171.1L177.381 46H174.586L169.651 31.7159H169.515L164.572 46ZM165.04 39.1648H174.109V41.3807H165.04V39.1648ZM184.988 32.9091V34.9545H177.837V32.9091H184.988ZM179.755 29.7727H182.303V42.1562C182.303 42.6506 182.377 43.0227 182.525 43.2727C182.673 43.517 182.863 43.6847 183.096 43.7756C183.335 43.8608 183.593 43.9034 183.871 43.9034C184.076 43.9034 184.255 43.8892 184.408 43.8608C184.562 43.8324 184.681 43.8097 184.766 43.7926L185.227 45.8977C185.079 45.9545 184.869 46.0114 184.596 46.0682C184.323 46.1307 183.982 46.1648 183.573 46.1705C182.903 46.1818 182.278 46.0625 181.698 45.8125C181.119 45.5625 180.65 45.1761 180.292 44.6534C179.934 44.1307 179.755 43.4744 179.755 42.6847V29.7727ZM193.918 32.9091V34.9545H186.767V32.9091H193.918ZM188.685 29.7727H191.233V42.1562C191.233 42.6506 191.307 43.0227 191.455 43.2727C191.602 43.517 191.793 43.6847 192.026 43.7756C192.264 43.8608 192.523 43.9034 192.801 43.9034C193.006 43.9034 193.185 43.8892 193.338 43.8608C193.491 43.8324 193.611 43.8097 193.696 43.7926L194.156 45.8977C194.009 45.9545 193.798 46.0114 193.526 46.0682C193.253 46.1307 192.912 46.1648 192.503 46.1705C191.832 46.1818 191.207 46.0625 190.628 45.8125C190.048 45.5625 189.58 45.1761 189.222 44.6534C188.864 44.1307 188.685 43.4744 188.685 42.6847V29.7727ZM202.238 46.2642C200.948 46.2642 199.837 45.9886 198.906 45.4375C197.979 44.8807 197.263 44.0994 196.758 43.0938C196.258 42.0824 196.008 40.8977 196.008 39.5398C196.008 38.1989 196.258 37.017 196.758 35.9943C197.263 34.9716 197.968 34.1733 198.871 33.5994C199.781 33.0256 200.843 32.7386 202.059 32.7386C202.798 32.7386 203.513 32.8608 204.207 33.1051C204.9 33.3494 205.522 33.733 206.073 34.2557C206.624 34.7784 207.059 35.4574 207.377 36.2926C207.695 37.1222 207.854 38.1307 207.854 39.3182V40.2216H197.448V38.3125H205.357C205.357 37.642 205.221 37.0483 204.948 36.5312C204.675 36.0085 204.292 35.5966 203.798 35.2955C203.309 34.9943 202.735 34.8438 202.076 34.8438C201.36 34.8438 200.735 35.0199 200.201 35.3722C199.673 35.7187 199.263 36.1733 198.974 36.7358C198.69 37.2926 198.548 37.8977 198.548 38.5511V40.0426C198.548 40.9176 198.701 41.6619 199.008 42.2756C199.32 42.8892 199.755 43.358 200.312 43.6818C200.869 44 201.519 44.1591 202.263 44.1591C202.746 44.1591 203.187 44.0909 203.585 43.9545C203.982 43.8125 204.326 43.6023 204.616 43.3239C204.906 43.0455 205.127 42.7017 205.281 42.2926L207.692 42.7273C207.499 43.4375 207.153 44.0597 206.653 44.5938C206.158 45.1222 205.536 45.5341 204.786 45.8295C204.042 46.1193 203.192 46.2642 202.238 46.2642ZM213.23 38.2273V46H210.682V32.9091H213.128V35.0398H213.29C213.591 34.3466 214.063 33.7898 214.705 33.3693C215.352 32.9489 216.168 32.7386 217.151 32.7386C218.043 32.7386 218.824 32.9261 219.494 33.3011C220.165 33.6705 220.685 34.2216 221.054 34.9545C221.423 35.6875 221.608 36.5937 221.608 37.6733V46H219.06V37.9801C219.06 37.0312 218.813 36.2898 218.318 35.7557C217.824 35.2159 217.145 34.946 216.281 34.946C215.69 34.946 215.165 35.0739 214.705 35.3295C214.25 35.5852 213.889 35.9602 213.622 36.4545C213.361 36.9432 213.23 37.5341 213.23 38.2273ZM231.136 32.9091V34.9545H223.986V32.9091H231.136ZM225.903 29.7727H228.452V42.1562C228.452 42.6506 228.526 43.0227 228.673 43.2727C228.821 43.517 229.011 43.6847 229.244 43.7756C229.483 43.8608 229.741 43.9034 230.02 43.9034C230.224 43.9034 230.403 43.8892 230.557 43.8608C230.71 43.8324 230.83 43.8097 230.915 43.7926L231.375 45.8977C231.227 45.9545 231.017 46.0114 230.744 46.0682C230.472 46.1307 230.131 46.1648 229.722 46.1705C229.051 46.1818 228.426 46.0625 227.847 45.8125C227.267 45.5625 226.798 45.1761 226.44 44.6534C226.082 44.1307 225.903 43.4744 225.903 42.6847V29.7727ZM233.955 46V32.9091H236.504V46H233.955ZM235.242 30.8892C234.799 30.8892 234.418 30.7415 234.1 30.446C233.788 30.1449 233.631 29.7869 233.631 29.3722C233.631 28.9517 233.788 28.5937 234.1 28.2983C234.418 27.9972 234.799 27.8466 235.242 27.8466C235.685 27.8466 236.063 27.9972 236.376 28.2983C236.694 28.5937 236.853 28.9517 236.853 29.3722C236.853 29.7869 236.694 30.1449 236.376 30.446C236.063 30.7415 235.685 30.8892 235.242 30.8892ZM245.446 46.2642C244.219 46.2642 243.148 45.983 242.233 45.4205C241.318 44.858 240.608 44.071 240.102 43.0597C239.597 42.0483 239.344 40.8665 239.344 39.5142C239.344 38.1562 239.597 36.9687 240.102 35.9517C240.608 34.9347 241.318 34.1449 242.233 33.5824C243.148 33.0199 244.219 32.7386 245.446 32.7386C246.673 32.7386 247.744 33.0199 248.659 33.5824C249.574 34.1449 250.284 34.9347 250.79 35.9517C251.295 36.9687 251.548 38.1562 251.548 39.5142C251.548 40.8665 251.295 42.0483 250.79 43.0597C250.284 44.071 249.574 44.858 248.659 45.4205C247.744 45.983 246.673 46.2642 245.446 46.2642ZM245.455 44.125C246.25 44.125 246.909 43.9148 247.432 43.4943C247.955 43.0739 248.341 42.5142 248.591 41.8153C248.847 41.1165 248.974 40.3466 248.974 39.5057C248.974 38.6705 248.847 37.9034 248.591 37.2045C248.341 36.5 247.955 35.9347 247.432 35.5085C246.909 35.0824 246.25 34.8693 245.455 34.8693C244.653 34.8693 243.989 35.0824 243.46 35.5085C242.938 35.9347 242.548 36.5 242.293 37.2045C242.043 37.9034 241.918 38.6705 241.918 39.5057C241.918 40.3466 242.043 41.1165 242.293 41.8153C242.548 42.5142 242.938 43.0739 243.46 43.4943C243.989 43.9148 244.653 44.125 245.455 44.125ZM256.941 38.2273V46H254.393V32.9091H256.839V35.0398H257.001C257.302 34.3466 257.773 33.7898 258.415 33.3693C259.063 32.9489 259.879 32.7386 260.862 32.7386C261.754 32.7386 262.535 32.9261 263.205 33.3011C263.876 33.6705 264.396 34.2216 264.765 34.9545C265.134 35.6875 265.319 36.5937 265.319 37.6733V46H262.771V37.9801C262.771 37.0312 262.523 36.2898 262.029 35.7557C261.535 35.2159 260.856 34.946 259.992 34.946C259.401 34.946 258.876 35.0739 258.415 35.3295C257.961 35.5852 257.6 35.9602 257.333 36.4545C257.072 36.9432 256.941 37.5341 256.941 38.2273ZM274.432 30.8125V28.5455H287.94V30.8125H282.494V46H279.869V30.8125H274.432ZM294.337 46.2642C293.109 46.2642 292.038 45.983 291.124 45.4205C290.209 44.858 289.499 44.071 288.993 43.0597C288.487 42.0483 288.234 40.8665 288.234 39.5142C288.234 38.1562 288.487 36.9687 288.993 35.9517C289.499 34.9347 290.209 34.1449 291.124 33.5824C292.038 33.0199 293.109 32.7386 294.337 32.7386C295.564 32.7386 296.635 33.0199 297.55 33.5824C298.464 34.1449 299.175 34.9347 299.68 35.9517C300.186 36.9687 300.439 38.1562 300.439 39.5142C300.439 40.8665 300.186 42.0483 299.68 43.0597C299.175 44.071 298.464 44.858 297.55 45.4205C296.635 45.983 295.564 46.2642 294.337 46.2642ZM294.345 44.125C295.141 44.125 295.8 43.9148 296.322 43.4943C296.845 43.0739 297.232 42.5142 297.482 41.8153C297.737 41.1165 297.865 40.3466 297.865 39.5057C297.865 38.6705 297.737 37.9034 297.482 37.2045C297.232 36.5 296.845 35.9347 296.322 35.5085C295.8 35.0824 295.141 34.8693 294.345 34.8693C293.544 34.8693 292.879 35.0824 292.351 35.5085C291.828 35.9347 291.439 36.5 291.183 37.2045C290.933 37.9034 290.808 38.6705 290.808 39.5057C290.808 40.3466 290.933 41.1165 291.183 41.8153C291.439 42.5142 291.828 43.0739 292.351 43.4943C292.879 43.9148 293.544 44.125 294.345 44.125ZM305.627 41.5597L305.61 38.4489H306.053L311.269 32.9091H314.32L308.371 39.2159H307.971L305.627 41.5597ZM303.283 46V28.5455H305.832V46H303.283ZM311.55 46L306.863 39.7784L308.619 37.9972L314.678 46H311.55ZM321.746 46.2642C320.456 46.2642 319.345 45.9886 318.413 45.4375C317.487 44.8807 316.771 44.0994 316.266 43.0938C315.766 42.0824 315.516 40.8977 315.516 39.5398C315.516 38.1989 315.766 37.017 316.266 35.9943C316.771 34.9716 317.476 34.1733 318.379 33.5994C319.288 33.0256 320.351 32.7386 321.567 32.7386C322.305 32.7386 323.021 32.8608 323.714 33.1051C324.408 33.3494 325.03 33.733 325.581 34.2557C326.132 34.7784 326.567 35.4574 326.885 36.2926C327.203 37.1222 327.362 38.1307 327.362 39.3182V40.2216H316.956V38.3125H324.865C324.865 37.642 324.729 37.0483 324.456 36.5312C324.183 36.0085 323.8 35.5966 323.305 35.2955C322.817 34.9943 322.243 34.8438 321.584 34.8438C320.868 34.8438 320.243 35.0199 319.709 35.3722C319.18 35.7187 318.771 36.1733 318.482 36.7358C318.197 37.2926 318.055 37.8977 318.055 38.5511V40.0426C318.055 40.9176 318.209 41.6619 318.516 42.2756C318.828 42.8892 319.263 43.358 319.82 43.6818C320.376 44 321.027 44.1591 321.771 44.1591C322.254 44.1591 322.695 44.0909 323.092 43.9545C323.49 43.8125 323.834 43.6023 324.124 43.3239C324.413 43.0455 324.635 42.7017 324.788 42.2926L327.2 42.7273C327.007 43.4375 326.661 44.0597 326.161 44.5938C325.666 45.1222 325.044 45.5341 324.294 45.8295C323.55 46.1193 322.7 46.2642 321.746 46.2642ZM332.738 38.2273V46H330.19V32.9091H332.636V35.0398H332.798C333.099 34.3466 333.57 33.7898 334.212 33.3693C334.86 32.9489 335.675 32.7386 336.658 32.7386C337.55 32.7386 338.332 32.9261 339.002 33.3011C339.673 33.6705 340.192 34.2216 340.562 34.9545C340.931 35.6875 341.116 36.5937 341.116 37.6733V46H338.567V37.9801C338.567 37.0312 338.32 36.2898 337.826 35.7557C337.332 35.2159 336.653 34.946 335.789 34.946C335.198 34.946 334.673 35.0739 334.212 35.3295C333.758 35.5852 333.397 35.9602 333.13 36.4545C332.869 36.9432 332.738 37.5341 332.738 38.2273Z" fill="white"/>
</g>
<defs>
<filter id="filter0_d_8380_120" x="0" y="0" width="344" height="83" filterUnits="userSpaceOnUse" color-interpolation-filters="sRGB">
<feFlood flood-opacity="0" result="BackgroundImageFix"/>
<feColorMatrix in="SourceAlpha" type="matrix" values="0 0 0 0 0 0 0 0 0 0 0 0 0 0 0 0 0 0 127 0" result="hardAlpha"/>
<feOffset dy="4"/>
<feGaussianBlur stdDeviation="2"/>
<feComposite in2="hardAlpha" operator="out"/>
<feColorMatrix type="matrix" values="0 0 0 0 0 0 0 0 0 0 0 0 0 0 0 0 0 0 0.25 0"/>
<feBlend mode="saturation" in2="BackgroundImageFix" result="effect1_dropShadow_8380_120"/>
<feBlend mode="normal" in="SourceGraphic" in2="effect1_dropShadow_8380_120" result="shape"/>
</filter>
<clipPath id="clip0_8380_120">
<rect width="336" height="75" fill="white" transform="translate(4)"/>
</clipPath>
</defs>
</svg>
