<svg width="222" height="29" viewBox="0 0 222 29" fill="none" xmlns="http://www.w3.org/2000/svg">
<path d="M9.69874 22.7513L0.634119 27.9851L0.38913 27.5607L9.45375 22.3273L9.69874 22.7513ZM31.9928 27.5607L31.7478 27.9851L22.6832 22.7513L22.9282 22.3273L31.9928 27.5607ZM16.436 0.490234V11.0248H15.946V0.490234H16.436Z" fill="white"/>
<path fill-rule="evenodd" clip-rule="evenodd" d="M71.6429 8.43592C69.9499 9.0591 70.4308 11.3253 72.2561 11.3253C73.6294 11.3253 74.2833 9.66783 73.2601 8.78064C73.0135 8.56683 72.7361 8.39126 72.6434 8.39039C72.5509 8.38963 72.3785 8.36606 72.2605 8.33824C72.1426 8.31032 71.8646 8.35422 71.6429 8.43592ZM143.072 8.43874C141.859 8.87669 141.636 10.1977 142.632 11.0402C143.263 11.5737 144.923 11.3117 144.923 10.6787C144.923 10.6161 144.971 10.5648 145.03 10.5648C145.204 10.5648 145.158 9.33951 144.974 9.07398C144.55 8.46014 143.751 8.19342 143.072 8.43874ZM192.952 12.5476C192.922 18.3194 192.984 21.7996 193.119 21.8888C193.274 21.991 195.235 21.9381 195.411 21.8269C195.509 21.7651 195.546 21.2704 195.548 19.9833C195.551 18.2242 195.551 18.2242 195.867 18.6045C196.041 18.8136 196.184 19.0459 196.186 19.1205C196.187 19.1953 196.261 19.2564 196.349 19.2564C196.438 19.2564 196.51 19.3034 196.51 19.361C196.51 19.4185 196.929 19.993 197.44 20.6376C197.952 21.2821 198.385 21.8284 198.402 21.8515C198.428 21.8852 200.192 21.8954 201.417 21.869C201.769 21.8614 201.717 21.6853 201.176 21.0433C200.91 20.7286 200.693 20.4178 200.693 20.3527C200.693 20.2875 200.626 20.2342 200.545 20.2342C200.463 20.2342 200.265 20.0591 200.104 19.8452C199.943 19.6313 199.684 19.3216 199.528 19.1571C198.73 18.3132 198.337 17.8169 198.394 17.7243C198.428 17.6676 198.416 17.6347 198.366 17.6511C197.888 17.809 197.676 17.068 198.073 16.6235C198.305 16.3638 198.736 15.8617 199.031 15.5077C199.326 15.1537 199.639 14.7867 199.728 14.6923C199.816 14.5978 200.115 14.2537 200.391 13.9278C201.297 12.8593 201.414 12.7377 201.537 12.7377C201.604 12.7377 201.658 12.6155 201.658 12.4661C201.658 12.1945 201.658 12.1945 199.996 12.1945C199.082 12.1945 198.334 12.2312 198.334 12.276C198.334 12.3208 198.146 12.5653 197.917 12.8192C197.688 13.0732 197.521 13.2809 197.545 13.2809C197.57 13.2809 197.36 13.5674 197.077 13.9176C196.795 14.2677 196.467 14.6936 196.349 14.864C195.517 16.0656 195.552 16.1692 195.548 12.4389C195.545 9.04378 195.545 9.04378 194.258 9.04378C192.971 9.04378 192.971 9.04378 192.952 12.5476ZM39.8227 9.7843C39.7457 9.81038 39.71 11.7324 39.71 15.8431C39.71 21.8638 39.71 21.8638 42.6369 21.8638C46.1588 21.8638 47.3402 21.6189 47.9438 20.764C48.0189 20.6578 48.1517 20.4985 48.2388 20.4103C48.326 20.3219 48.3973 20.1973 48.3973 20.1332C48.3973 20.0692 48.4378 20.0169 48.4874 20.0169C48.6538 20.0169 48.8588 18.846 48.7975 18.2451C48.6883 17.1722 48.2076 16.4194 47.2516 15.8242C47.0264 15.6839 46.9165 15.5677 47.0073 15.5658C47.6391 15.5529 48.6118 13.952 48.6118 12.9252C48.6118 12.5507 48.5631 12.383 48.2214 11.5807C48.0303 11.1318 47.4531 10.5609 46.935 10.3083C46.707 10.1972 46.4239 10.0533 46.3059 9.98877C46.1776 9.91848 45.1648 9.8572 43.7855 9.83612C42.5173 9.81679 41.1321 9.78865 40.7075 9.77365C40.2828 9.75855 39.8846 9.76344 39.8227 9.7843ZM93.1545 9.78093C93.0845 9.82591 92.899 10.2285 92.7422 10.6755C92.5854 11.1226 92.4177 11.5861 92.3697 11.7056C91.944 12.7641 91.512 13.9616 91.512 14.0829C91.512 14.1647 91.3914 14.5081 91.2439 14.8458C91.0964 15.1836 90.9758 15.5564 90.9758 15.6742C90.9758 15.792 90.9384 15.8884 90.8929 15.8884C90.8473 15.8884 90.7557 16.0961 90.6892 16.3501C90.6227 16.6041 90.3672 17.3741 90.1213 18.0613C89.8755 18.7484 89.5539 19.6529 89.4068 20.0712C89.2595 20.4895 89.0939 20.9165 89.0386 21.0203C88.6625 21.7258 88.857 21.8638 90.2277 21.8638C91.468 21.8638 91.5206 21.8545 91.6034 21.6194C92.3501 19.4987 92.0653 19.6838 94.5323 19.7159C96.7787 19.7453 96.7787 19.7453 97.1259 20.7774C97.4733 21.8095 97.4733 21.8095 98.8456 21.84C100.418 21.8749 100.376 21.9393 99.7619 20.4309C99.5928 20.0153 99.4092 19.52 99.3539 19.3301C99.2428 18.9492 98.8638 17.8749 98.427 16.7032C98.271 16.2849 98.102 15.796 98.0513 15.6168C97.9209 15.155 97.4208 13.7224 97.2549 13.3352C97.1781 13.156 97.0332 12.7649 96.9329 12.4661C96.8326 12.1673 96.7088 11.8251 96.6578 11.7056C96.6066 11.5861 96.4386 11.1227 96.2841 10.6757C96.1298 10.2289 95.9461 9.82624 95.8759 9.78115C95.71 9.67425 93.3204 9.67403 93.1545 9.78093ZM172.138 9.8119C171.902 9.95248 171.854 11.8081 172.084 11.8971C172.158 11.9257 172.701 11.9535 173.291 11.9589C173.88 11.9644 174.52 11.9707 174.712 11.9729C175.06 11.9772 175.06 11.9772 175.06 16.8598C175.06 19.5884 175.102 21.7686 175.155 21.802C175.435 21.977 177.613 21.9677 177.68 21.7912C177.717 21.6925 177.759 19.4363 177.772 16.7773C177.795 11.9427 177.795 11.9427 179.259 11.9672C180.308 11.9848 180.746 11.9546 180.803 11.8608C180.89 11.7181 180.872 10.094 180.781 9.85329C180.71 9.66566 172.45 9.62601 172.138 9.8119ZM101.924 10.0472C101.86 10.151 101.808 10.6766 101.808 11.2151C101.808 12.1945 101.808 12.1945 101.401 12.1945C100.819 12.1945 100.736 12.332 100.736 13.2937C100.736 14.4124 100.767 14.476 101.324 14.476C101.783 14.476 101.783 14.476 101.833 17.002C101.916 21.1564 102.302 21.7351 105.064 21.8408C106.692 21.903 106.63 21.9468 106.633 20.7176C106.635 19.6345 106.588 19.5823 105.611 19.5823C104.457 19.5823 104.489 19.663 104.489 16.8304C104.489 14.476 104.489 14.476 105.433 14.476C106.609 14.476 106.634 14.4516 106.634 13.3352C106.634 12.2195 106.608 12.1945 105.437 12.1945C104.497 12.1945 104.497 12.1945 104.466 11.0809C104.436 9.96726 104.436 9.96726 103.238 9.91294C102.181 9.86502 102.026 9.88078 101.924 10.0472ZM108.457 9.89479C108.396 9.91565 108.35 10.4125 108.35 11.0627C108.35 12.1945 108.35 12.1945 107.814 12.1945C107.519 12.1945 107.274 12.2434 107.27 12.3031C107.265 12.3629 107.262 12.8029 107.262 13.2809C107.262 13.7589 107.265 14.2234 107.27 14.313C107.276 14.435 107.413 14.476 107.814 14.476C108.35 14.476 108.35 14.476 108.35 17.0527C108.35 21.1485 108.796 21.7952 111.621 21.8047C113.016 21.8095 113.016 21.8095 113.016 20.7231C113.016 19.6366 113.016 19.6366 112.127 19.5823C110.982 19.5123 111.035 19.6458 111.033 16.8431C111.032 14.4841 111.032 14.4841 112.024 14.453C113.016 14.4217 113.016 14.4217 113.047 13.3987C113.084 12.1764 113.105 12.1984 111.916 12.1961C111.032 12.1945 111.032 12.1945 111.032 11.1756C111.032 10.4926 110.987 10.12 110.898 10.0453C110.773 9.94173 108.695 9.81364 108.457 9.89479ZM136.262 9.95781C136.228 10.0125 136.178 10.538 136.15 11.1257C136.1 12.1945 136.1 12.1945 135.643 12.1945C135.09 12.1945 135.056 12.2622 135.056 13.3352C135.056 14.4133 135.089 14.476 135.657 14.476C136.035 14.476 136.128 14.5137 136.127 14.6661C136.104 17.4807 136.208 19.7841 136.373 20.1151C136.474 20.3185 136.557 20.5266 136.557 20.5777C136.557 21.3425 140.788 22.5409 140.856 21.7952C140.897 21.3404 140.908 19.825 140.871 19.7181C140.839 19.626 140.569 19.5823 140.031 19.5823C138.782 19.5823 138.81 19.6446 138.81 16.8119C138.81 14.476 138.81 14.476 139.821 14.476C141.001 14.476 140.961 14.5197 140.918 13.2787C140.881 12.1792 140.897 12.1945 139.768 12.1945C138.81 12.1945 138.81 12.1945 138.81 11.1047C138.81 10.3295 138.771 10.0016 138.675 9.96921C138.393 9.87317 136.319 9.8635 136.262 9.95781ZM44.6007 11.9682C44.7717 12.023 45.0458 12.0977 45.2099 12.1341C45.8334 12.2725 46.1317 13.3366 45.7428 14.0349C45.2871 14.8532 42.427 15.02 42.3706 14.2316C42.2806 12.9708 42.396 11.9924 42.6403 11.9442C43.0927 11.855 44.2933 11.8697 44.6007 11.9682ZM53.0022 12.2351C52.3158 12.4367 51.6157 12.8755 51.1168 13.4166C50.7415 13.8238 50.5492 14.1215 50.2055 14.827C48.102 19.1469 53.0737 23.9535 56.7295 21.1342C57.0715 20.8704 57.0715 20.8704 57.1049 21.3399C57.1382 21.8095 57.1382 21.8095 58.4252 21.8095C59.7122 21.8095 59.7122 21.8095 59.7402 17.0906C59.7621 13.3876 59.739 12.353 59.633 12.2848C59.4753 12.1834 57.5043 12.1632 57.2543 12.2604C57.1349 12.3068 57.0846 12.469 57.0846 12.808C57.0846 13.2897 57.0846 13.2897 56.7907 13.0138C55.9625 12.2358 54.2195 11.8776 53.0022 12.2351ZM64.0281 12.2092C62.9956 12.4099 62.058 13.1347 61.6813 14.0233C61.4666 14.5299 61.406 15.7194 61.5891 15.8341C61.6481 15.871 61.6964 15.9889 61.6964 16.096C61.6964 16.5978 62.7974 17.3952 63.9486 17.7271C66.3627 18.4232 66.6299 18.5571 66.6299 19.0718C66.6299 20.2564 64.4873 20.1451 63.9137 18.9305C63.72 18.5205 61.4157 18.4449 61.3231 18.8455C61.2057 19.3533 61.6334 20.2948 62.2201 20.8202C62.3607 20.946 62.5296 21.0979 62.5954 21.1576C63.1668 21.6759 65.0326 22.1618 65.8776 22.0126C66.1439 21.9656 66.4333 21.9338 66.5208 21.9419C67.7011 22.052 69.1403 20.4874 69.1383 19.0965C69.1357 17.4313 68.1366 16.5597 65.5815 15.993C64.1707 15.6801 63.6559 15.1281 64.2313 14.5451C64.8456 13.923 66.6299 14.3776 66.6299 15.1562C66.6299 15.433 68.3614 15.6076 68.927 15.3879C69.1176 15.3138 69.1665 14.6412 68.9894 14.5303C68.9304 14.4934 68.8821 14.3767 68.8821 14.2709C68.8821 12.8843 66.2681 11.774 64.0281 12.2092ZM78.3708 12.2338C75.8844 12.8039 74.4473 15.4267 75.0565 18.2829C75.3196 19.5164 76.2861 21.1033 76.7742 21.1033C76.8576 21.1033 76.9259 21.1464 76.9259 21.1992C76.9259 21.8354 80.5906 22.3088 81.2675 21.7602C81.3277 21.7115 81.5336 21.6376 81.7254 21.5961C81.9172 21.5546 82.074 21.4833 82.074 21.4377C82.074 21.3921 82.241 21.2637 82.4452 21.1523C82.8801 20.915 83.4415 20.2511 83.7269 19.6366C83.8379 19.3976 83.9699 19.1172 84.0202 19.0134C84.2817 18.4742 84.083 18.3908 82.5319 18.3887C81.4349 18.3872 81.4349 18.3872 81.2217 18.8104C80.7062 19.8339 78.8509 19.9795 78.134 19.0525C77.4073 18.1129 77.4062 15.9052 78.1321 15.0177C78.4834 14.5881 79.6383 14.1828 79.9468 14.3808C80.0255 14.4313 80.1815 14.4734 80.2935 14.4744C80.4923 14.476 81.0771 15.0055 81.2768 15.3648C81.3817 15.5533 83.9003 15.7041 84.0702 15.532C84.1113 15.4904 84.0072 15.1258 83.8387 14.7218C82.9877 12.6805 80.788 11.6797 78.3708 12.2338ZM117.116 12.2544C116.271 12.4882 114.785 13.5559 114.785 13.9292C114.785 13.9909 114.748 14.0414 114.702 14.0414C114.623 14.0414 114.401 14.4473 114.169 15.0192C113.288 17.1845 114.298 20.5657 116.072 21.391C118.272 22.4142 120.325 22.2189 121.82 20.8439C122.468 20.2486 123.092 19.2132 123.024 18.8494C122.924 18.3253 120.527 18.5459 119.964 19.1309C119.325 19.7944 117.467 20.0453 117.467 19.4681C117.467 19.4194 117.382 19.3521 117.279 19.3183C117.054 19.2448 116.719 18.6863 116.606 18.1971C116.524 17.844 116.524 17.844 119.884 17.844C123.68 17.844 123.336 17.937 123.357 16.9067C123.426 13.5819 120.419 11.3404 117.116 12.2544ZM128.996 12.2128C128.446 12.4006 127.935 12.6523 127.655 12.8732C127.387 13.0852 127.387 13.0852 127.334 12.667C127.278 12.2306 125.098 11.9241 124.857 12.3186C124.763 12.4736 124.733 21.4509 124.827 21.6968C124.911 21.9185 127.331 21.9486 127.339 21.728C127.342 21.6534 127.341 20.37 127.337 18.8761C127.327 15.0441 127.589 14.4492 129.292 14.4341C130.994 14.4189 131.187 14.8525 131.198 18.7264C131.208 22.18 131.073 21.8788 132.598 21.8404C133.822 21.8095 133.822 21.8095 133.876 19.202C133.92 17.067 133.838 16.9974 133.876 16.6489C133.876 16.3456 133.876 16.4382 133.876 16.16C133.876 15.9427 133.837 15.8633 133.822 15.7254C133.799 15.4965 133.812 15.5154 133.755 15.1205C133.458 13.0285 131.002 11.5283 128.996 12.2128ZM149.831 12.2469C146.929 13.0558 145.364 16.8454 146.868 19.4193C146.973 19.5986 147.139 19.9058 147.238 20.102C147.71 21.0414 149.264 21.9099 150.675 22.023C151.428 22.0834 151.735 22.0528 152.993 21.7917C153.156 21.758 153.288 21.6872 153.288 21.6343C153.288 21.5812 153.373 21.5379 153.477 21.5379C153.581 21.5379 153.859 21.3677 154.094 21.1597C154.329 20.9517 154.57 20.7787 154.629 20.7752C154.898 20.7593 155.947 18.99 155.875 18.6724C155.863 18.6201 155.925 18.4975 156.012 18.3999C156.379 17.9895 156.059 15.4706 155.506 14.4109C155.104 13.641 153.967 12.6871 153.127 12.4146C152.892 12.338 152.588 12.2327 152.452 12.1806C152.089 12.0411 150.417 12.0834 149.831 12.2469ZM161.567 12.2912C161.254 12.4025 160.811 12.6464 160.582 12.8331C160.165 13.1725 160.165 13.1725 160.132 12.7106C160.097 12.2314 157.939 11.8947 157.669 12.3264C157.56 12.5001 157.552 21.5472 157.66 21.7116C157.752 21.8502 159.829 21.9993 160.018 21.8809C160.109 21.8241 160.159 21.0057 160.192 19.0349C160.258 15.1785 160.474 14.476 161.59 14.476C161.736 14.476 161.884 14.43 161.918 14.3739C161.955 14.313 162.099 14.3094 162.273 14.3649C162.434 14.4161 162.696 14.487 162.856 14.5223C163.872 14.7471 164.013 15.2631 164.013 18.7556C164.013 20.3983 164.056 21.7692 164.109 21.802C164.244 21.8864 166.358 21.9715 166.542 21.8999C166.953 21.7402 166.665 14.0414 166.248 14.0414C166.199 14.0414 166.158 13.9804 166.158 13.9056C166.153 12.7713 163.168 11.7213 161.567 12.2912ZM185.142 12.21C184.584 12.3653 183.64 12.8459 183.64 12.9746C183.64 13.0364 183.568 13.0587 183.479 13.0243C183.391 12.99 183.318 13.0071 183.318 13.0624C183.318 13.1178 183.121 13.3729 182.88 13.6294C180.869 15.771 181.482 20.2357 183.947 21.3969C184.162 21.498 184.369 21.6284 184.409 21.6865C184.448 21.7445 184.593 21.8053 184.73 21.8213C184.868 21.8374 185.246 21.9046 185.571 21.9706C186.286 22.1162 187.683 22.0207 188.231 21.7886C188.704 21.5884 189.028 21.4618 189.132 21.4374C189.734 21.2955 190.991 19.5363 191.359 18.3195C191.882 16.5924 190.508 12.8463 189.352 12.8463C189.278 12.8463 189.217 12.7974 189.217 12.7377C189.217 12.6779 189.164 12.629 189.099 12.629C189.035 12.629 188.829 12.5605 188.644 12.4768C188.458 12.3931 188.142 12.2708 187.941 12.2052C187.501 12.0612 185.665 12.0643 185.142 12.21ZM205.305 12.233C203.851 12.715 202.645 13.9169 202.291 15.2365C201.925 16.6012 202.133 19.0444 202.67 19.6909C202.854 19.9128 202.984 20.2544 202.958 20.4514C202.941 20.5827 202.955 20.5861 203.034 20.4686C203.109 20.3559 203.184 20.3978 203.363 20.6522C203.49 20.8335 203.69 21.0125 203.806 21.0499C203.923 21.0873 204.018 21.1921 204.018 21.2827C204.018 21.3732 204.078 21.4258 204.152 21.3995C204.226 21.3732 204.407 21.4354 204.554 21.5379C204.824 21.7252 205.013 21.7835 206.002 21.9827C206.559 22.0947 208.103 22.0204 208.404 21.8671C208.498 21.8187 208.769 21.6882 209.005 21.5771C209.241 21.4659 209.608 21.2418 209.821 21.0791C210.034 20.9163 210.247 20.8186 210.294 20.8618C210.341 20.905 210.346 20.8798 210.304 20.8058C210.26 20.7283 210.346 20.5443 210.507 20.3713C210.85 20.0028 211.342 18.953 211.266 18.7519C211.109 18.3367 208.735 18.5719 208.274 19.0484C207.358 19.9952 206.065 19.9691 205.213 18.9865C205.028 18.7722 204.875 18.5376 204.874 18.4649C204.874 18.3923 204.844 18.2229 204.808 18.0884C204.744 17.844 204.744 17.844 208.084 17.844C210.66 17.844 211.436 17.8129 211.472 17.7082C211.761 16.8707 211.366 14.79 210.772 14.0275C210.662 13.8858 210.424 13.5798 210.244 13.3474C210.064 13.1151 209.917 12.9639 209.917 13.0111C209.917 13.0585 209.832 13.0281 209.729 12.9435C208.799 12.1813 206.55 11.8202 205.305 12.233ZM217.102 12.2111C216.955 12.2761 216.714 12.3819 216.566 12.4464C216.419 12.5109 216.141 12.6787 215.949 12.8192C215.601 13.0747 215.601 13.0747 215.601 12.6346C215.601 12.2083 213.216 11.9045 212.975 12.3001C212.875 12.4642 212.913 21.6829 213.014 21.7855C213.103 21.8761 215.462 21.9324 215.547 21.846C215.572 21.821 215.598 20.5173 215.606 18.9487C215.622 15.7327 215.667 15.4522 216.253 14.894C216.682 14.485 217.558 14.2372 217.875 14.4353C217.951 14.4831 218.091 14.524 218.187 14.5263C218.416 14.5316 219.033 15.0151 219.033 15.1894C219.033 15.2651 219.084 15.3442 219.146 15.3651C219.377 15.4432 219.457 16.337 219.461 18.8761C219.466 22.2535 219.321 21.9225 220.781 21.8977C221.982 21.8773 221.982 21.8773 221.982 18.2581C221.982 14.0801 222.013 14.2232 220.868 13.0671C220.046 12.2365 218.067 11.7867 217.102 12.2111ZM70.9414 12.3248C70.7947 12.4734 70.7527 21.4915 70.8976 21.7224C70.9867 21.8645 73.1676 21.9467 73.3765 21.8159C73.5879 21.6836 73.5368 12.3431 73.3242 12.2604C73.0044 12.1361 71.0762 12.1883 70.9414 12.3248ZM142.316 12.2637C142.155 12.4272 142.23 21.738 142.394 21.8312C142.478 21.879 143.081 21.9028 143.736 21.8841C144.925 21.8502 144.925 21.8502 144.897 17.0495C144.869 12.2488 144.869 12.2488 143.63 12.2184C142.949 12.2016 142.357 12.222 142.316 12.2637ZM94.6223 13.3911C94.6223 13.5113 94.6699 13.6947 94.7281 13.7985C94.8531 14.0212 95.9093 17.2261 95.9093 17.3827C95.9093 17.4473 95.3354 17.4972 94.4678 17.5078C93.0264 17.5255 93.0264 17.5255 93.1167 17.2231C93.3518 16.4362 94.074 14.3433 94.1301 14.2864C94.1649 14.2513 94.1933 14.1113 94.1933 13.9754C94.1933 13.8395 94.2415 13.6981 94.3005 13.6612C94.3595 13.6242 94.4078 13.4992 94.4078 13.3831C94.4078 13.2671 94.456 13.1723 94.515 13.1723C94.574 13.1723 94.6223 13.2707 94.6223 13.3911ZM119.162 14.3864C119.782 14.5435 120.44 15.1458 120.536 15.6439C120.604 15.997 120.604 15.997 118.606 15.997C117.226 15.997 116.609 15.9601 116.609 15.8776C116.609 15.3445 117.384 14.5202 118.031 14.3644C118.533 14.2438 118.606 14.2452 119.162 14.3864ZM207.477 14.4371C207.723 14.4783 207.879 14.5647 207.879 14.6596C207.879 14.7449 207.929 14.7837 207.989 14.7458C208.163 14.6368 208.844 15.5873 208.844 15.9392C208.844 15.9711 207.951 15.997 206.86 15.997C204.69 15.997 204.702 16.0012 205.026 15.3667C205.446 14.5428 206.261 14.2336 207.477 14.4371ZM55.7551 14.6507C57.0938 15.2173 57.5715 17.515 56.602 18.7239C54.6708 21.1318 51.4694 18.5435 52.8258 15.6711C53.3316 14.6001 54.5953 14.1598 55.7551 14.6507ZM152.309 14.751C154.399 15.9075 153.505 19.648 151.143 19.6279C148.978 19.6094 148.109 15.8992 150.017 14.8208C150.194 14.7208 150.355 14.6022 150.375 14.5575C150.468 14.3441 151.817 14.479 152.309 14.751ZM187.423 14.6357C188.927 15.272 189.201 17.9494 187.888 19.1741C187.162 19.8505 185.405 19.7393 184.991 18.9907C184.926 18.8745 184.794 18.6868 184.696 18.5739C184.26 18.0692 184.241 15.9039 184.674 16.0722C184.853 16.1417 185.133 15.8175 185.138 15.5353C185.14 15.4264 185.063 15.3452 184.957 15.3452C184.736 15.3452 185.254 14.8268 185.683 14.6187C186.055 14.4379 186.977 14.447 187.423 14.6357ZM45.3534 16.9339C46.5845 17.5258 46.4282 19.2791 45.1167 19.5872C43.0644 20.0693 42.3913 19.7328 42.3913 18.2242C42.3913 16.7575 42.3913 16.7575 43.6889 16.7575C44.6639 16.7575 45.0777 16.8014 45.3534 16.9339Z" fill="white"/>
<path d="M15.7665 0.24499C15.9551 -0.0816633 16.4268 -0.0816633 16.6154 0.24499L32.3158 27.4389C32.4925 27.7451 32.2963 28.123 31.9602 28.169L31.8913 28.1738V27.6838L16.1909 0.48998L0.490529 27.6838V28.1738L0.421626 28.169C0.107999 28.1261 -0.0835984 27.7942 0.0359586 27.5011L0.0661038 27.4389L15.7665 0.24499ZM31.8913 27.6838V28.1738H0.490529V27.6838H31.8913Z" fill="white"/>
<path d="M23.4047 22.784H8.97711L16.1909 10.2896L23.4047 22.784ZM9.82596 22.2941H22.5559L16.1909 11.2695L9.82596 22.2941Z" fill="white"/>
</svg>
