<svg width="131" height="85" viewBox="0 0 131 85" fill="none" xmlns="http://www.w3.org/2000/svg">
<path fill-rule="evenodd" clip-rule="evenodd" d="M62.9362 0.336661C56.0537 1.22559 49.5575 5.32072 47.079 10.3333C46.0963 12.3202 45.9373 13.0063 45.9373 15.2575C45.9373 18.4484 46.8477 20.5473 49.2846 22.9759C54.2344 27.9088 64.9096 29.7232 65.8989 25.7998C66.3017 24.2021 65.1147 22.6573 62.0968 20.8513C56.5777 17.5477 54.5124 14.2413 55.5468 10.3642C56.1057 8.26921 58.9493 5.52209 61.5693 4.54621C66.0544 2.87581 72.3455 2.85077 78.7443 4.47805C80.106 4.82409 81.271 5.05953 81.3335 5.00146C81.5906 4.76079 77.0773 2.38405 74.8307 1.57755C72.4685 0.728959 67.9555 -0.0817207 66.0862 0.0066158C65.5716 0.0309605 64.1544 0.179464 62.9362 0.336661ZM66.4883 9.85962C65.3051 10.3719 64.6267 11.3099 64.6267 12.4332C64.6267 13.5412 66.2553 15.1654 68.9189 16.7144C73.8683 19.5919 76.0946 23.1445 75.158 26.6696C74.2721 30.0042 71.0715 32.5325 66.4376 33.5588C63.1322 34.2913 56.6682 34.0523 52.5761 33.0473C51.04 32.6699 49.7283 32.4157 49.6612 32.4825C49.4052 32.7374 52.6805 34.5653 55.0284 35.4779C61.9714 38.177 70.4263 37.5855 76.8533 33.9508C79.5065 32.4501 82.4636 29.4063 83.6877 26.9155C84.545 25.1717 84.7133 24.4004 84.7133 22.2205C84.7133 18.9437 83.5857 16.4469 81.0317 14.0685C77.1859 10.4874 69.9044 8.38015 66.4883 9.85962ZM2.55572 51.3969C0.905123 52.1627 0 53.5695 0 55.3693C0 57.5182 1.72606 58.9518 5.93867 60.3008C8.37632 61.0816 8.79342 61.4228 8.66382 62.5308C8.59395 63.1269 8.20898 63.5936 7.51591 63.923C6.47315 64.4186 5.56523 64.2854 1.91994 63.1019C1.38685 62.9287 1.0749 63.1192 0.609935 63.9028C0.274575 64.4683 0 65.0213 0 65.1312C0 65.7335 3.15134 66.8169 5.39441 66.9859C9.8505 67.3215 12.4013 65.5488 12.4013 62.1169C12.4013 60.6114 12.2592 60.2935 11.1228 59.2564C10.2624 58.4715 9.00581 57.8434 7.28011 57.3356C3.60302 56.254 2.63537 55.202 4.2699 54.0623C5.30882 53.3375 7.18893 53.3908 8.96809 54.1948L10.4259 54.8539L11.3394 53.4794L12.2529 52.105L10.9299 51.5273C8.87377 50.6294 4.36143 50.5591 2.55572 51.3969ZM41.6447 51.4307C39.8778 52.2292 38.9388 53.9799 39.2507 55.8948C39.5837 57.937 41.2175 59.1538 45.1587 60.2946C48.3764 61.2256 49.0604 63.2201 46.4313 64.0043C45.283 64.3469 44.7615 64.2982 42.8908 63.6733L40.6973 62.9405L39.9113 63.8145C39.4789 64.2954 39.1253 64.8453 39.1253 65.0366C39.1253 65.6845 42.4199 66.8402 44.7367 67.005C48.7537 67.2912 51.6964 65.2964 51.6999 62.2849C51.7027 59.8153 50.0668 58.3411 46.0372 57.1826C44.9393 56.8672 43.7002 56.334 43.2834 55.9981C42.6424 55.4813 42.5883 55.2709 42.9317 54.632C43.6401 53.3139 46.2301 53.1824 48.5724 54.3454C49.5966 54.8542 49.6277 54.842 50.4675 53.6119C50.937 52.924 51.2493 52.2455 51.1616 52.1043C51.0736 51.9628 50.2666 51.5976 49.3681 51.2929C47.0947 50.5215 43.5154 50.5855 41.6447 51.4307ZM64.1027 51.1076C62.5918 51.5489 60.5353 53.3608 59.6469 55.0326C59.0614 56.1347 58.8808 57.0654 58.885 58.9612C58.8899 61.1073 59.0328 61.6742 59.9355 63.1279C61.7328 66.0222 64.503 67.3131 68.2052 66.9824C70.1301 66.8103 72.3183 65.8928 72.5324 65.1684C72.5887 64.9788 72.269 64.3782 71.8222 63.8339C71.0275 62.8661 70.9859 62.8563 69.9316 63.3992C68.5801 64.0948 65.9534 64.1156 64.6431 63.4409C61.3552 61.7483 61.3597 56.0721 64.6501 54.3781C66.0499 53.6575 68.4285 53.6498 69.8104 54.3614C70.3987 54.664 70.9534 54.9119 71.0436 54.9119C71.2242 54.9119 72.6613 52.674 72.6613 52.3923C72.6613 52.2949 71.8855 51.8831 70.9374 51.4769C69.1153 50.6965 66.0719 50.532 64.1027 51.1076ZM84.35 51.1086C83.7659 51.2776 82.6386 51.9697 81.845 52.6461C78.1099 55.829 78.2943 62.5656 82.1936 65.3777C84.0363 66.7066 85.9929 67.2032 88.5012 66.9793C92.8458 66.5905 95.7173 63.3815 95.7173 58.9142C95.7173 55.2928 94.3238 52.9334 91.3783 51.5677C89.4985 50.6965 86.46 50.4979 84.35 51.1086ZM18.5147 51.2435C18.5147 51.35 19.7723 53.4798 21.3093 55.9765L24.104 60.5158V63.6263V66.7365H25.676H27.248L27.2487 63.8673L27.2494 60.9981L30.218 56.1775C31.8508 53.5264 33.1867 51.2881 33.1867 51.2036C33.1867 51.119 32.3636 51.0971 31.3579 51.1552L29.5288 51.2602L27.7772 54.2901C26.8138 55.9563 25.9467 57.3238 25.8507 57.3287C25.7546 57.3339 24.8816 55.9702 23.9105 54.2992L22.1453 51.2602L20.3298 51.1552C19.3314 51.0971 18.5147 51.1371 18.5147 51.2435ZM104.101 58.9114V66.7365H105.673H107.245V58.9114V51.0863H105.673H104.101V58.9114ZM116.328 58.9114V66.7365H117.89H119.452L119.55 61.99L119.647 57.2431L124.875 61.99C127.752 64.6004 130.306 66.7365 130.552 66.7365C130.903 66.7365 131 65.0425 131 58.9114V51.0863H129.428H127.856V55.6075C127.856 58.0941 127.738 60.1224 127.594 60.1151C127.45 60.1075 125.064 58.0729 122.291 55.5939C119.519 53.1146 117.043 51.0863 116.789 51.0863C116.421 51.0863 116.328 52.6618 116.328 58.9114ZM90.4214 54.5955C91.4632 55.2239 92.5733 57.36 92.5733 58.7348C92.5733 60.1749 91.8114 61.8617 90.6999 62.8821C89.4437 64.0353 86.5914 64.261 84.9149 63.3401C82.698 62.1222 81.8327 59.1253 82.9373 56.493C84.0255 53.9006 87.719 52.9644 90.4214 54.5955ZM25.8507 80.4739V84.8212H26.724C27.4824 84.8212 27.5973 84.6671 27.5973 83.6526C27.5973 82.4889 27.6054 82.483 29.5613 82.2824C32.001 82.0316 33.1867 81.0717 33.1867 79.3471C33.1867 76.9272 31.9144 76.1266 28.0693 76.1266H25.8507V80.4739ZM36.3307 80.4495V84.8212H39.4747C42.3857 84.8212 42.6187 84.7697 42.6187 84.1256C42.6187 83.5017 42.3857 83.43 40.3602 83.43H38.1018L38.0022 79.8653C37.9072 76.4681 37.8656 76.2953 37.1167 76.1892C36.3373 76.0793 36.3307 76.1151 36.3307 80.4495ZM46.4641 80.2948C45.3096 82.587 44.3653 84.5433 44.3653 84.6421C44.3653 85.0785 46.1546 84.7676 46.3349 84.2995C46.4844 83.9124 47.1024 83.7778 48.732 83.7778C50.3616 83.7778 50.9796 83.9124 51.1291 84.2995C51.3094 84.7676 53.0987 85.0785 53.0987 84.6421C53.0987 84.3089 48.9028 76.1266 48.732 76.1266C48.6387 76.1266 47.6183 78.0022 46.4641 80.2948ZM53.935 76.6194C53.615 77.4496 54.1006 77.8655 55.3899 77.8655H56.592V81.3434V84.8212H57.4653C58.3383 84.8212 58.3387 84.8198 58.3387 81.3632V77.9055L59.8233 77.7984C61.0394 77.7111 61.308 77.5657 61.308 76.9961C61.308 76.352 61.0418 76.2932 57.721 76.2014C54.8041 76.1207 54.0971 76.1986 53.935 76.6194ZM63.928 80.4614V84.8212H64.8013C65.6163 84.8212 65.6747 84.7054 65.6747 83.0823V81.3434H67.7707C69.6337 81.3434 69.8667 81.2661 69.8667 80.6478C69.8667 80.0294 69.6337 79.9522 67.7707 79.9522C65.6817 79.9522 65.6747 79.9487 65.6747 78.9242V77.8961L68.2073 77.7939C70.4728 77.7024 70.74 77.6183 70.74 76.9961C70.74 76.3548 70.4738 76.2929 67.334 76.2011L63.928 76.1016V80.4614ZM75.0214 76.737C73.0096 77.9789 72.4224 81.0634 73.8071 83.1177C76.1627 86.6126 82.0933 84.9078 82.0933 80.7358C82.0933 79.0956 81.2368 77.4325 80.0253 76.7199C78.7397 75.9639 76.2598 75.9722 75.0214 76.737ZM85.2373 80.437V84.8212H86.1107C86.8757 84.8212 86.984 84.6706 86.984 83.6039C86.984 82.4535 87.0486 82.3867 88.1616 82.3867C89.1156 82.3867 89.4971 82.6176 90.1703 83.6015C90.7799 84.4925 91.2574 84.817 91.962 84.8187C93.1445 84.8219 93.148 84.721 92.0158 83.2433L91.1089 82.0598L91.8411 81.1329C92.8622 79.8406 92.7931 78.1921 91.6735 77.1449C90.9098 76.4309 90.3533 76.2842 88.0055 76.1781L85.2373 76.0529V80.437ZM95.9598 76.3492C95.8263 76.4817 95.7173 78.4422 95.7173 80.7059V84.8212H96.5907C97.4392 84.8212 97.464 84.7516 97.464 82.3867C97.464 81.0477 97.596 79.9522 97.7571 79.9522C97.9185 79.9522 98.5648 80.5149 99.1932 81.2025L100.336 82.4528L101.695 81.1319L103.053 79.811V82.3161C103.053 84.7565 103.076 84.8212 103.927 84.8212H104.8V80.4739C104.8 78.0829 104.687 76.1266 104.548 76.1266C104.409 76.1266 103.388 77.0215 102.277 78.1156L100.259 80.1042L98.2304 78.1062C97.1147 77.0072 96.0929 76.2164 95.9598 76.3492ZM31.2653 79.2567V80.4739L29.4313 80.5789L27.5973 80.6843V79.2567V77.829L29.4313 77.9344L31.2653 78.0394V79.2567ZM79.6225 78.7819C80.5248 79.9237 80.5496 81.3646 79.6854 82.427C79.1813 83.0468 78.6734 83.2405 77.552 83.2405C76.4306 83.2405 75.9227 83.0468 75.4186 82.427C73.9092 80.5713 75.1748 77.8655 77.552 77.8655C78.5906 77.8655 79.0643 78.0749 79.6225 78.7819ZM90.6143 78.648C91.2668 79.6837 90.462 80.4589 88.6077 80.58L86.984 80.686V79.2567V77.8273L88.6077 77.9334C89.6899 78.004 90.3589 78.2422 90.6143 78.648ZM49.4485 80.8105C50.1265 82.4256 50.1485 82.3867 48.5503 82.3867H47.1457L47.8587 80.9956C48.2506 80.2304 48.6548 79.6044 48.7568 79.6044C48.8588 79.6044 49.1701 80.1473 49.4485 80.8105Z" fill="white"/>
</svg>
