<svg width="163" height="29" viewBox="0 0 163 29" fill="none" xmlns="http://www.w3.org/2000/svg">
<path fill-rule="evenodd" clip-rule="evenodd" d="M24.4418 0.0949886C22.4551 0.573276 21.7389 2.84165 23.0511 4.50062C23.4508 5.00607 24.1291 5.32163 24.9158 5.36808C26.0575 5.43548 26.9028 4.98114 27.4105 4.02728C27.9451 3.02299 27.7838 1.6436 27.0394 0.855768C26.7328 0.530994 26.06 0.17063 25.6267 0.0987708C25.4136 0.0634714 25.1739 0.0207052 25.094 0.00383134C25.0141 -0.0131395 24.7206 0.027881 24.4418 0.0949886ZM0.140633 0.325114C-0.0389071 0.504908 -0.050528 28.3636 0.128819 28.5432C0.210939 28.6254 0.776385 28.6596 2.05525 28.6596C3.61659 28.6596 3.8735 28.6385 3.92425 28.5061C3.95659 28.4218 3.98303 27.3526 3.98303 26.1302C3.98303 24.9078 4.01925 23.9077 4.0635 23.9077C4.14998 23.9077 4.2231 24.0431 4.59351 24.8888C5.17193 26.2097 6.4565 27.618 7.61451 28.2012C8.88166 28.8392 10.478 29.1125 11.9584 28.945C14.1407 28.698 15.763 27.9092 17.2652 26.3646C19.1581 24.4186 20.2521 21.4612 20.2521 18.2908C20.2521 14.1768 18.604 10.6793 15.7854 8.81103C14.1267 7.7117 11.7664 7.20481 9.80134 7.5259C8.87739 7.67689 7.46025 8.24507 6.81655 8.72268C5.76304 9.50431 4.7437 10.8061 4.41929 11.7843C4.3333 12.0435 4.19995 12.308 4.12296 12.3719C4.00124 12.4731 3.98284 11.7094 3.98158 6.48806C3.98061 2.8752 3.94352 0.430042 3.88823 0.342472C3.76137 0.14144 0.339929 0.125633 0.140633 0.325114ZM71.1896 7.56857C68.4164 8.0391 65.9789 9.68411 64.582 12.0281C63.3831 14.0398 62.878 16.179 62.992 18.7618C63.1285 21.8538 64.1247 24.3688 65.9283 26.175C67.9932 28.2429 70.6218 29.1442 73.9622 28.9298C77.2285 28.7203 79.832 27.0335 81.2594 24.2018C81.6398 23.447 82.1614 21.8928 82.0938 21.716C82.0517 21.6063 81.6895 21.5803 80.2066 21.5803C79.1974 21.5803 78.305 21.6059 78.2237 21.6371C78.1423 21.6683 77.9642 21.9848 77.8278 22.3402C77.5462 23.0739 76.9274 23.9494 76.3859 24.3804C75.2421 25.2907 73.501 25.5805 71.645 25.1695C69.7921 24.7593 68.3792 23.6124 67.5216 21.8227C67.21 21.1722 66.8956 19.975 66.9449 19.6263L66.9771 19.3983L74.6274 19.3741C81.6832 19.3518 82.2871 19.3371 82.3988 19.1858C82.4807 19.0748 82.5193 18.6286 82.5181 17.8039C82.512 13.5108 80.7848 10.1993 77.6779 8.52417C75.9188 7.57565 73.3651 7.19957 71.1896 7.56857ZM95.1995 7.56459C93.5217 7.91807 92.3332 8.55249 91.3057 9.64328C90.6843 10.3029 90.0862 11.2368 89.866 11.8912C89.72 12.3253 89.5782 12.5067 89.4929 12.3685C89.4572 12.3107 89.4193 11.294 89.4087 10.1093C89.3919 8.23014 89.3688 7.9396 89.2286 7.83389C89.1151 7.74826 88.5958 7.71267 87.4587 7.71267C86.3236 7.71267 85.801 7.74836 85.6849 7.83389C85.5316 7.94687 85.522 8.65936 85.5453 18.2831L85.5703 28.6111L87.4032 28.6376C88.4113 28.6521 89.2736 28.6264 89.3196 28.5803C89.3655 28.5344 89.402 26.646 89.4008 24.384C89.398 19.2698 89.5053 16.8425 89.7754 15.9072C90.4143 13.6953 92.0298 11.8662 93.9469 11.1841C94.7399 10.9019 96.2566 10.8409 97.1327 11.0559C98.4461 11.3783 99.4642 12.3014 99.957 13.6167C100.407 14.8169 100.435 15.3135 100.435 22.033C100.435 25.5089 100.462 28.4218 100.494 28.5061C100.545 28.6385 100.802 28.6596 102.363 28.6596C103.642 28.6596 104.207 28.6254 104.289 28.5432C104.437 28.3953 104.453 15.2987 104.306 14.2586C103.986 11.982 103.325 10.5243 102.054 9.29242C101.259 8.52175 100.376 8.04521 99.1278 7.71355C98.1274 7.44783 96.1161 7.37151 95.1995 7.56459ZM115.009 7.56401C112.379 7.98188 110.451 9.07577 109.306 10.8011C108.658 11.7766 108.376 12.7156 108.377 13.8877C108.378 14.4117 108.438 15.0644 108.511 15.3381C108.722 16.1343 109.232 16.9875 109.825 17.5373C111.252 18.8594 113.039 19.4699 116.414 19.7875C118.825 20.0145 120.678 20.5467 121.434 21.2297C122.119 21.8478 122.182 22.9754 121.586 23.9211C120.503 25.6388 115.971 26.0971 113.633 24.7252C112.664 24.1563 112.083 23.3995 111.672 22.17L111.426 21.4348L109.78 21.4072C107.791 21.3737 107.698 21.3902 107.698 21.7772C107.698 22.7621 108.368 24.7039 109.051 25.6981C110.023 27.1117 111.822 28.2234 113.944 28.7205C115.044 28.978 118.615 28.9812 119.755 28.7257C122.998 27.9984 124.919 26.431 125.701 23.8733C125.99 22.926 125.988 21.2445 125.696 20.3927C124.882 18.0171 122.53 16.9017 116.946 16.2431C115.694 16.0955 114.175 15.727 113.539 15.4169C112.744 15.029 112.252 14.3233 112.25 13.5677C112.249 13.2519 112.511 12.5806 112.756 12.2698C113.428 11.4178 114.49 11.01 116.226 10.9374C118.289 10.8511 119.533 11.2205 120.436 12.1874C120.914 12.6987 121.35 13.5264 121.352 13.924C121.353 14.3787 121.461 14.404 123.395 14.404C124.95 14.404 125.214 14.3826 125.264 14.252C125.296 14.1684 125.253 13.7647 125.169 13.355C124.709 11.1085 123.473 9.44787 121.498 8.42138C119.854 7.5675 117.197 7.21645 115.009 7.56401ZM137.04 7.57051C134.936 7.9332 133.265 8.77398 131.851 10.1809C129.819 12.2032 128.776 14.9347 128.777 18.2346C128.778 20.4733 129.164 22.0551 130.197 24.0527C130.627 24.8853 130.848 25.1741 131.763 26.1006C133.164 27.5193 134.25 28.1576 136.115 28.658C138.95 29.4189 142.398 28.8806 144.574 27.3373C146.715 25.8188 147.993 23.8495 148.721 20.9499C148.94 20.0772 148.972 16.6193 148.77 15.7132C148.439 14.231 147.937 12.9403 147.323 11.9949C147.127 11.6932 146.945 11.394 146.918 11.33C146.829 11.1165 145.327 9.63009 144.836 9.27031C143.887 8.57441 143.023 8.15595 141.887 7.84272C140.4 7.43251 138.47 7.32419 137.04 7.57051ZM161.144 7.61415C160.184 7.8146 159.241 8.22481 158.545 8.74499C157.597 9.4535 156.693 10.8207 156.347 12.0687C156.257 12.393 156.147 12.6585 156.102 12.6585C156.057 12.6585 156.021 11.5882 156.021 10.2801V7.90178L155.78 7.81014C155.452 7.68533 152.283 7.73187 152.152 7.86347C152.081 7.93407 152.057 11.1545 152.074 18.2884L152.099 28.6111L153.939 28.6376C155.583 28.6612 155.791 28.6464 155.9 28.4978C155.993 28.3693 156.021 27.1206 156.021 23.0037C156.021 17.4524 156.077 16.4904 156.476 15.2283C156.848 14.0496 157.618 12.9665 158.498 12.3825C159.4 11.7845 160.851 11.3978 162.194 11.3978C162.506 11.3978 162.813 11.3454 162.877 11.2814C163.041 11.1175 163.041 7.70201 162.877 7.53812C162.72 7.38053 162.142 7.40584 161.144 7.61415ZM23.2743 7.7951C23.1736 7.85911 23.1475 9.87098 23.1399 18.1576C23.1347 23.8133 23.1608 28.4899 23.1979 28.5501C23.27 28.6668 26.5869 28.7124 26.8776 28.6007C27.016 28.5476 27.0308 27.5429 27.0308 18.2218V7.90178L26.7824 7.80723C26.4827 7.69318 23.4514 7.68261 23.2743 7.7951ZM33.2286 7.80519C32.1637 7.85775 31.954 7.89741 31.4854 8.1352C30.8163 8.47471 30.491 8.77631 30.0252 9.48899C29.6015 10.1373 29.3633 11.0286 29.5526 11.2572C29.6509 11.3757 30.2749 11.3978 33.529 11.3978H37.389L37.4398 11.616C37.4678 11.736 37.5013 15.1071 37.5143 19.1074L37.5379 26.3806L37.7527 26.8421C38.5985 28.6592 40.8028 29.4363 43.0261 28.7016C43.6183 28.5058 43.7914 28.3095 43.4792 28.1877C42.3396 27.7434 42.0944 27.5396 41.714 26.7208C41.517 26.2965 41.5094 26.11 41.4564 20.4166C41.4214 16.6507 41.3648 14.4443 41.2985 14.2559C40.9098 13.1506 40.2157 12.3553 39.1806 11.8292C38.781 11.6261 38.4875 11.4306 38.5286 11.3949C38.5695 11.3592 38.7944 11.2559 39.0282 11.1653C39.5145 10.9769 40.1292 10.5718 40.5125 10.1871C40.8881 9.81027 41.3499 8.80628 41.3831 8.29453L41.4115 7.85814L39.9105 7.79821C38.0334 7.72334 34.8209 7.72664 33.2286 7.80519ZM46.2481 7.80888C44.7067 8.03551 43.2824 9.4917 43.2596 10.8644L43.2514 11.3493L47.1976 11.3746L51.1439 11.3999L51.1452 11.811C51.1459 12.0371 51.1453 15.1479 51.1439 18.7239C51.1407 26.7675 51.1347 26.7165 52.2242 27.8626C52.9923 28.6707 54.4394 29.1213 55.7095 28.9477C56.997 28.7718 57.7919 28.2868 57.0753 28.1143C55.9394 27.8409 55.3951 27.0762 55.2149 25.5006C55.16 25.0207 55.1155 22.4062 55.1151 19.6338C55.1142 14.112 55.1224 14.196 54.4861 13.1918C54.1042 12.5892 53.6772 12.2094 52.9596 11.8342C52.6536 11.6742 52.4032 11.5136 52.403 11.4774C52.4029 11.4411 54.1567 11.3968 56.3006 11.3789L60.1983 11.3463L60.7523 11.0877C61.4486 10.7627 62.2288 10.0387 62.5352 9.43313C62.8387 8.83343 62.9989 8.02397 62.8497 7.84408C62.7597 7.73527 61.3627 7.71471 54.7393 7.7248C50.3383 7.73139 46.5173 7.76931 46.2481 7.80888ZM74.1836 10.9648C75.9378 11.2497 77.2066 12.1722 77.9736 13.7204C78.2966 14.3723 78.6152 15.6441 78.5186 15.896C78.4644 16.0377 77.9228 16.0526 72.8455 16.0526C66.4407 16.0526 66.9701 16.1384 67.3075 15.1563C67.9963 13.1515 69.2232 11.8105 70.8991 11.2306C71.2622 11.105 72.5865 10.865 73.1264 10.827C73.2063 10.8213 73.6821 10.8833 74.1836 10.9648ZM11.7888 11.2422C13.3318 11.6498 14.6908 12.7667 15.3997 14.2101C15.9741 15.3792 16.1849 16.2564 16.2504 17.7497C16.3274 19.5063 16.111 20.6989 15.4583 22.1137C13.8758 25.5446 9.22873 26.447 6.35444 23.8816C4.0452 21.8206 3.31658 18.1492 4.59448 15.0142C5.43175 12.9605 7.29494 11.4625 9.50288 11.0682C9.89266 10.9985 11.2607 11.1027 11.7888 11.2422ZM140.437 11.2543C141.639 11.5659 142.717 12.2856 143.473 13.2794C144.353 14.4357 144.777 15.5613 144.996 17.3206C145.212 19.048 144.758 21.1499 143.854 22.6184C142.802 24.3268 140.951 25.3554 138.929 25.3555C137.244 25.3556 135.884 24.8103 134.771 23.6888C133.348 22.2542 132.773 20.7313 132.747 18.3316C132.729 16.5788 132.918 15.6811 133.582 14.3707C134.692 12.1798 136.736 10.9378 139.039 11.0555C139.472 11.0778 140.102 11.1672 140.437 11.2543Z" fill="white"/>
</svg>
