<svg fill="none" height="34" viewBox="0 0 184 34" width="184" xmlns="http://www.w3.org/2000/svg" xmlns:xlink="http://www.w3.org/1999/xlink"><mask id="a" height="23" maskUnits="userSpaceOnUse" width="11" x="0" y="2"><path d="m.679596 2.30298h9.730604v21.89382h-9.730604z" fill="#fff"/></mask><mask id="b" height="23" maskUnits="userSpaceOnUse" width="11" x="10" y="2"><path d="m10.4102 2.30298h9.7306v21.89382h-9.7306z" fill="#fff"/></mask><mask id="c" height="14" maskUnits="userSpaceOnUse" width="11" x="0" y="20"><path d="m.679596 20.2915h9.730604v13.7085h-9.730604z" fill="#fff"/></mask><mask id="d" height="14" maskUnits="userSpaceOnUse" width="11" x="10" y="20"><path d="m10.4102 20.2915h9.7344v13.7085h-9.7344z" fill="#fff"/></mask><path d="m43.097 20.0369c0 .3399-.2846.6166-.6245.6166h-12.0304c.3003 2.972 2.5373 5.6832 5.6832 5.6832 2.15 0 3.7467-.8221 4.9481-2.5373.1739-.2371.4348-.3873.7668-.245.1818.079.3082.245.3398.4347.0317.1976-.0237.3083-.079.4189-1.2094 2.1105-3.6202 3.146-5.9836 3.146-4.047 0-6.9321-3.6202-6.9321-7.4934 0-3.8731 2.8851-7.4933 6.9321-7.4933 4.047-.0079 6.9716 3.6044 6.9796 7.4696zm-1.2885-.5849c-.2608-2.972-2.5373-5.6832-5.6832-5.6832s-5.3829 2.7112-5.6832 5.6832zm15.8878-6.5922c.3478 0 .6007.3003.6007.6007 0 .3478-.2608.6007-.6007.6007h-3.225v12.6549c0 .3004-.2608.6007-.6007.6007-.3478 0-.6007-.3003-.6007-.6007v-12.6549h-3.0985c-.3478 0-.6008-.2608-.6008-.6007 0-.3004.2609-.6007.6008-.6007h3.0985v-4.632c0-.29246.1976-.56121.4821-.60864.4032-.06323.7193.21342.7193.59283v4.64781zm19.674 6.1179v7.6673c0 .3478-.3004.6007-.6008.6007-.3478 0-.6007-.2609-.6007-.6007v-7.6673c0-2.5847-1.4623-5.1694-4.3474-5.1694-3.6992 0-5.2959 3.2329-5.0825 6.5448 0 .0869.0395.4743.0395.5138v5.7543c0 .2925-.1976.5613-.4821.6087-.4032.0632-.7193-.2134-.7193-.5928v-25.18334c0-.30037.2608-.600733.6007-.600733.3478 0 .6007.300363.6007.600733v14.25154c1.0355-1.8496 2.8851-3.0985 5.0351-3.0985 3.5332 0 5.5568 3.0985 5.5568 6.3709zm21.571 1.0592c0 .3399-.2846.6166-.6245.6166h-12.0383c.3003 2.972 2.5373 5.6832 5.6832 5.6832 2.15 0 3.7467-.8221 4.9482-2.5373.1738-.2371.4347-.3873.7667-.245.1818.079.3082.245.3399.4347.0316.1976-.0237.3083-.0791.4189-1.2093 2.1105-3.6202 3.146-5.9836 3.146-4.047 0-6.9321-3.6202-6.9321-7.4934 0-3.8731 2.8851-7.4933 6.9321-7.4933 4.055-.0079 6.9796 3.6044 6.9875 7.4696zm-1.2963-.5849c-.2609-2.972-2.5373-5.6832-5.6833-5.6832-3.1459 0-5.3829 2.7112-5.6832 5.6832zm16.062-6.031c0 .3873-.214.6007-.562.6481-3.533.5138-5.122 3.3989-5.122 6.7583v5.7543c0 .2925-.197.5612-.482.6087-.403.0632-.719-.2135-.719-.5929v-13.1133c0-.2925.198-.5612.482-.6086.403-.0633.719.2134.719.5928v2.6717c.988-1.6758 2.972-3.2724 5.035-3.2724.301-.008.649.2134.649.5533zm19.761 6.6159c0 .3399-.285.6166-.625.6166h-12.03c.3 2.972 2.537 5.6832 5.683 5.6832 2.15 0 3.747-.8221 4.948-2.5373.174-.2371.435-.3873.767-.245.182.079.308.245.34.4347.031.1976-.024.3083-.079.4189-1.21 2.1105-3.621 3.146-5.984 3.146-4.047 0-6.932-3.6202-6.932-7.4934 0-3.8731 2.885-7.4933 6.932-7.4933 4.047-.0079 6.972 3.6044 6.98 7.4696zm-1.289-.5849c-.261-2.972-2.537-5.6832-5.683-5.6832s-5.383 2.7112-5.683 5.6832zm20.71-5.8809v13.145c0 .3478-.301.6007-.601.6007-.348 0-.601-.2608-.601-.6007v-2.4978c-.988 1.984-2.759 3.3989-4.995 3.3989-3.573 0-5.557-3.0985-5.557-6.3709v-7.7068c0-.3003.261-.6007.6-.6007.348 0 .601.3004.601.6007v7.7068c0 2.5847 1.463 5.1694 4.348 5.1694 4.047 0 4.995-3.7862 4.995-7.9676v-4.9086c0-.3478.348-.7035.775-.577.261.087.435.3399.435.6086zm30.431 5.3592v7.7068c0 .3478-.3.6007-.6.6007-.348 0-.601-.2609-.601-.6007v-7.7068c0-2.5847-1.462-5.122-4.348-5.122-3.62 0-4.995 3.8731-4.995 6.8847v5.9441c0 .3478-.3.6007-.601.6007-.348 0-.601-.2609-.601-.6007v-7.7068c0-2.5847-1.462-5.122-4.347-5.122-3.66 0-5.169 2.8851-5.035 6.7187 0 .0869.04.2608 0 .3004v5.7938c0 .2925-.198.5613-.49.6087-.403.0632-.719-.2134-.719-.5928v-13.1529c0-.2925.197-.5612.482-.6086.403-.0633.719.2134.719.5928v2.1974c1.036-1.8496 2.885-3.059 5.035-3.059 2.451 0 4.348 1.5493 5.122 3.8336.988-2.2369 2.925-3.8336 5.423-3.8336 3.533 0 5.556 3.0511 5.556 6.3235z" fill="#fff"/><g mask="url(#a)" opacity=".45"><path d="m.679604 18.448 9.730596 5.7488v-21.89382z" fill="#fff"/></g><g mask="url(#b)" opacity=".8"><path d="m10.4102 2.30298v21.89382l9.7268-5.7488z" fill="#fff"/></g><g mask="url(#c)" opacity=".45"><path d="m.679604 20.2915 9.730596 13.7085v-7.9596z" fill="#fff"/></g><g mask="url(#d)" opacity=".8"><path d="m10.4102 26.0404v7.9596l9.7344-13.7085z" fill="#fff"/></g></svg>