<svg width="183" height="47" viewBox="0 0 183 47" fill="none" xmlns="http://www.w3.org/2000/svg">
<path fill-rule="evenodd" clip-rule="evenodd" d="M19.6822 0.28279C18.0375 1.40934 0.788658 14.0356 0.456591 14.356L0.0489799 14.7495L0.0137895 23.3132C-0.0194987 31.4359 -0.00835733 31.8978 0.229416 32.2832C0.463792 32.6628 2.86598 34.4475 15.5806 43.6885C20.5271 47.2836 20.5692 47.3049 21.5481 46.7099C21.7897 46.5631 23.7768 45.1402 25.9639 43.5479C28.151 41.9555 32.3861 38.8732 35.3753 36.6983C38.3644 34.5232 40.9324 32.5805 41.0818 32.381C41.3457 32.0289 41.3546 31.7761 41.3915 23.6573C41.4229 16.732 41.3968 15.2183 41.2392 14.8424C41.0927 14.4931 40.4261 13.9348 38.348 12.4213C36.8624 11.3395 34.2407 9.42942 32.522 8.17665C20.9139 -0.283735 21.4314 0.0758449 20.7744 0.0144927C20.2844 -0.0311491 20.0602 0.0238378 19.6822 0.28279ZM22.4693 3.55464C22.6343 3.8056 22.6726 4.18794 22.6423 5.28144L22.6035 6.68591L22.1619 6.7283L21.7203 6.77083V5.47552V4.18035H20.5654C19.4241 4.18035 19.4105 4.18428 19.4105 4.51894C19.4105 4.80484 19.347 4.85753 19.0029 4.85753C18.6151 4.85753 18.5953 4.83004 18.5953 4.29263C18.5953 3.3328 18.7903 3.2323 20.6513 3.2323C22.193 3.2323 22.266 3.24531 22.4693 3.55464ZM17.0703 7.05835L17.0328 9.12374L16.5912 9.16614L16.1496 9.20866V7.10075V4.99296H16.6287H17.1078L17.0703 7.05835ZM27.291 6.96165V7.44055L25.9679 7.40182C24.8171 7.3681 24.6385 7.33112 24.5976 7.11822C24.4889 6.5521 24.6415 6.48275 25.996 6.48275H27.291V6.96165ZM20.6946 7.74853C20.9598 8.2212 21.1768 8.6783 21.1768 8.7643C21.1768 8.8503 20.9961 8.92059 20.7752 8.92059C20.4219 8.92059 20.3075 8.80791 19.8241 7.98284C19.5219 7.46696 19.2746 7.00987 19.2746 6.96707C19.2746 6.92414 19.4856 6.88906 19.7435 6.88906C20.1782 6.88906 20.2476 6.95177 20.6946 7.74853ZM25.0763 10.1395C26.1544 11.8208 26.3359 12.1861 26.3377 12.6789C26.3391 13.0514 26.28 13.2537 26.17 13.2524C26.0767 13.2511 25.5416 12.5199 24.9812 11.6273C24.4207 10.7347 23.9316 10.0042 23.8942 10.0039C23.8569 10.0038 23.845 10.796 23.8679 11.7645L23.9093 13.5254H23.4263H22.9431V10.8082V8.09078L23.3801 8.13331C23.7808 8.17218 23.9214 8.33835 25.0763 10.1395ZM27.6307 9.33868C27.6307 9.76205 27.5963 9.80092 27.223 9.80092C26.8999 9.80092 26.8062 9.73564 26.7707 9.48631C26.7013 8.99833 26.8194 8.84109 27.2417 8.85951C27.5904 8.87482 27.6307 8.92438 27.6307 9.33868ZM13.1605 9.63583C13.1605 10.0526 13.0745 10.1337 11.775 10.9421C11.013 11.4161 10.2947 11.8261 10.1785 11.853C10.0625 11.8801 9.8292 11.7943 9.66031 11.6623L9.35297 11.4226L10.3397 10.8149L11.3262 10.2072L10.8507 10.1395C10.4303 10.0796 10.3702 10.0207 10.3326 9.63163L10.2899 9.19146H11.7253H13.1605V9.63583ZM19.521 10.0379C19.4833 10.4273 19.4314 10.4781 19.0708 10.4781C18.7102 10.4781 18.6583 10.4273 18.6207 10.0379C18.5797 9.61443 18.5968 9.59777 19.0708 9.59777C19.5449 9.59777 19.562 9.61443 19.521 10.0379ZM32.7803 11.0198L32.7801 11.4261H30.4771H28.1741L28.1653 11.0876C28.1604 10.9013 28.1803 10.7018 28.2093 10.6441C28.2384 10.5866 29.2788 10.5561 30.5213 10.5764L32.7804 10.6135L32.7803 11.0198ZM14.7338 11.7809L15.4241 12.8664L16.1605 11.7463L16.8969 10.6263L16.9377 11.3221C16.9757 11.9718 16.9269 12.0949 16.2025 13.1802L15.4265 14.3423L14.6334 13.1551C13.9454 12.125 13.8404 11.8827 13.8401 11.3246C13.84 10.9708 13.8857 10.6844 13.9417 10.6883C13.9977 10.6921 14.3542 11.1837 14.7338 11.7809ZM20.8749 13.8609C20.9238 16.4631 20.9979 16.3695 18.8907 16.3695C17.0368 16.3695 16.829 16.265 16.829 15.3328C16.829 14.7505 16.834 14.7443 17.3045 14.7443C17.7212 14.7443 17.7801 14.7863 17.7801 15.0829C17.7801 15.4158 17.7981 15.4215 18.867 15.4215H19.954V13.6835C19.954 12.7274 19.9816 11.9178 20.0154 11.8842C20.0491 11.8505 20.2479 11.8303 20.457 11.8394L20.8371 11.8559L20.8749 13.8609ZM35.8508 14.338V15.8278H35.3753H34.8997V14.338V12.8482H35.3753H35.8508V14.338ZM32.6511 15.3199C32.9367 16.3068 33.1992 17.1907 33.2344 17.2837C33.278 17.399 33.1471 17.453 32.8247 17.453H32.3511L31.9508 15.9971C31.5852 14.6673 31.5225 14.5412 31.228 14.5412C30.9335 14.5412 30.8732 14.6628 30.5309 15.9459C30.325 16.7186 30.129 17.378 30.0955 17.4114C30.0619 17.4448 29.8555 17.4526 29.6368 17.4288L29.2392 17.3853L29.7318 15.6924C30.0025 14.7612 30.2655 13.8928 30.3159 13.7624C30.3898 13.5712 30.574 13.5254 31.2697 13.5254H32.1319L32.6511 15.3199ZM53.2754 24.1232L53.3101 34.5856H55.0085H56.7069L56.7429 27.3398L56.7788 20.094L57.3341 20.9743C57.6395 21.4585 59.7266 24.7362 61.972 28.2581L66.0547 34.6613L67.6988 34.6235L69.3428 34.5856L69.3776 24.1232L69.4124 13.6608H67.6465H65.8806L65.8454 20.8283L65.8102 27.9959L62.0058 22.0171C59.9134 18.7288 57.8511 15.5034 57.4227 14.8495L56.644 13.6608H54.9422H53.2406L53.2754 24.1232ZM74.7097 23.3105V32.9682L75.5626 33.8108L76.4154 34.6533H82.4617H88.5079L89.4223 33.7348L90.3367 32.8163L90.3018 23.2724L90.2669 13.7286L88.5355 13.6906L86.8042 13.6527L86.7692 22.3585L86.7342 31.0643L82.4892 31.1L78.2444 31.1358L78.2093 22.4322L78.1744 13.7286L76.4421 13.6906L74.7097 13.6527V23.3105ZM95.531 24.1232L95.5658 34.5856H97.2642H98.9626L99.0305 27.23L99.0984 19.8743L102.017 24.3406C103.622 26.797 104.97 28.7856 105.013 28.7594C105.055 28.7334 106.371 26.7596 107.936 24.373L110.783 20.0339L110.854 27.3097C110.893 31.3115 110.939 34.6009 110.956 34.6195C110.973 34.638 111.713 34.6533 112.601 34.6533C113.796 34.6533 114.255 34.6055 114.368 34.4691C114.48 34.3351 114.512 31.4873 114.487 24.0067L114.452 13.7286H112.702H110.951L108.014 18.2306C106.398 20.7066 105.037 22.7331 104.989 22.7338C104.94 22.7345 104.275 21.775 103.511 20.6019C102.746 19.4288 101.41 17.3869 100.543 16.0648L98.9652 13.6608H97.2306H95.4962L95.531 24.1232ZM119.716 24.1232L119.751 34.5856H127.156H134.561L134.599 32.8588L134.637 31.132H128.926H123.215V28.4928V25.8535L127.869 25.8179L132.523 25.7823L132.561 24.0555L132.599 22.3287H127.907H123.215V19.6877V17.0467H128.922H134.629V15.3538V13.6608H127.155H119.681L119.716 24.1232ZM139.311 13.8301C139.275 13.9233 139.262 18.6313 139.281 24.2925L139.316 34.5856H141.014H142.713L142.781 30.4548L142.849 26.324H145.223H147.597L149.977 30.4923L152.357 34.6608L154.125 34.6231L155.892 34.5856L155.934 34.2294C155.963 33.974 155.377 32.8077 153.862 30.11C152.699 28.0403 151.748 26.3265 151.748 26.3016C151.748 26.2766 152.132 26.2563 152.601 26.2563H153.454L154.3 25.4062L155.145 24.5561V19.951V15.3459L154.292 14.5034L153.439 13.6608H146.407C140.907 13.6608 139.361 13.6977 139.311 13.8301ZM163.643 14.3719C159.934 27.2194 158.131 33.7142 158.163 34.1116L158.202 34.5856H159.832H161.462L162.278 31.6383L163.093 28.6909L167.361 28.7264L171.628 28.7619L172.456 31.6737L173.284 34.5856H174.914H176.545L176.533 33.9762C176.527 33.6409 176.025 31.6602 175.418 29.5745C174.292 25.7085 171.456 15.8499 171.064 14.4396L170.848 13.6608H167.348H163.848L163.643 14.3719ZM179.499 24.1232L179.534 34.5856H181.232H182.93L182.965 24.1232L183 13.6608H181.232H179.464L179.499 24.1232ZM8.26913 14.5447V15.0222L6.19888 14.9848C4.32645 14.951 4.124 14.924 4.08134 14.7026C3.96531 14.0999 4.07577 14.0671 6.22687 14.0671H8.26913V14.5447ZM9.96751 14.5412C9.96751 14.9006 9.91656 14.9523 9.52593 14.9899C9.10107 15.0308 9.08436 15.0137 9.08436 14.5412C9.08436 14.0686 9.10107 14.0516 9.52593 14.0925C9.91656 14.13 9.96751 14.1817 9.96751 14.5412ZM13.5001 15.2183V16.3018L13.0586 16.3442L12.617 16.3867V15.2183V14.0499L13.0586 14.0925L13.5001 14.1349V15.2183ZM38.854 15.7318C39.2568 16.4409 39.3329 16.6683 39.186 16.7244C38.6936 16.9128 38.3904 16.6954 37.8715 15.7822C37.5821 15.2729 37.3454 14.8275 37.3454 14.7921C37.3454 14.7568 37.5673 14.7469 37.8383 14.77C38.2914 14.8086 38.3738 14.8867 38.854 15.7318ZM23.8942 17.123V18.6891L23.4526 18.6466L23.0111 18.6042L22.9726 17.0806L22.9342 15.5569H23.4142H23.8942V17.123ZM27.1551 16.3018C27.1551 16.7382 27.1228 16.7758 26.7475 16.7758C26.3722 16.7758 26.3399 16.7382 26.3399 16.3018C26.3399 15.8655 26.3722 15.8278 26.7475 15.8278C27.1228 15.8278 27.1551 15.8655 27.1551 16.3018ZM11.009 17.4869C10.3994 17.8779 9.90365 18.2284 9.90719 18.2656C9.91072 18.3029 10.4149 18.652 11.0276 19.0415L12.1414 19.7497L11.408 19.7526C10.7547 19.7552 10.5513 19.6778 9.54645 19.0444C8.92593 18.6534 8.41669 18.3029 8.41479 18.2656C8.41275 18.2284 8.88368 17.882 9.46112 17.4957C10.4223 16.8529 10.5788 16.7928 11.3141 16.7847L12.1174 16.7758L11.009 17.4869ZM151.581 19.9247L151.618 22.735H147.335C144.98 22.735 143.007 22.7503 142.951 22.7689C142.838 22.8062 142.734 17.498 142.842 17.2179C142.896 17.0788 143.797 17.0502 147.227 17.0787L151.544 17.1144L151.581 19.9247ZM169.501 21.1098C170.123 23.3072 170.633 25.1509 170.633 25.2067C170.634 25.2625 169.167 25.3083 167.373 25.3083C165.039 25.3083 164.112 25.2648 164.112 25.1552C164.112 25.071 164.613 23.2097 165.224 21.0192L166.336 17.0362L167.353 17.0753L168.371 17.1144L169.501 21.1098ZM35.8508 17.7916C35.8508 18.243 35.8281 18.2656 35.3753 18.2656C34.9437 18.2656 34.8997 18.2302 34.8997 17.882C34.8997 17.4017 34.9841 17.3176 35.4659 17.3176C35.8152 17.3176 35.8508 17.3615 35.8508 17.7916ZM6.29901 17.977C6.29901 18.398 6.21722 18.4857 5.24439 19.1089C4.21993 19.765 4.17998 19.778 3.85172 19.5637C3.66571 19.4422 3.51367 19.2945 3.51367 19.2355C3.51367 19.1764 3.77359 18.9798 4.09112 18.7984L4.66857 18.4688L3.07209 18.4306L1.47562 18.3925V18.0131C1.47562 17.8043 1.51774 17.5916 1.56923 17.5402C1.62086 17.4889 2.70606 17.4635 3.98093 17.4838L6.29901 17.5207V17.977ZM19.6568 18.909L19.6995 19.3491H17.5848H15.4703V18.8716V18.394L17.5423 18.4314L19.6143 18.4688L19.6568 18.909ZM21.559 18.909C21.5999 19.3311 21.5818 19.3491 21.1174 19.3491C20.6532 19.3491 20.6333 19.3293 20.6333 18.8666C20.6333 18.4036 20.6514 18.3856 21.0749 18.4264C21.4632 18.4636 21.5217 18.5219 21.559 18.909ZM26.6796 19.5523C26.6796 19.8948 26.621 19.9654 26.3059 20.0014C25.9335 20.0442 25.9323 20.0477 25.9323 21.1148V22.1854L27.7326 22.2232L29.5328 22.261L29.5754 22.7011L29.618 23.1413H27.548C24.8764 23.1413 24.9812 23.2233 24.9812 21.1333C24.9812 19.2475 25.0903 19.0428 26.0609 19.1057C26.6487 19.1439 26.6796 19.1661 26.6796 19.5523ZM30.5519 19.9586C30.5519 20.41 30.5292 20.4326 30.0763 20.4326C29.6448 20.4326 29.6008 20.3971 29.6008 20.0489C29.6008 19.8378 29.6415 19.6245 29.6914 19.5749C29.7411 19.5252 29.9551 19.4846 30.1669 19.4846C30.5163 19.4846 30.5519 19.5284 30.5519 19.9586ZM37.0736 19.9586V20.4326H34.9677H32.8617V19.9586V19.4846H34.9677H37.0736V19.9586ZM15.6061 21.1098V21.5161H14.3833H13.1605V21.1098V20.7035H14.3833H15.6061V21.1098ZM22.7801 20.866C23.0055 21.0907 23.0055 24.2439 22.7801 24.4686C22.6904 24.558 22.3236 24.6311 21.9649 24.6311C21.334 24.6311 21.3127 24.6181 21.3127 24.2337C21.3127 23.9011 21.3734 23.8295 21.6863 23.7936C22.0592 23.7509 22.06 23.7486 22.06 22.6673V21.5838L20.2597 21.546L18.4594 21.5082V21.1059V20.7035H20.5382C21.974 20.7035 22.6674 20.7537 22.7801 20.866ZM11.974 22.7697C12.2556 23.7562 12.4849 24.6396 12.4836 24.7327C12.4822 24.828 12.3115 24.902 12.0927 24.902C11.7136 24.902 11.6935 24.8642 11.2564 23.3378C10.8643 21.9682 10.7747 21.7787 10.5365 21.8142C10.3148 21.8472 10.1869 22.13 9.84428 23.3445C9.42906 24.8164 9.41914 24.8343 9.01642 24.8343C8.52443 24.8343 8.52022 24.8922 9.18015 22.6334L9.66493 20.9743L10.5636 20.9752L11.4621 20.976L11.974 22.7697ZM39.5425 22.282C39.7646 22.4823 39.7911 22.7494 39.7911 24.7875V27.0689H39.3834H38.9758V25.0374V23.0059H37.8299C36.6857 23.0059 36.684 23.0064 36.641 23.3722C36.6053 23.6767 36.5314 23.7386 36.2035 23.7379C35.8308 23.7372 35.809 23.7058 35.809 23.1683C35.809 22.1893 36.0446 22.0578 37.7973 22.0578C38.9995 22.0578 39.3431 22.102 39.5425 22.282ZM6.97837 23.6831V25.1728H6.53679H6.09521V23.6831V22.1933H6.53679H6.97837V23.6831ZM3.85335 23.4799C3.85335 23.8393 3.8024 23.8911 3.41177 23.9286C2.9869 23.9695 2.97019 23.9524 2.97019 23.4799C2.97019 23.0074 2.9869 22.9903 3.41177 23.0312C3.8024 23.0687 3.85335 23.1205 3.85335 23.4799ZM16.6591 25.1089C17.7718 26.8503 17.9159 27.1468 17.9159 27.6933C17.9159 28.1256 17.8652 28.2935 17.7468 28.2543C17.6537 28.2233 17.1186 27.475 16.5579 26.5913L15.5382 24.9846L15.5004 26.7569L15.4625 28.5291L15.058 28.5883C14.8355 28.6209 14.6232 28.6174 14.5863 28.5805C14.5493 28.5437 14.5192 27.3049 14.5192 25.8274V23.1413L14.9607 23.1416C15.3809 23.1419 15.4633 23.2373 16.6591 25.1089ZM19.6822 24.9697C19.6822 25.5284 19.6822 26.0312 19.6822 26.087C19.6822 26.1428 19.4934 26.1886 19.2625 26.1886H18.843L18.821 25.0713L18.7991 23.9538L19.2407 23.9539H19.6822V24.9697ZM25.6351 25.4099C25.676 25.832 25.658 25.85 25.1935 25.85C24.7525 25.85 24.7094 25.8159 24.7094 25.4663C24.7094 24.9841 24.8146 24.8792 25.2479 24.9296C25.5272 24.9621 25.6006 25.0531 25.6351 25.4099ZM30.7982 25.4776L30.7557 25.9177L29.2951 25.9562L27.8345 25.9947V25.516V25.0374H29.3376H30.8409L30.7982 25.4776ZM32.7598 25.3421C32.7411 25.3979 32.7258 26.1141 32.7258 26.9335V28.4233H32.3182H31.9106V26.7895V25.1556L32.3521 25.1982C32.5949 25.2215 32.7784 25.2863 32.7598 25.3421ZM23.8688 26.2902C23.8312 26.6796 23.7793 26.7304 23.4187 26.7304C23.0581 26.7304 23.0062 26.6796 22.9685 26.2902C22.9275 25.8667 22.9446 25.85 23.4187 25.85C23.8927 25.85 23.9098 25.8667 23.8688 26.2902ZM12.0481 26.9515L12.0056 27.3757L9.96751 27.3635L7.92946 27.3513L7.88693 26.9392L7.84427 26.5272H9.96751H12.0908L12.0481 26.9515ZM3.16775 27.2044C3.16788 27.4723 3.09057 27.5519 2.79723 27.5858L2.42671 27.6287V28.7708V29.9131H4.26952H6.11246L6.0698 30.3533L6.02727 30.7934L3.98922 30.8319C1.40361 30.8808 1.47562 30.9393 1.47562 28.7914C1.47562 26.9751 1.59179 26.7629 2.55225 26.8256C3.10742 26.8619 3.16775 26.899 3.16775 27.2044ZM30.2498 27.5507C30.532 27.7476 30.5519 27.8633 30.5519 29.3113V30.8611H30.0763H29.6008V29.5745V28.2879H28.5228C27.4479 28.2879 27.4448 28.2889 27.4018 28.6603C27.3657 28.9744 27.2949 29.0328 26.9513 29.0328C26.5626 29.0328 26.5418 29.0035 26.5028 28.4019C26.4427 27.4754 26.6993 27.3398 28.5138 27.3398C29.5919 27.3398 30.0229 27.3921 30.2498 27.5507ZM37.0105 27.694C37.1947 27.8142 37.3438 27.9514 37.3419 27.9987C37.3398 28.046 36.8211 28.3894 36.1891 28.7619C35.5571 29.1343 35.039 29.4829 35.0378 29.5367C35.0365 29.5905 35.8456 29.6514 36.8359 29.6721L38.6362 29.7099V30.1162V30.5225H35.9187H33.2013V30.0617C33.2013 29.6191 33.2687 29.5582 34.8899 28.538C35.8186 27.9535 36.6003 27.4752 36.627 27.4752C36.6538 27.4752 36.8264 27.5737 37.0105 27.694ZM24.0281 27.8753C24.2138 28.0175 24.3361 28.1601 24.2998 28.1922C24.2635 28.2243 23.687 28.5942 23.0184 29.0142L21.803 29.7777H23.7404H25.6778L25.6351 30.2178L25.5926 30.658H22.8752H20.1578L20.1169 30.2396C20.0776 29.8395 20.1513 29.7736 21.8153 28.7196C22.7718 28.1136 23.5851 27.6176 23.6225 27.6172C23.6598 27.6169 23.8423 27.7331 24.0281 27.8753ZM8.8209 30.184C9.20433 30.7799 9.55814 31.2661 9.60691 31.2645C9.65583 31.2628 10.0149 30.7601 10.4049 30.1471L11.114 29.0328L11.1182 29.7638C11.122 30.4161 11.0455 30.616 10.4091 31.6194C10.0167 32.238 9.65623 32.7469 9.60786 32.7506C9.55936 32.7543 9.17729 32.2301 8.75867 31.5859C8.10038 30.5729 7.99739 30.3256 7.99739 29.7575C7.99739 29.3961 8.02579 29.1005 8.06057 29.1005C8.09522 29.1005 8.43734 29.588 8.8209 30.184ZM14.6296 30.4806C14.5927 30.8567 14.5299 30.9191 14.1455 30.9622C13.7208 31.0097 13.7039 30.9932 13.7039 30.5301C13.7039 30.0684 13.7239 30.0485 14.1881 30.0485C14.6508 30.0485 14.6704 30.0678 14.6296 30.4806ZM19.1087 33.2651L19.1466 35.0596H18.6672H18.1877V33.2227V31.3857L18.6292 31.4282L19.0708 31.4706L19.1087 33.2651ZM14.941 32.4707L15.2571 32.7257L14.0389 33.5203L12.8208 34.3147L14.6973 34.3525L16.5738 34.3902L16.5315 34.8265L16.4893 35.2628H13.7719H11.0545L11.0132 34.8387C10.9734 34.4313 11.0401 34.3712 12.7011 33.3151C13.6523 32.7102 14.4743 32.2155 14.5277 32.2155C14.5813 32.2155 14.7671 32.3303 14.941 32.4707ZM27.222 34.01C27.5036 34.9971 27.7633 35.8808 27.7989 35.9738C27.8429 36.0892 27.7127 36.1431 27.3896 36.1431C26.9372 36.1431 26.9084 36.114 26.7562 35.4998C26.2976 33.6502 26.0571 33.0281 25.8003 33.0281C25.537 33.0281 25.5179 33.0769 24.9067 35.2966C24.6899 36.0842 24.6465 36.1431 24.2839 36.1431C24.0647 36.1431 23.8942 36.0697 23.8942 35.9754C23.8942 35.8832 24.1179 34.9995 24.3911 34.0116L24.888 32.2155H25.7989H26.7099L27.222 34.01ZM22.1833 33.2359C22.4518 33.7226 22.6714 34.1797 22.6714 34.2516C22.6714 34.3235 22.4703 34.3825 22.2244 34.3825C21.8113 34.3825 21.7392 34.3119 21.2733 33.452C20.9961 32.9403 20.7692 32.4832 20.7692 32.4363C20.7692 32.3894 20.9776 32.3509 21.2323 32.3509C21.6621 32.3509 21.7304 32.4144 22.1833 33.2359ZM35.1461 33.2651C35.1869 33.6873 35.1689 33.7053 34.7045 33.7053C34.2402 33.7053 34.2204 33.6855 34.2204 33.2227C34.2204 32.7598 34.2384 32.7418 34.6619 32.7826C35.0503 32.8198 35.1087 32.878 35.1461 33.2651ZM30.7939 34.8857C31.0718 35.3512 31.3297 35.7318 31.3671 35.7314C31.4045 35.731 31.7713 35.2293 32.1823 34.6164L32.9296 33.5021L32.9717 34.1621C33.0106 34.7724 32.9527 34.914 32.2011 36.0452L31.3884 37.2684L30.6304 36.1094C29.9464 35.0634 29.8729 34.8798 29.8769 34.2263C29.8819 33.3874 29.9123 33.4094 30.7939 34.8857ZM9.3561 34.8616V35.3407L8.10582 35.3018L6.85554 35.2628L6.8694 34.8903C6.87701 34.6856 6.88937 34.4874 6.89684 34.4502C6.90432 34.4129 7.46071 34.3825 8.13326 34.3825H9.3561V34.8616ZM21.6077 36.7736C21.8198 36.9649 21.8562 37.2163 21.8562 38.4897C21.8562 40.2919 21.7529 40.477 20.7481 40.477C20.1072 40.477 20.0899 40.4664 20.0899 40.0707C20.0899 39.7095 20.1351 39.6644 20.4975 39.6644H20.9051V38.5132V37.362H19.0708H17.2366V36.9557V36.5494H19.2979C21.0253 36.5494 21.3995 36.5857 21.6077 36.7736ZM11.53 37.3028C11.53 37.7645 11.5111 37.7836 11.0944 37.743C10.716 37.7062 10.6609 37.6519 10.6732 37.3282C10.6812 37.1234 10.6937 36.9253 10.7012 36.888C10.7087 36.8508 10.8982 36.8203 11.1224 36.8203C11.499 36.8203 11.53 36.857 11.53 37.3028ZM28.6459 37.7637C28.6437 37.8036 28.0782 38.1713 27.3892 38.581L26.1365 39.3258L26.7898 39.3674C27.4351 39.4086 27.4423 39.4142 27.4009 39.8415L27.3589 40.2739L25.8899 40.3124L24.4207 40.351L24.4632 39.8527C24.5039 39.3747 24.5738 39.3118 26.1914 38.2955L27.877 37.2363L28.2634 37.4639C28.4759 37.5889 28.6479 37.7239 28.6459 37.7637ZM16.2855 38.6487V39.1227H14.3833H12.4811V38.739C12.4811 38.5279 12.5219 38.3146 12.5717 38.265C12.6215 38.2153 13.4775 38.1746 14.4739 38.1746H16.2855V38.6487ZM17.4743 41.5525C17.7171 41.9934 17.9159 42.4192 17.9159 42.499C17.9159 42.5787 17.7171 42.6429 17.4743 42.6417C17.068 42.6395 16.992 42.5641 16.5207 41.6937L16.0087 40.7479L16.5207 40.7495C17.0049 40.751 17.0568 40.7948 17.4743 41.5525ZM23.3507 42.17C23.3507 42.6214 23.328 42.644 22.8752 42.644C22.4223 42.644 22.3996 42.6214 22.3996 42.17C22.3996 41.7186 22.4223 41.696 22.8752 41.696C23.328 41.696 23.3507 41.7186 23.3507 42.17ZM21.1089 43.7952V44.8787H20.7013H20.2937L20.254 43.7524L20.2144 42.626L20.6616 42.6689L21.1089 42.7117V43.7952Z" fill="white"/>
</svg>
