<svg width="309" height="59" viewBox="0 0 309 59" fill="none" xmlns="http://www.w3.org/2000/svg">
<path d="M3.08936 48V12.455H17.113C19.8089 12.455 22.1057 12.9699 24.0033 13.9997C25.9009 15.0179 27.3472 16.4353 28.3423 18.2519C29.3489 20.0569 29.8522 22.1396 29.8522 24.5C29.8522 26.8605 29.3431 28.9432 28.3249 30.7482C27.3067 32.5532 25.8314 33.959 23.8991 34.9657C21.9784 35.9723 19.6527 36.4756 16.9221 36.4756H7.98374V30.4531H15.7071C17.1535 30.4531 18.3452 30.2044 19.2825 29.7068C20.2313 29.1977 20.9371 28.4977 21.3999 27.6068C21.8743 26.7042 22.1115 25.6687 22.1115 24.5C22.1115 23.3198 21.8743 22.2901 21.3999 21.4107C20.9371 20.5197 20.2313 19.8313 19.2825 19.3453C18.3337 18.8478 17.1303 18.599 15.6724 18.599H10.6045V48H3.08936ZM33.6173 48V21.3413H40.7853V25.9927H41.063C41.5489 24.3381 42.3647 23.0884 43.5102 22.2438C44.6556 21.3875 45.9747 20.9594 47.4673 20.9594C47.8376 20.9594 48.2368 20.9826 48.6649 21.0289C49.093 21.0751 49.469 21.1388 49.793 21.2198V27.7803C49.4459 27.6762 48.9657 27.5836 48.3525 27.5026C47.7392 27.4216 47.178 27.3811 46.6689 27.3811C45.5813 27.3811 44.6094 27.6183 43.7531 28.0927C42.9085 28.5556 42.2374 29.2035 41.7398 30.0366C41.2539 30.8697 41.0109 31.83 41.0109 32.9177V48H33.6173ZM52.6382 48V21.3413H60.0318V48H52.6382ZM56.3523 17.9048C55.2531 17.9048 54.3101 17.5403 53.5233 16.8114C52.7481 16.0708 52.3605 15.1857 52.3605 14.1559C52.3605 13.1377 52.7481 12.2641 53.5233 11.5351C54.3101 10.7946 55.2531 10.4244 56.3523 10.4244C57.4516 10.4244 58.3888 10.7946 59.164 11.5351C59.9508 12.2641 60.3442 13.1377 60.3442 14.1559C60.3442 15.1857 59.9508 16.0708 59.164 16.8114C58.3888 17.5403 57.4516 17.9048 56.3523 17.9048ZM89.8308 21.3413L80.5106 48H72.1798L62.8596 21.3413H70.6698L76.2063 40.4154H76.484L82.0032 21.3413H89.8308ZM99.5228 48.5033C97.822 48.5033 96.3062 48.2083 94.9756 47.6182C93.645 47.0165 92.592 46.1313 91.8168 44.9627C91.0531 43.7825 90.6713 42.313 90.6713 40.5543C90.6713 39.0733 90.9432 37.8294 91.487 36.8228C92.0309 35.8161 92.7714 35.0062 93.7086 34.3929C94.6458 33.7797 95.7103 33.3169 96.9021 33.0045C98.1054 32.6921 99.3666 32.4722 100.686 32.3449C102.236 32.1829 103.486 32.0325 104.435 31.8937C105.383 31.7433 106.072 31.5234 106.5 31.2342C106.928 30.9449 107.142 30.5168 107.142 29.9498V29.8457C107.142 28.7465 106.795 27.896 106.101 27.2944C105.418 26.6927 104.446 26.3918 103.185 26.3918C101.854 26.3918 100.796 26.6869 100.009 27.277C99.222 27.8555 98.7013 28.5845 98.4468 29.4638L91.6085 28.9085C91.9556 27.2886 92.6383 25.8885 93.6565 24.7083C94.6747 23.5165 95.988 22.6025 97.5963 21.9661C99.2162 21.3181 101.091 20.9941 103.22 20.9941C104.701 20.9941 106.118 21.1677 107.472 21.5148C108.837 21.8619 110.046 22.4 111.099 23.1289C112.164 23.8579 113.003 24.7951 113.616 25.9406C114.229 27.0745 114.536 28.4341 114.536 30.0192V48H107.524V44.3032H107.316C106.888 45.1363 106.315 45.871 105.597 46.5074C104.88 47.1322 104.018 47.624 103.011 47.9826C102.005 48.3298 100.842 48.5033 99.5228 48.5033ZM101.64 43.4007C102.728 43.4007 103.688 43.1866 104.521 42.7585C105.354 42.3188 106.008 41.7287 106.483 40.9882C106.957 40.2477 107.194 39.4088 107.194 38.4716V35.6426C106.963 35.793 106.645 35.9318 106.24 36.0591C105.846 36.1748 105.401 36.2847 104.903 36.3889C104.406 36.4814 103.908 36.5682 103.411 36.6492C102.913 36.7186 102.462 36.7823 102.057 36.8401C101.189 36.9674 100.431 37.1699 99.7832 37.4476C99.1352 37.7253 98.6319 38.1013 98.2732 38.5757C97.9145 39.0385 97.7352 39.6171 97.7352 40.3113C97.7352 41.318 98.0997 42.0874 98.8286 42.6197C99.5691 43.1403 100.506 43.4007 101.64 43.4007ZM133.474 21.3413V26.8952H117.42V21.3413H133.474ZM121.065 14.9543H128.458V39.808C128.458 40.4907 128.562 41.0229 128.771 41.4047C128.979 41.775 129.268 42.0353 129.639 42.1858C130.02 42.3362 130.46 42.4114 130.958 42.4114C131.305 42.4114 131.652 42.3825 131.999 42.3246C132.346 42.2552 132.612 42.2031 132.797 42.1684L133.96 47.6702C133.59 47.7859 133.069 47.919 132.398 48.0694C131.727 48.2314 130.911 48.3298 129.951 48.3645C128.169 48.4339 126.607 48.1967 125.265 47.6529C123.934 47.1091 122.899 46.2644 122.158 45.1189C121.418 43.9734 121.053 42.5271 121.065 40.7799V14.9543ZM149.176 48.5207C146.434 48.5207 144.073 47.9653 142.095 46.8545C140.128 45.7322 138.612 44.147 137.547 42.099C136.483 40.0394 135.951 37.6038 135.951 34.7921C135.951 32.0499 136.483 29.6432 137.547 27.572C138.612 25.5009 140.11 23.8868 142.042 22.7297C143.986 21.5727 146.266 20.9941 148.881 20.9941C150.639 20.9941 152.277 21.2776 153.792 21.8446C155.32 22.4 156.65 23.2388 157.784 24.3612C158.93 25.4835 159.821 26.8952 160.457 28.596C161.094 30.2854 161.412 32.2639 161.412 34.5318V36.5624H138.901V31.9805H154.452C154.452 30.916 154.221 29.973 153.758 29.1514C153.295 28.3299 152.653 27.6878 151.831 27.2249C151.021 26.7505 150.078 26.5133 149.002 26.5133C147.88 26.5133 146.885 26.7737 146.017 27.2944C145.161 27.8035 144.49 28.4919 144.004 29.3597C143.518 30.2159 143.269 31.1705 143.257 32.2234V36.5798C143.257 37.8988 143.5 39.0385 143.986 39.9989C144.484 40.9593 145.184 41.6998 146.086 42.2205C146.989 42.7411 148.059 43.0015 149.297 43.0015C150.119 43.0015 150.871 42.8858 151.554 42.6544C152.236 42.423 152.821 42.0758 153.307 41.613C153.792 41.1502 154.163 40.5832 154.417 39.9121L161.256 40.3634C160.908 42.0064 160.197 43.4412 159.121 44.6677C158.056 45.8826 156.679 46.8314 154.99 47.514C153.312 48.1851 151.374 48.5207 149.176 48.5207ZM188.017 48L184.693 39.3981H170.715L167.392 48H162.7L175.603 16.2317H179.903L192.709 48H188.017ZM172.181 35.5859H183.227L177.704 21.3146L172.181 35.5859ZM195.249 16.2317H199.257V48H195.249V16.2317ZM217.73 43.9923H234.933V48H213.722V16.2317H217.73V43.9923ZM256.138 48H252.521L252.179 43.7968C250.811 46.5826 247.976 48.391 244.31 48.391C239.618 48.391 235.904 45.4585 235.904 40.9621C235.904 37.4431 238.348 34.9017 242.062 34.5107L250.468 33.5332C251.446 33.4354 252.032 32.9467 252.032 32.1647V31.7737C252.032 28.6458 249.686 26.4953 246.461 26.4953C243.235 26.4953 240.889 28.7435 240.791 32.2625L236.49 31.676C236.979 26.4953 241.182 22.9763 246.559 22.9763C252.032 22.9763 255.942 26.593 255.942 31.676V43.1126L256.138 48ZM244.701 44.481C249.002 44.481 252.032 41.7441 252.032 38.0296V36.3679C251.886 36.5145 251.202 36.6611 250.371 36.7589L243.235 37.5409C241.085 37.8341 239.912 39.0071 239.912 40.7666C239.912 42.9171 241.964 44.481 244.701 44.481ZM273.53 22.9763C280.275 22.9763 285.26 28.3525 285.26 35.5859C285.26 43.0148 280.275 48.391 273.628 48.391C269.914 48.391 266.786 46.436 264.88 43.2592L263.951 48H261.214V14.7654H265.124V27.5216C267.03 24.7358 269.962 22.9763 273.53 22.9763ZM273.139 44.5788C277.831 44.5788 281.204 40.8643 281.204 35.6837C281.204 30.503 277.929 26.7397 273.237 26.7397C268.545 26.7397 265.026 30.503 265.026 35.6837C265.026 40.8643 268.447 44.5788 273.139 44.5788ZM287.592 40.7666L291.795 39.5936C291.99 42.7216 294.63 44.9209 298.148 44.9209C301.179 44.9209 302.84 43.2103 302.84 41.2553C302.84 39.6914 302.01 38.3229 299.664 37.7853L295.607 36.8566C291.697 35.9769 288.765 33.6309 288.765 30.112C288.765 26.1532 292.723 22.9763 297.366 22.9763C302.058 22.9763 305.871 25.42 306.457 29.6232L302.352 30.6985C302.254 28.3525 300.152 26.5442 297.269 26.5442C294.678 26.5442 292.968 28.1081 292.968 29.9165C292.968 31.4805 293.994 32.6046 296.536 33.2399L300.25 34.1686C304.16 35.146 307.044 37.1499 307.044 41.0598C307.044 45.2142 303.427 48.5865 297.953 48.5865C292.675 48.5865 288.178 45.8495 287.592 40.7666Z" fill="white"/>
<path d="M62.9658 14.4766H90.4683" stroke="white" stroke-width="2.25166"/>
</svg>
