<svg fill="none" height="61" viewBox="0 0 39 61" width="39" xmlns="http://www.w3.org/2000/svg"><path clip-rule="evenodd" d="m0 .557927c0 .488743 2.41429.557923 19.5.557923 17.0857 0 19.5-.06918 19.5-.557923 0-.4887441-2.4143-.557927-19.5-.557927-17.08571 0-19.5.0691829-19.5.557927zm8.84632 4.250663c-8.7686909.5185-8.8567185 10.49091-.16158 18.27101 1.81736 1.6261 1.59456.9972-.62325-1.7601-4.18117-5.1973-5.8162-9.6205-4.75095-12.85203.83943-2.54787 1.08643-2.62486 9.42426-2.93395 9.8651-.36526 10.1846-.39725 7.1366-.71043-3.0085-.30909-5.9737-.31318-11.02508-.0145zm26.51998 1.20065c2.4511 4.67056.9316 9.90206-4.7974 16.51506-3.5835 4.1372-5.1576 6.4265-5.5042 8.0066-.4223 1.9252.2656 1.9505.9134.0334.6414-1.8973 1.8694-3.6079 6.1854-8.6192 4.6306-5.3765 6.5004-12.90631 4.0281-16.22226-1.2391-1.66188-1.7542-1.48334-.8253.2864zm-28.73221 2.94883c-.75029.66319-.7696.73275-.13409.48354 1.95149-.76548 5.5618-.5821 8.1833.41547 3.9078 1.48672 6.9558 1.59532 11.7308.41772 5.6599-1.39558 7.5467-.53823 6.5821 2.9908-.543 1.9855-.6277 2.0647-1.5317 1.4306-.9758-.6844-2.5989-.6822-6.0216.0081l-2.6.5249 3.8156-.1607c5.2535-.221 6.2166.244 3.4421 1.6619-3.0168 1.541-7.5014 1.0072-13.2006-1.5715-4.241-1.9189-9.08254-2.4475-9.81797-1.0716-.96906 1.8136 1.4222 5.073 7.21207 9.8292 3.9553 3.249 5.2193 4.957 4.7108 6.3655-.5531 1.5317-.5468 2.2987.0267 3.3111.2533.4468.4625 2.0703.4643 3.608.0037 2.5159.1248 2.9849 1.2112 4.6821 1.433 2.2391 1.566 4.0829.4777 6.6256-.9501 2.2194-1.1867 2.1528-.9041-.2548.4108-3.5019-1.1168-5.8259-3.0122-4.5821-1.1804.7748-1.1756.8298.3788 4.3708 1.4319 3.2609 1.3973 4.0573-.1318 3.0463-4.5174-2.9868-9.40053-2.1506-6.9602 1.1913.7254.9935 1.0882.484.5296-.7435-.9003-1.9795 2.1647-2.2414 4.9133-.4199 1.8846 1.249 1.8449 1.458-.4911 2.5914-8.65239 4.1967-13.01259-2.2541-6.25779-9.2583 5.02839-5.2144 5.21859-8.0386.84609-12.5552-2.62449-2.7108-3.03491-2.097-.47131.7049 2.37601 2.5966 2.75861 3.4796 1.50691 3.4796-2.39537 0-4.64437-2.0454-5.92951-5.3933-.47135-1.2275-1.19563-2.8574-1.6094-3.6225-.96943-1.7909-.88066-1.8415 2.05511-1.1709 4.7639 1.0884 8.0771 4.3932 8.0897 8.0699.0037 1.0965.1497 1.6998.3774 1.5588 4.0991-2.537-4.86424-10.9725-11.65879-10.9725h-1.986024l1.220884 1.2962c.73692.7826 1.703 2.5754 2.43694 4.523 1.63875 4.3473 3.95869 6.4552 7.10619 6.4552 2.2308 0 1.4534 2.4608-1.93404 6.1223-8.794316 9.5059-1.05152 18.1345 9.00524 10.0352 6.1108-4.9209 10.2206-4.6903 13.4372.7544 1.2332 2.0877 1.7476 2.1286.9687.0773-1.4085-3.7098-7.0642-6.3168-10.1341-4.6717-.6826.366-.7395.3325-.4784-.279.7143-1.6723.6244-5.1225-.1682-6.4593-1.869-3.1504-1.9905-3.6886-1.4712-6.5009.2655-1.4365.4925-3.6645.5047-4.9511l.0223-2.3392 5.0143-4.935c11.4367-11.2564 10.8583-16.63963-1.4857-13.83065-3.3057.75205-5.4099.58735-9.266-.72605-3.6022-1.22669-7.32981-1.29662-8.61421-.16143zm29.49961 13.06103c-.244.552-2.3315 3.0337-4.6388 5.5146-7.485 8.0483-7.5192 8.3094-1.8612 14.2264 4.6922 4.9075 5.652 6.9477 5.652 12.0166 0 3.1821.3733 3.3014 1.3468.4307 1.5106-4.4556.4056-8.4496-3.5007-12.6545-3.3663-3.6235-3.7629-5.1017-1.3691-5.1017 1.1039 0 1.5448 1.1285.6864 1.7571-.585.4285-.5883.4746-.033.4746 1.0507 0 1.5544-1.4264.7989-2.2626-.8339-.9224-2.1907-.909-3.1293.0309-1.2539 1.2557-.9274 2.0115 2.4098 5.5793 3.5728 3.8192 4.6046 6.4422 4.0624 10.3265l-.2976 2.1339-.2611-2.6677c-.4041-4.1309-1.6179-6.3373-5.9257-10.7713-3.8592-3.9721-4.1831-4.6241-3.282-6.6044.3109-.6833.8168-.9883 1.95-1.175 5.307-.8744 8.2164-4.4961 7.9516-9.8987-.1074-2.1826-.149-2.2838-.5594-1.3547zm-31.28321 20.541c-3.32318 4.3132-3.4294 10.9365-.2184 13.5971.49845.4132.41414.0714-.33615-1.3658-1.95965-3.753-1.69074-7.0608.92709-11.4074 1.88871-3.1363 1.71117-3.5287-.37254-.8239zm13.39411 13.0392c-4.114.9347-3.3321 1.1828 1.8125.5757 1.599-.1885 3.8934-.19 5.3858-.0037 1.43.1789 3.3521.4155 4.2714.5256l1.6714.2008-2.1431-.7256c-2.9287-.9916-7.9932-1.2554-10.998-.5728zm-18.2446 4.8428c0 .4887 2.41429.5579 19.5.5579 17.0857 0 19.5-.0692 19.5-.5579 0-.4888-2.4143-.558-19.5-.558-17.08571 0-19.5.0692-19.5.558z" fill="#fff" fill-rule="evenodd"/></svg>