<svg width="82" height="108" viewBox="0 0 82 108" fill="none" xmlns="http://www.w3.org/2000/svg">
<path fill-rule="evenodd" clip-rule="evenodd" d="M74.8536 2.7216C64.3465 7.45473 40.7094 18.7008 40.0849 19.2636C39.3248 19.9485 41.0916 19.9254 48.443 19.1551C58.256 18.1269 59.5504 17.6701 53.7251 17.2893L48.7537 16.964L57.4537 12.7057C68.1422 7.47467 77.0286 3.5548 77.0286 4.07205C77.0286 4.28456 67.0311 14.4326 54.8126 26.6235C33.4381 47.9497 25.0091 57.0159 18.115 66.0958C11.0525 75.3975 12.6228 75.0404 20.2974 65.5997C28.6736 55.2952 77.8315 4.81302 78.6704 5.65433C78.9215 5.9061 76.2232 13.2336 70.9399 26.6503L66.1537 38.8025L65.8075 30.5614C65.2874 18.1724 64.6001 19.8593 64.6001 33.5259C64.6001 41.4891 64.8095 45.3853 65.2153 44.9783C66.3761 43.8142 82 2.66364 82 0.769762C82 -0.480982 81.9018 -0.454185 74.8536 2.7216ZM30.111 30.9391C20.8592 34.2962 9.05768 41.8144 7.77444 45.1684C7.53457 45.7953 8.13673 45.5548 9.43303 44.5059C14.4976 40.406 22.0548 35.7794 27.9931 33.1427C36.1941 29.502 37.3307 28.3185 30.111 30.9391ZM52.5339 41.7626C34.1179 62.5947 9.24784 102.558 11.3837 107.887C11.5409 108.279 12.0393 107.618 12.4923 106.419C17.7434 92.4972 28.7581 74.5842 45.6006 52.5756C51.6073 44.7272 56.5216 38.2073 56.5216 38.0864C56.5216 37.4346 55.6497 38.2385 52.5339 41.7626ZM74.5572 40.6721C74.4522 54.8172 65.485 70.2593 49.9245 83.0939C43.3312 88.5325 40.3533 92.0136 40.3788 94.2553C40.3893 95.1938 40.6522 94.985 41.4153 93.4314C41.9814 92.2798 45.6541 88.6185 49.6355 85.2364C68.1509 69.5096 80.3085 47.4461 75.2613 38.7314C74.7014 37.7643 74.5765 38.1082 74.5572 40.6721ZM22.9192 48.5629C9.16022 58.6511 1.58691 68.2277 0.202993 77.2864C-0.328947 80.7713 0.148928 80.2135 2.06043 75.1189C5.11598 66.9757 10.0793 60.8709 21.0916 51.7113C30.1333 44.1912 29.5473 44.7228 28.7917 44.7228C28.4424 44.7228 25.7995 46.4509 22.9192 48.5629ZM47.8781 66.904C31.2053 85.1068 27.3145 91.2371 27.3145 99.3025C27.3145 105.402 28.3182 105.251 28.6873 99.0962C29.1478 91.4141 32.1735 86.2741 43.4089 74.0826C51.2798 65.5424 56.5166 59.4781 56.5197 58.9004C56.5247 57.7057 55.06 59.0624 47.8781 66.904ZM75.869 67.6288C73.9936 71.2988 66.9534 78.625 63.7972 80.1923C62.0355 81.0667 61.5986 81.4904 62.4587 81.4904C66.7359 81.4923 78.6002 69.0229 77.4735 65.7088C77.3368 65.3062 76.6147 66.1699 75.869 67.6288Z" fill="white"/>
</svg>
