<svg width="54" height="59" viewBox="0 0 54 59" fill="none" xmlns="http://www.w3.org/2000/svg">
<path fill-rule="evenodd" clip-rule="evenodd" d="M19.3074 0.811061C-9.09671 8.3083 -5.06447 50.1108 24.2112 51.6458C28.2962 51.8598 29.1999 51.2916 25.246 50.995C22.3287 50.7765 21.198 50.1374 18.3722 47.1113C16.3566 44.9525 16.1418 44.2598 17.4869 44.2556C17.9832 44.2539 20.0126 43.9759 21.9971 43.6376C26.2927 42.9053 25.7797 42.5482 26.0005 46.4238C26.2691 51.1345 26.7316 51.2809 26.7434 46.6589L26.7532 42.7176L27.9833 42.5137C28.66 42.4018 30.4457 42.2135 31.9519 42.0955C33.9859 41.9361 34.5428 41.7995 34.1177 41.5634C33.5696 41.2593 29.1172 41.4645 27.4913 41.8688C26.8143 42.0372 26.7532 41.9403 26.7532 40.697C26.7532 39.8765 26.624 39.4212 26.4252 39.5428C26.2448 39.6534 26.0972 40.1562 26.0972 40.6606C26.0972 41.9455 25.7138 42.1374 21.9298 42.7452C16.1496 43.6737 15.7065 43.6009 14.8025 41.5738C14.1829 40.1848 12.6484 35.3635 12.6488 34.8064C12.6488 34.7283 15.8593 34.6571 19.783 34.6477C30.1281 34.6236 31.0358 33.978 20.9711 33.8034C15.0226 33.7 13.2625 33.5712 12.819 33.2063C11.4174 32.0531 12.757 13.4721 14.3561 11.8867C14.6375 11.608 20.7349 12.675 25.9332 13.9131C35.0293 16.0794 39.6424 14.7095 37.4444 10.4951C36.2885 8.27903 32.6574 8.87125 32.6574 11.2759C32.6574 12.3075 33.382 12.1755 33.6389 11.097C34.0305 9.45209 36.6582 9.76787 36.8599 11.4844C37.248 14.7902 34.6212 15.2208 26.4252 13.1953C23.9897 12.5934 20.4499 11.7898 18.5585 11.4096C14.4056 10.5741 14.7047 10.8892 15.8774 8.58571C17.7579 4.89189 21.6169 1.6215 24.6553 1.14701C26.2137 0.903423 26.4252 1.35222 26.4252 4.89872C26.4252 8.03349 26.8313 11.7367 27.1754 11.7367C27.5247 11.7367 27.2794 3.55622 26.8789 1.84851C25.8922 -2.35818 37.8029 5.94462 40.3824 11.2616C43.0183 16.6953 42.4951 17.031 31.0174 17.2706C21.6658 17.4661 20.5912 17.7594 17.748 20.8949C15.3139 23.5792 13.0775 29.3694 14.2075 30.0618C14.3912 30.1743 14.6109 29.558 14.7238 28.6149C15.6032 21.2526 19.7948 18.578 31.1466 18.1364C38.4665 17.8512 39.1685 17.7711 40.6009 17.0592C41.4517 16.6358 42.2075 16.2898 42.2803 16.2898C42.3531 16.2898 42.6693 17.9728 42.9829 20.0298C43.2965 22.0868 43.6845 23.7698 43.8456 23.7698C44.249 23.7698 44.2041 23.1454 43.5182 19.2167L42.9219 15.802L43.8951 14.4448C44.5006 13.6009 44.9329 12.5221 45.0389 11.5917C45.2813 9.45892 45.4735 9.52071 47.3064 12.3208C50.3566 16.9805 51.4095 21.1267 50.2444 23.8917C49.6461 25.311 49.5897 25.7211 49.9922 25.7211C51.092 25.7211 51.8664 21.4094 51.2173 18.8977C47.8283 5.78071 32.7844 -2.74617 19.3074 0.811061ZM19.0099 3.39264C17.4502 4.82424 16.2917 6.27862 15.2801 8.07414L13.8122 10.6791L11.6011 10.8629C9.03868 11.0759 7.22216 11.8002 4.98939 13.4988L3.39853 14.7092L4.30253 13.0623C7.26939 7.65786 12.8436 3.33377 19.0424 1.62833C21.6461 0.911879 21.6451 0.973345 19.0099 3.39264ZM35.045 2.45731C42.0343 5.24377 45.38 9.07581 43.9144 12.6165C43.12 14.5356 42.6634 14.6829 42.1635 13.1817C40.922 9.45144 37.0036 4.78652 33.1495 2.45016C30.9462 1.11449 31.6833 1.11742 35.045 2.45731ZM13.375 11.9146C13.4737 12.0125 13.2838 12.954 12.9535 14.0071C11.9826 17.0992 11.3367 22.7681 11.3367 28.1934V33.245L10.5987 33.0375C1.22776 30.4032 -0.469371 28.2753 3.86595 24.5958C5.08648 23.56 7.09292 22.464 10.0247 21.2315L10.8447 20.8867L10.0247 20.8666C7.69712 20.8093 3.48283 23.1776 1.7903 25.4941L0.840377 26.7943V25.2632C0.840377 18.3744 3.74491 14.0064 9.53267 12.1917C10.8995 11.7631 13.0647 11.607 13.375 11.9146ZM25.6052 20.9101C20.8792 22.5479 18.5681 29.57 22.1503 31.4069C24.92 32.8271 27.4503 30.4416 27.3712 26.485C27.3309 24.4687 27.2531 24.5832 26.9087 27.1651C26.3432 31.4046 21.1771 32.2609 21.1771 28.115C21.1771 23.5174 24.2791 21.5726 32.1064 21.2637C34.9181 21.1528 36.7848 20.9573 36.5345 20.7999C35.9152 20.4106 26.7808 20.5026 25.6052 20.9101ZM37.367 24.7529C31.1073 26.685 28.5101 34.8272 34.1538 34.8272C35.784 34.8272 36.7054 33.9579 37.0597 32.0853C37.7813 28.2711 43.9348 27.6152 45.5263 31.1828C46.8934 34.2467 45.1543 37.425 41.1533 39.1757C39.3475 39.9656 38.2336 40.7865 38.2336 41.327C38.2336 41.7224 43.7514 38.8966 44.7072 38.0117C47.5557 35.3739 47.1565 30.0045 44.001 28.5199C40.819 27.0229 36.754 29.0721 36.0576 32.5246C35.6761 34.4154 33.2465 34.7202 32.1221 33.0186C30.0176 29.8341 35.2169 25.5585 41.1939 25.5585C51.8464 25.5585 55.428 36.2539 46.2318 40.6021C44.7568 41.2993 44.8191 41.432 46.8439 41.9052C57.5643 44.4097 53.0515 58.0932 41.5137 58.0672C32.3826 58.0467 25.9831 48.6554 34.0151 47.0625C36.2856 46.6124 36.8891 47.1536 35.763 48.6297C34.6823 50.0467 35.2179 52.9958 36.8796 54.7757C42.2104 60.4865 51.7979 52.0416 46.8761 45.9707C45.0346 43.6994 41.0919 42.3677 38.8076 43.2454C37.2624 43.8389 37.8039 44.0959 40.612 44.1001C43.9423 44.1053 45.2409 44.7713 46.5412 47.1399C49.9436 53.3382 41.0644 59.3108 36.8458 53.6615C35.6473 52.0569 36.0543 47.9985 37.4136 47.9985C37.594 47.9985 37.9178 48.5107 38.1333 49.1367C38.5111 50.2363 38.5252 50.2441 38.5433 49.3644C38.5859 47.2664 37.4808 46.2098 35.2441 46.2098C28.411 46.2098 28.557 54.6267 35.4455 57.8187C47.457 63.3845 61.2761 47.7978 49.55 41.9104C48.8284 41.5481 48.1829 41.2027 48.1156 41.1432C48.0484 41.0834 48.6168 40.3331 49.3791 39.4755C56.3802 31.602 48.0913 21.4429 37.367 24.7529ZM6.86102 32.9025C12.3463 34.4821 11.6769 33.9852 12.5182 37.1037C12.9282 38.6241 13.5665 40.7282 13.9369 41.7797L14.6103 43.691L12.8915 43.4796C7.22675 42.7833 4.09687 39.9126 1.80703 33.3139C0.696708 30.1138 0.852514 29.7821 2.84288 31.1103C3.76394 31.7246 5.57226 32.5311 6.86102 32.9025ZM42.4978 32.4398C42.4978 32.9871 42.0861 34.2437 41.5829 35.2327C41.0801 36.2214 40.8216 36.9674 41.0089 36.8907C42.1799 36.41 43.6173 32.5549 42.8933 31.8371C42.5847 31.5311 42.4978 31.6635 42.4978 32.4398ZM13.355 44.4289C15.1 44.6377 19.1752 48.2258 19.8102 50.1127C20.3436 51.6972 12.0508 47.6066 8.63064 44.598C6.54514 42.7638 6.6629 42.5579 9.28666 43.4523C10.5042 43.8676 12.3352 44.3069 13.355 44.4289ZM11.7782 53.2309C15.7436 55.9026 22.6354 57.1976 24.9492 55.7061C25.5101 55.3445 25.2946 55.3116 23.4653 55.4801C20.423 55.7601 17.318 55.1711 13.9785 53.6803C10.6108 52.1769 10.0408 52.0604 11.7782 53.2309Z" fill="white"/>
</svg>
