<svg width="118" height="110" viewBox="0 0 118 110" fill="none" xmlns="http://www.w3.org/2000/svg">
<path opacity="0.8" fill-rule="evenodd" clip-rule="evenodd" d="M53.4056 0.762802C52.8108 0.940802 51.944 1.69953 51.7182 2.23992C51.5277 2.69591 51.5195 3.02715 51.568 8.26201L51.584 9.99612L50.5291 10.3541C49.2903 10.7743 48.6859 11.201 47.9935 12.1442C47.2142 13.2058 46.9093 14.2318 46.9721 15.5802C47.0373 16.9777 47.4811 17.9666 48.5214 19.0321C49.9132 20.4575 50.6079 20.6294 55.0907 20.6564L58.4813 20.6768V23.015V25.3532L55.9896 25.3967L53.498 25.4402L52.8955 25.8609C51.8304 26.6047 51.8064 26.7202 51.8098 31.0723C51.8116 33.1756 51.8699 35.1419 51.9394 35.442C52.1044 36.1529 52.4697 36.6313 53.1405 37.0149C53.668 37.3164 53.8004 37.3256 57.7073 37.3278C61.4954 37.3299 61.7658 37.3132 62.326 37.0421C62.6752 36.873 63.0522 36.5428 63.2389 36.2425C63.5361 35.7645 63.5585 35.5706 63.5791 33.2973C63.6079 30.0985 63.6885 29.5426 64.1231 29.5426C64.9487 29.5426 66.6404 28.1545 67.2087 27.0105C67.9269 25.5653 67.9278 23.5052 67.2111 22.0702C66.8114 21.2699 65.769 20.2381 64.8483 19.7315C64.1437 19.3436 64.0258 19.3247 61.989 19.2745L59.8647 19.2221L59.9031 17.221L59.9415 15.22L62.2505 15.1655C64.9032 15.1029 65.6227 14.9018 66.1288 14.0814C66.4051 13.6333 66.4123 13.4545 66.3759 7.91839C66.3386 2.26746 66.3356 2.21239 66.0232 1.7101C65.3945 0.699112 65.3367 0.690212 59.2462 0.662538C56.2633 0.649049 53.635 0.694245 53.4056 0.762802ZM53.6627 2.20975C53.3643 2.33963 53.1982 2.52639 53.1418 2.79534C52.977 3.58173 52.9996 12.9091 53.1671 13.2192C53.2545 13.3812 53.5239 13.5532 53.7656 13.6016C54.0074 13.65 56.5364 13.6895 59.3857 13.6895C64.033 13.6895 64.5856 13.6658 64.7569 13.4597C64.9088 13.2769 64.9565 12.2334 64.9904 8.34921C65.0394 2.74069 65.0128 2.39233 64.5185 2.16705C63.9747 1.91938 54.2422 1.95763 53.6627 2.20975ZM81.1563 7.86791C77.5806 8.46087 74.26 10.6137 72.3283 13.5914C71.3637 15.0784 71.1024 15.6122 70.6749 16.9693C69.918 19.3718 69.8803 21.9165 70.5257 27.0395C71.0438 31.1518 71.104 33.5566 70.737 35.4659C69.8085 40.2967 68.1808 42.1327 62.8618 44.3484C59.9593 45.5575 56.4452 47.2862 55.3524 48.0423C55.0465 48.2541 54.6123 48.6212 54.3878 48.8583C54.1632 49.0954 53.8926 49.2894 53.7866 49.2894C53.5367 49.2894 50.9278 47.9564 50.2071 47.4605C48.6267 46.3729 47.709 45.1659 47.1232 43.4046C46.7834 42.3833 46.7455 42.0745 46.7531 40.3894C46.7606 38.7271 46.813 38.321 47.2106 36.8433C47.9807 33.9816 48.1804 33.0675 48.3975 31.4116C48.647 29.5089 48.6619 28.3345 48.4566 26.7487C47.9445 22.791 46.5626 20.3375 43.5321 18.0057C42.511 17.2199 40.6159 16.3022 38.9552 15.7893C35.8453 14.8287 30.764 16.1788 27.7198 18.7746C25.4649 20.6974 23.7793 23.7263 23.2879 26.7389C22.9237 28.9714 23.2029 32.9876 23.9166 35.7824C24.4257 37.7763 25.5711 41.4464 26.0056 42.4754C27.0979 45.0629 29.1349 46.9921 31.533 47.7104L32.372 47.9617L32.2929 48.8085C32.1833 49.9825 31.7208 51.1452 31.1826 51.5999C30.9383 51.8064 29.7059 52.4726 28.4439 53.0803C24.7782 54.8455 22.6368 56.3595 21.2257 58.1834C20.075 59.6711 19.3761 61.0929 19.3534 61.993C19.3355 62.7017 19.3398 62.7093 19.7823 62.7522C20.2207 62.7944 20.2409 62.7704 20.8409 61.4862C21.4966 60.083 22.3222 58.7835 22.9683 58.1373C23.8687 57.237 26.5507 55.5812 29.2502 54.2589C32.3553 52.7382 33.4611 51.461 33.5661 49.2744L33.6169 48.2163L34.7052 48.0625C36.0799 47.8681 37.1395 47.4965 38.3045 46.8005C39.8893 45.8536 40.6588 44.8241 40.225 44.2313C39.9606 43.8702 39.6365 44.003 38.5013 44.9376C36.0923 46.9212 33.5081 47.3097 31.0207 46.0626C28.6348 44.8663 27.3713 42.7707 25.8571 37.4985C24.9359 34.291 24.6781 32.5883 24.6841 29.7512C24.6885 27.6787 24.7319 27.2275 25.0362 26.093C26.2186 21.6846 29.0861 18.7367 33.5197 17.3717C35.1543 16.8686 36.5397 16.7838 37.9745 17.0991C40.6566 17.6886 42.2789 18.5728 44.1134 20.4448C45.3877 21.7451 46.0481 22.8248 46.5736 24.4668C47.526 27.4433 47.4917 30.0005 46.4454 34.0108C45.4095 37.9809 45.2322 39.0537 45.3226 40.8066C45.4255 42.8052 45.659 43.7403 46.4518 45.3284C47.1678 46.7628 48.0378 47.7298 49.4662 48.6795C50.5446 49.3965 53.163 50.6732 55.2829 51.5157C59.3367 53.1268 61.7753 54.7237 63.4496 56.8635C64.828 58.6251 65.84 61.0338 66.1948 63.3973C66.643 66.3838 66.7739 72.3206 66.4767 76.198C66.4415 76.6569 66.3794 77.8146 66.3386 78.7706C66.256 80.7097 66.0273 84.5496 65.9245 85.7237C65.847 86.609 65.7697 87.6454 65.5717 90.4519C65.4936 91.5609 65.3988 92.8124 65.3614 93.2331C65.2071 94.9674 64.858 99.8337 64.5898 103.992L64.3039 108.423L64.6152 108.755C65.0417 109.209 65.4998 109.187 65.6916 108.704C65.7752 108.493 65.9074 107.007 65.9856 105.401C66.0639 103.795 66.1898 101.792 66.2658 100.951C66.4709 98.6757 66.853 93.5136 67.1818 88.5745C67.2225 87.9626 67.3438 86.4295 67.4514 85.1675C67.8044 81.0277 68.0071 76.1314 68.0071 71.748C68.0071 66.7901 67.9689 65.7609 67.7108 63.7614C67.1367 59.3164 65.0857 55.7308 61.7319 53.3097C60.4201 52.3627 57.4539 50.7108 56.2711 50.2684C55.7948 50.0903 55.4683 49.8852 55.4683 49.7642C55.4683 49.652 55.9116 49.2933 56.4534 48.9671C57.3477 48.4285 61.4313 46.3691 61.605 46.3691C61.7404 46.3691 65.3601 44.8133 66.1744 44.405C67.7857 43.5973 69.5689 41.9795 70.3874 40.5827C71.5461 38.6057 72.3876 35.143 72.3876 32.3522C72.3876 31.7669 72.1943 29.5968 71.958 27.5298C71.5887 24.2973 71.5369 23.4213 71.5882 21.2684C71.6421 19.0032 71.6845 18.6529 72.033 17.5832C72.4476 16.3111 72.9969 15.1182 73.529 14.3353C75.2096 11.8622 77.9616 10.0291 80.8827 9.43723C82.2832 9.1534 84.8466 9.22836 86.0044 9.587C88.8548 10.4699 91.135 12.2964 92.789 15.0211C95.3185 19.1884 95.3965 22.4259 93.159 30.377C91.8755 34.9382 90.3358 38.1198 88.738 39.5126C87.5153 40.5786 85.5904 41.189 84.0121 41.0117C82.4145 40.8324 81.0884 40.184 79.6188 38.8639C78.883 38.2031 78.6176 38.0952 78.2335 38.3007C77.022 38.949 80.3212 41.7025 82.9081 42.202L83.7636 42.3672L83.5818 42.8037C83.061 44.0541 83.2542 45.5534 84.0617 46.5279C84.6181 47.1992 85.7135 47.9123 87.1429 48.5335C92.0036 50.6461 94.7226 52.5531 97.302 55.6582C97.9443 56.4315 98.7826 56.1453 98.5233 55.2413C98.2092 54.146 95.8146 51.7403 93.535 50.2298C91.895 49.1431 90.4945 48.4136 87.989 47.3407C85.7542 46.384 85.0852 45.8052 84.9065 44.6745C84.6898 43.3033 85.0456 42.5388 85.9998 42.3243C86.3311 42.2499 87.0803 42.0039 87.6648 41.7778C90.732 40.5908 92.4524 37.9204 94.2806 31.5098C96.011 25.4411 96.5335 21.5877 95.9571 19.1429C95.3672 16.6411 93.8276 13.4881 92.4983 12.0598C90.9502 10.3965 88.9669 9.06454 87.0474 8.39913C85.3711 7.81799 82.8359 7.58937 81.1563 7.86791ZM50.4391 11.9655C48.8144 12.7753 48.111 14.6476 48.6911 16.6192C48.9803 17.6025 49.9201 18.5423 51.029 18.9573C51.7511 19.2274 52.0946 19.252 55.1491 19.252H58.4813V17.166V15.0801L56.1521 15.0793C53.5267 15.0784 52.9588 14.9702 52.2726 14.3399C51.7599 13.869 51.5373 13.2245 51.5316 12.1946C51.5275 11.4901 51.4331 11.4703 50.4391 11.9655ZM59.8741 22.7922C59.8753 23.9427 59.9249 24.9606 59.9845 25.0543C60.044 25.1479 60.525 25.2859 61.0536 25.3607C62.6354 25.5847 63.6037 26.4943 63.62 27.7719L63.6266 28.2957L64.2872 27.9582C65.6665 27.2535 66.2951 26.2887 66.3808 24.7445C66.4721 23.0977 65.6866 21.7541 64.2163 21.0423C63.6709 20.7783 63.3332 20.7344 61.7286 20.7187L59.872 20.7004L59.8741 22.7922ZM53.6774 27.1027C53.3376 27.4425 53.3359 27.458 53.3102 30.475C53.296 32.1419 53.2803 33.9261 53.2754 34.4397C53.2612 35.9212 53.0952 35.8621 57.4083 35.9125C61.6771 35.9624 61.9081 35.9374 62.0146 35.4135C62.0569 35.2056 62.1047 33.3772 62.1207 31.3504C62.152 27.3928 62.1149 27.1451 61.4537 26.8937C61.2622 26.8209 59.511 26.7613 57.562 26.7613H54.0187L53.6774 27.1027ZM105.215 44.9824C103.487 45.6036 102.897 46.3528 102.095 48.9418C101.648 50.3863 100.398 54.6791 99.8482 56.6597L99.5972 57.5636L98.6124 57.5661C97.4191 57.5693 96.5306 57.7998 95.3322 58.4173C93.4981 59.3623 92.7143 60.4969 91.6471 63.7519C90.0941 68.4886 88.7936 70.9254 86.0776 74.1885C84.8311 75.6859 82.7138 77.6718 80.8643 79.0778C79.2609 80.2967 78.863 80.6521 76.0845 83.3474C74.5515 84.8346 72.9726 86.799 72.3862 87.9487C71.4435 89.797 71.4624 92.3158 72.4314 93.9651C73.3819 95.583 74.7933 96.4463 76.6475 96.5442C79.6515 96.7026 81.9834 94.7946 84.349 90.2433C86.2957 86.498 87.5697 84.3444 88.8293 82.6699C89.633 81.6015 89.6871 81.0912 89.0038 81.024C88.5146 80.976 88.2546 81.1874 87.3801 82.3438C86.3033 83.7681 85.1451 85.6968 83.7225 88.4355C81.2478 93.1999 79.9576 94.6453 77.7067 95.175C76.4357 95.4741 74.7874 94.8962 74.012 93.8795C73.0348 92.5984 72.7537 90.6617 73.3326 89.2003C74.1032 87.2551 77.5096 83.5684 81.4959 80.3651C84.5914 77.8776 87.1702 75.3377 88.4775 73.4886C90.4595 70.6854 91.4338 68.6862 92.9853 64.2386C94.1405 60.927 94.5505 60.3318 96.2591 59.4864C97.2568 58.9929 98.9512 58.6882 99.1235 58.9715C99.1643 59.0385 98.7324 60.6578 98.1639 62.5699C96.7193 67.4286 96.4458 68.6084 96.4455 69.9819C96.4453 71.2774 96.6396 71.8104 97.2063 72.0685C97.7657 72.3234 100.352 72.2646 101.79 71.9642C102.573 71.8005 103.145 71.7474 103.337 71.8206C103.64 71.9357 103.638 71.9463 102.983 73.5805C101.936 76.196 98.9697 84.9425 98.4663 86.9002C98.1551 88.1105 98.1828 89.269 98.5313 89.6175C99.201 90.2872 99.7214 89.808 99.8148 88.4355C99.9483 86.4769 102.337 78.9579 104.299 74.3206C105.364 71.8056 105.368 71.0817 104.322 70.5753C103.596 70.2237 103.44 70.2229 101.521 70.5587C99.8845 70.845 98.2176 70.8641 97.9526 70.5992C97.5172 70.1638 98.1305 67.6235 101.133 57.4246C101.786 55.2065 102.619 52.3592 102.985 51.0972C104.043 47.4464 104.309 46.9066 105.28 46.4461C105.661 46.2651 106.567 46.2218 110.773 46.1836L115.809 46.138L116.204 46.4702C116.535 46.7487 116.585 46.8743 116.515 47.2463C116.366 48.0258 113.598 57.1706 113.458 57.3428C113.433 57.3744 112.737 57.2018 111.912 56.9593C110.354 56.5013 108.925 56.3733 108.266 56.6326C107.439 56.9576 106.88 58.2105 107.147 59.1402C107.259 59.5315 107.234 59.5925 106.899 59.7512C106.336 60.0184 105.844 61.1296 105.82 62.187C105.802 63.0143 105.777 63.0742 105.33 63.3717C104.782 63.7358 104.247 64.7303 104.239 65.3996C104.229 66.1763 104.645 66.8136 106.157 68.341C106.952 69.144 107.695 69.9395 107.808 70.1086C108.243 70.7617 108.961 70.6124 108.961 69.869C108.961 69.4637 108.061 68.1349 107.362 67.5066C107.149 67.3154 106.702 66.7922 106.369 66.344C105.461 65.124 105.566 64.4443 106.659 64.4503C107.339 64.4539 107.968 64.7281 109.496 65.6856C110.715 66.4496 111.15 66.5287 111.337 66.0206C111.522 65.5167 111.015 65.0691 109.232 64.1598C108.165 63.6157 107.472 63.1701 107.285 62.9074C107.006 62.5156 107.003 62.47 107.212 61.7533C107.504 60.7487 107.707 60.5938 108.45 60.8079C108.769 60.9 109.494 61.0994 110.061 61.2511C110.628 61.4029 111.42 61.6775 111.822 61.8615L112.553 62.1959L112.862 61.8668L113.171 61.5376L112.7 61.0688C112.234 60.6053 111.747 60.3838 110.163 59.9135C108.901 59.539 108.483 59.1989 108.432 58.5074L108.39 57.9306L109.011 57.8373C110.255 57.6508 114.908 59.1968 115.905 60.1275C116.495 60.6786 116.546 61.0804 116.209 62.5227C115.861 64.0185 115.345 65.3467 113.625 69.1753C111.398 74.1335 110.977 75.6353 109.789 82.873C109.025 87.5328 108.012 91.8209 107.149 94.0546C106.185 96.5489 104.316 98.9075 102.703 99.6626C101.728 100.119 100.376 100.385 99.5354 100.285C98.0807 100.112 96.6875 99.1484 95.8991 97.7699C94.8823 95.992 94.179 92.5368 93.9419 88.1527C93.8602 86.6404 93.7659 85.3588 93.7325 85.3047C93.6405 85.1558 94.693 83.0508 95.3128 82.1439C97.1141 79.5085 99.2266 76.136 99.2266 75.8958C99.2266 75.5767 98.8197 75.155 98.5115 75.155C98.1571 75.155 97.6384 75.8304 95.7659 78.7307C94.1159 81.2865 93.0661 83.0703 90.0543 88.4355C85.5647 96.4329 83.7608 98.9979 81.0232 101.276C79.8957 102.214 78.3207 103.274 77.0684 103.937C75.9973 104.504 75.65 104.976 75.9962 105.393C76.4229 105.907 77.553 105.457 80.1139 103.756C81.7918 102.641 82.9121 101.645 84.181 100.141C86.0009 97.9839 88.6395 94.0583 90.3665 90.9386C90.8322 90.0973 91.4733 88.9519 91.7911 88.3935L92.3689 87.378L92.4623 89.1583C92.5138 90.1374 92.5897 91.1889 92.631 91.4948C93.2966 96.4274 94.3563 99.0751 96.2138 100.447C97.5316 101.421 98.0471 101.614 99.5231 101.686C101.528 101.784 102.957 101.362 104.656 100.171C106.528 98.8572 108.067 96.2051 109.284 92.1901C110.183 89.2273 110.371 88.3447 111.39 82.3167C112.52 75.6316 112.832 74.5465 115.005 69.7316C117.347 64.5419 118.166 61.9704 117.943 60.5079C117.806 59.6091 117.158 58.9071 115.911 58.3078C114.803 57.7747 114.832 57.9181 115.447 55.9936C116.97 51.231 118 47.6159 118 47.0319C118 46.1068 117.425 45.3281 116.438 44.9156C116.005 44.7346 115.132 44.7012 110.947 44.7054C106.367 44.71 105.911 44.7321 105.215 44.9824ZM68.6639 51.3138C68.2149 51.6282 68.2808 52.0842 68.8546 52.6344C69.1295 52.8979 69.8231 53.7334 70.3959 54.491C71.6884 56.2001 72.1996 57.2737 72.5871 59.0933C73.0926 61.4663 73.2131 62.6845 73.2748 66.0464C73.3179 68.3928 73.4025 69.7716 73.535 70.2878C74.0674 72.3617 75.3198 73.7281 77.1737 74.2578C78.2841 74.5751 79.108 74.458 80.3471 73.8069C83.6219 72.0862 85.3722 68.0176 85.361 62.1527C85.3575 60.2934 85.1036 59.23 84.3014 57.714C83.7453 56.6629 82.6746 55.5472 82.2221 55.5472C81.9043 55.5472 81.4266 55.9221 81.4266 56.1713C81.4266 56.2349 81.763 56.6396 82.1741 57.0705C83.0162 57.9536 83.3557 58.5494 83.8007 59.9271C84.0759 60.7789 84.0998 61.0662 84.026 62.629C83.8282 66.8181 82.8833 69.7928 81.218 71.4692C79.7006 72.9968 78.2422 73.5091 77.0516 72.9326C76.2698 72.5541 75.3485 71.5162 74.9912 70.6113C74.6715 69.8014 74.4102 66.617 74.5197 64.8644C74.5601 64.2143 74.5309 63.0253 74.4547 62.2222C74.1306 58.8102 73.3677 56.4101 71.9138 54.2293C71.1017 53.011 69.3887 51.0972 69.1104 51.0972C69.0348 51.0972 68.8338 51.1947 68.6639 51.3138ZM2.52908 52.7699C1.79052 52.9584 1.19283 53.415 0.962267 53.9666C0.720855 54.5444 0.794001 54.8971 1.80276 58.0199C2.21591 59.2986 2.84003 61.3461 3.18991 62.5699C3.53979 63.7936 3.97686 65.2749 4.1614 65.8616L4.49695 66.9284L4.15013 67.2522C3.63393 67.7345 3.19394 68.5658 2.85073 69.7078C2.6007 70.5402 2.56162 70.9097 2.63755 71.7242C2.79497 73.4142 4.53811 79.1583 7.53991 87.8792C7.96113 89.103 8.79843 91.6449 9.40043 93.5279C11.1269 98.927 11.8794 100.448 13.7681 102.359C15.615 104.228 17.411 104.967 20.1002 104.966C21.781 104.966 22.67 104.762 23.4724 104.193C23.9297 103.869 23.9203 103.774 23.6474 105.963C23.5332 106.877 23.4393 107.891 23.4388 108.214C23.4378 108.732 23.481 108.814 23.798 108.893C24.3831 109.04 24.688 108.605 24.8419 107.403C24.996 106.2 25.4764 101.919 25.6594 100.117C25.8957 97.7907 26.3635 93.7415 26.9127 89.2698C27.2132 86.8223 27.5254 84.1315 27.6063 83.2902C27.6874 82.4488 27.7831 81.604 27.8189 81.4128C27.8779 81.0983 28.2225 77.8906 28.5882 74.2511C28.8719 71.4276 29.4364 67.1314 29.6429 66.2225C29.954 64.8541 30.0509 64.7773 31.99 64.3633C34.3912 63.8509 35.4568 63.5251 36.7319 62.9136C37.9463 62.3314 38.8719 61.5102 41.0617 59.0722C42.1055 57.91 42.6089 57.5091 44.4981 56.336C45.2162 55.8899 45.3023 55.5521 44.7843 55.2128C44.3009 54.896 43.9141 55.0263 42.4692 55.9928C41.5319 56.6197 40.8609 57.2392 39.6391 58.6058C37.1011 61.4446 36.5487 61.7972 33.4237 62.574C32.3292 62.8462 31.0343 63.1691 30.5461 63.2917C29.3303 63.5971 28.8023 64.0844 28.4495 65.2269C27.8377 67.2076 27.2556 71.7812 26.142 83.3597C25.86 86.2917 25.5777 88.6837 25.1819 91.4948C24.9988 92.7951 24.8099 94.2656 24.7621 94.7628C24.5738 96.722 23.9911 101.804 23.9199 102.108C23.7697 102.751 21.4578 103.524 19.6841 103.524C17.7844 103.524 16.2932 102.898 14.8805 101.507C14.2623 100.899 13.2289 99.47 12.7529 98.5655C12.3059 97.7161 11.5208 95.5297 10.8382 93.2331C10.4177 91.8181 9.79814 89.9095 9.46161 88.9917C9.12494 88.0739 8.68453 86.7285 8.48275 86.0019C7.88701 83.8571 7.52114 82.73 6.60945 80.2308C6.13511 78.9306 5.5719 77.2722 5.35789 76.5456C5.14373 75.819 4.73809 74.4736 4.45648 73.5558C3.82542 71.4995 3.8289 70.4939 4.47164 69.2211C4.83793 68.4957 4.96142 68.3817 5.89258 67.9099C6.99882 67.3492 7.84335 67.1867 10.8207 66.9626C12.6161 66.8274 13.147 66.6216 13.147 66.0602C13.147 65.3994 12.9145 65.3554 10.3872 65.538C8.01092 65.7098 7.72779 65.7424 6.56954 65.9794C6.20241 66.0545 5.87881 66.116 5.85017 66.116C5.78592 66.116 5.14234 64.0111 3.40545 58.1199C3.27014 57.661 2.98882 56.744 2.78023 56.0822L2.40114 54.8789L2.68636 54.4783C2.96824 54.0823 2.9866 54.078 4.26986 54.1015C6.96475 54.1509 12.3925 54.329 12.6428 54.3762C13.0679 54.4564 13.5589 54.8369 13.8501 55.3114C14.117 55.7465 15.264 59.1132 16.2757 62.4308C16.5556 63.3486 17.3676 65.9143 18.0801 68.1324C20.1212 74.4851 20.4912 75.7275 20.5908 76.5622C20.6725 77.2486 20.6479 77.3771 20.3882 77.6191C20.0166 77.9653 19.3416 78.1691 17.9358 78.3596C15.982 78.6242 15.3798 78.782 14.9532 79.141C14.3529 79.6462 14.4063 80.1276 15.3648 82.8563C16.0584 84.831 16.4366 85.6368 17.7462 87.9321C19.8777 91.6671 19.9023 91.7034 20.3037 91.7034C20.4901 91.7034 20.6998 91.6012 20.7697 91.4762C20.9244 91.1999 20.7661 90.4313 20.4574 89.9603C20.3327 89.7699 19.7251 88.6292 19.1074 87.4256C18.4897 86.2219 17.8272 85.004 17.6353 84.7192C17.2965 84.2167 16.333 81.8862 16.0209 80.8143C15.8017 80.0618 15.8492 80.0371 18.0457 79.7542C21.4232 79.3194 22.4392 78.4156 22.089 76.1572C22.0096 75.6442 21.1917 72.9091 20.2715 70.0792C19.3514 67.2493 18.0605 63.1634 17.4029 60.9996C15.9008 56.0563 15.4936 55.0171 14.7229 54.1599C13.6339 52.9488 13.0237 52.8404 6.54158 52.7053C4.45996 52.6621 2.85004 52.688 2.52908 52.7699ZM48.5979 61.2335C47.1715 62.6655 46.726 63.5984 46.1622 66.3335C45.6196 68.9663 45.2485 69.8508 44.2682 70.8466C43.4017 71.7268 42.2681 72.3523 39.967 73.2195C38.9449 73.6047 37.848 74.0723 37.5294 74.2583C36.6921 74.7476 35.8501 75.6574 35.3488 76.6152C34.9487 77.3796 34.912 77.5602 34.9111 78.7706C34.9104 79.9538 34.9491 80.1571 35.2813 80.7175C35.7846 81.5663 36.5526 82.2753 37.5525 82.8137C39.731 83.9871 41.4857 85.4804 41.8709 86.4889C42.0935 87.072 42.0912 87.1404 41.8161 88.0452C41.3441 89.5977 40.3379 90.5813 37.2813 92.4777C30.6534 96.5898 33.6061 96.3615 38.9797 92.9685C41.1884 91.5738 41.7687 91.0401 42.6339 89.608C43.2343 88.6146 43.4982 87.5402 43.3274 86.7855C42.9019 84.9037 41.374 83.2142 39.1123 82.1245C37.8915 81.5363 36.9327 80.7517 36.5436 80.0222C35.7121 78.4637 36.6729 76.0782 38.4564 75.2727C38.8006 75.1172 40.0176 74.6132 41.161 74.1528C44.1038 72.9678 44.7927 72.4874 45.9869 70.7871C46.7083 69.7597 47.0172 68.9008 47.6783 66.0842C47.8709 65.2638 48.1835 64.2625 48.3729 63.8592C48.7464 63.0641 49.2179 60.6111 48.5979 61.2335ZM11.8955 69.329C7.81456 69.4973 6.51294 69.8925 6.63587 70.926C6.71027 71.5519 7.01245 71.6248 8.16069 71.2938C9.50695 70.9057 10.7407 70.7326 12.9391 70.6231C15.1573 70.5128 15.736 70.2421 15.1982 69.5662C14.9425 69.2447 14.5763 69.2184 11.8955 69.329ZM13.1412 72.5056C11.7176 72.6968 9.51293 73.5251 9.04165 74.046C8.76922 74.3469 8.84877 74.9377 9.17876 75.0643C9.2921 75.1079 10.3096 74.8342 11.4398 74.4561C13.7173 73.6944 14.6012 73.5857 14.7485 74.0493C14.9058 74.5452 14.4434 75.0023 13.1735 75.6064C12.2309 76.0547 11.7279 76.4134 10.8873 77.2368C9.62112 78.4769 9.50013 78.9027 10.2374 79.5231C10.7299 79.9375 11.0127 79.971 11.4473 79.6666C11.8122 79.4111 11.8346 79.2265 11.5402 78.9014C11.3412 78.6814 11.3846 78.6089 12.0892 77.9877C12.5371 77.5928 13.3622 77.0819 14.0786 76.7555C15.5798 76.0718 15.825 75.9009 16.1162 75.3358C16.5321 74.5284 16.2876 73.2458 15.623 72.7496C15.2153 72.4454 14.2773 72.3531 13.1412 72.5056ZM50.8808 75.1818C50.8162 75.2818 50.7626 76.5213 50.7616 77.9363C50.7594 81.3422 50.5581 93.4392 50.4816 94.7628C50.3858 96.4233 50.3986 108.066 50.4967 108.457C50.604 108.884 51.1772 109.08 51.4691 108.788C51.6879 108.569 51.7538 106.759 51.8762 97.6136C52.0955 81.2261 52.1055 75.7836 51.9172 75.4331C51.7087 75.0453 51.0692 74.8901 50.8808 75.1818Z" fill="white"/>
</svg>
