<svg width="81" height="111" viewBox="0 0 81 111" fill="none" xmlns="http://www.w3.org/2000/svg">
<path fill-rule="evenodd" clip-rule="evenodd" d="M16.0602 1.95911C16.9772 3.04673 18.2149 5.85567 18.8433 8.2738C21.4866 18.4474 25.4084 24.1195 30.8086 25.5826C35.0101 26.7206 34.7451 25.1874 30.5046 23.823C26.5566 22.5525 23.9018 18.7643 21.3722 10.7895C18.3228 1.1756 18.1076 1.43634 25.9576 5.22579C33.2264 8.73473 36.3582 12.296 38.0761 19.004L38.566 20.9166L38.8131 19.0626C39.7889 11.7483 28.1679 1.54791 17.49 0.346176L14.4087 0L16.0602 1.95911ZM58.325 4.61759C50.2892 7.50558 43.7695 14.4081 42.4507 21.4247C41.7444 25.1829 43.1066 24.2247 44.7587 19.8009C47.6255 12.1225 56.4769 5.2972 63.5675 5.2972C66.3091 5.2972 66.3902 4.74064 62.5266 12.4266C58.242 20.9504 57.1717 22.3032 53.0059 24.4574C48.8638 26.6001 50.8059 27.1605 55.3043 25.121C58.4668 23.6873 59.9478 21.7046 63.3197 14.3909C64.7368 11.318 66.5876 7.89065 67.4338 6.77434C68.2793 5.65804 68.9716 4.43845 68.9716 4.06486C68.9716 2.95429 61.9365 3.31959 58.325 4.61759ZM26.8223 11.2211C26.8223 12.0983 30.1674 17.0462 33.9417 21.7517C36.3071 24.7009 37.942 27.4518 38.3942 29.2426C39.1088 32.0764 40.2334 33.0965 40.2334 30.9117C40.2334 27.9855 37.9714 23.5323 34.5841 19.7894C32.598 17.5951 30.039 14.6618 28.8978 13.272C27.7566 11.8816 26.8223 10.9591 26.8223 11.2211ZM52.6866 16.3149C47.3279 22.3625 44.2229 27.0789 43.6724 30.009C43.0421 33.3636 44.3998 33.9489 45.2287 30.6803C46.0711 27.36 48.5949 23.2843 52.587 18.7968C56.1103 14.8365 57.6775 12.551 57.3767 11.8102C57.256 11.5131 55.1453 13.5398 52.6866 16.3149ZM48.3529 33.3164C42.3613 36.4856 39.0692 36.6743 32.0392 34.2523C21.2975 30.5509 18.3931 34.0317 24.7123 43.0342C28.4687 48.3856 30.2498 48.9734 27.0381 43.8025C22.5416 36.5621 22.4087 36.2797 23.1048 35.4419C24.1586 34.1752 27.9788 34.4735 32.8892 36.2063C38.0844 38.0399 40.0386 38.1489 45.131 36.891C47.1791 36.3855 51.6431 35.8831 55.0508 35.7754L61.2474 35.5797L59.9139 37.811C53.8342 47.9853 52.723 52.3051 58.5607 43.0706C64.9201 33.0117 64.7758 32.0407 56.7923 31.1374C53.4887 30.7638 52.8852 30.9193 48.3529 33.3164ZM47.2481 45.0628C45.1783 49.6199 44.7191 49.924 39.9135 49.924H36.5045L35.4603 46.7854C34.8856 45.059 34.0004 43.3026 33.4927 42.8825C32.3426 41.9288 32.3451 42.1143 33.5278 45.4613C35.0158 49.6722 34.9443 49.7754 30.1751 50.267C25.5891 50.74 23.3865 51.9825 23.9568 53.7759C24.1867 54.4976 22.9101 56.5007 20.1672 59.7221C5.17542 77.3331 2.58835 90.8729 12.1173 101.863C13.5312 103.494 14.6884 104.883 14.6884 104.949C14.6884 105.016 12.2342 104.969 9.23389 104.844C3.87007 104.622 0 105.445 0 106.809C0 107.159 0.495573 107.232 1.11759 106.975C4.77053 105.463 11.1606 105.922 18.5201 108.226C30.8054 112.073 52.8482 111.894 65.7465 107.844C72.2183 105.813 75.6369 105.409 79.1896 106.258C81.3545 106.775 81.389 106.755 80.2829 105.612C78.4992 103.77 72.523 104.122 64.5925 106.537C52.5027 110.218 48.1102 109.939 55.5802 105.964C61.1874 102.981 66.7274 96.8599 67.6324 92.6496C68.5009 88.6045 68.5175 87.3486 67.6943 87.8567C67.3431 88.0735 67.0493 88.8793 67.0416 89.6476C66.9024 103.535 36.7842 114.832 21.2739 106.815C4.74371 98.2713 3.84261 82.2688 18.8343 63.4841C24.6082 56.2495 23.7965 56.5415 39.2819 56.1398C53.1982 55.7784 57.0242 55.1319 58.3717 52.9146C59.4331 51.1697 57.5223 50.1222 52.3283 49.6014C47.243 49.0914 46.9537 48.5539 49.1569 43.7081C49.8345 42.2176 50.0976 40.9986 49.7413 40.9986C49.3856 40.9986 48.2635 42.8277 47.2481 45.0628ZM56.8377 56.5791C56.8377 56.7933 58.4924 58.755 60.5149 60.9372C75.5334 77.1463 77.8574 88.493 68.9339 102.042C66.8481 105.208 68.6127 104.506 71.1818 101.148C77.1013 93.409 76.7532 80.4206 70.3638 70.5976C66.2229 64.2313 56.8377 54.5046 56.8377 56.5791ZM41.4883 63.8998C41.208 66.5627 41.0419 66.7687 38.4938 67.6134C30.7294 70.1871 30.8916 77.0048 38.7965 80.3116L40.872 81.1799V87.2479C40.872 92.262 40.6919 93.3847 39.8336 93.7137C38.3386 94.2862 35.6002 92.4769 34.4858 90.1805C33.5547 88.2609 32.5642 87.8739 32.1044 89.251C31.7084 90.4362 35.3051 94.0643 38.0972 95.2979C40.3356 96.2861 40.8363 96.8376 41.0496 98.5474C41.3006 100.56 41.3089 100.552 41.4085 98.2165C41.4845 96.4404 41.7872 95.8258 42.5861 95.8258C52.2102 95.8258 53.619 83.7721 44.3845 80.4385L42.1493 79.6314V74.3406C42.1493 71.0713 42.4054 69.0497 42.8198 69.0497C44.0141 69.0497 47.1785 70.9336 47.7769 72.0002C48.1217 72.6161 48.5215 72.7761 48.7578 72.3942C49.4047 71.3493 46.7768 68.5627 44.4081 67.7823C42.3773 67.1136 42.2004 66.8401 42.0011 64.0707L41.7859 61.0807L41.4883 63.8998ZM16.0467 88.7582C12.4296 95.1073 21.9981 107.518 27.9418 104.187C29.182 103.492 29.3461 103.582 24.4166 102.245C19.07 100.795 17.3214 98.4473 17.1081 92.4348C16.9389 87.6457 16.8521 87.3448 16.0467 88.7582Z" fill="white"/>
</svg>
