<svg width="63" height="63" viewBox="0 0 63 63" fill="none" xmlns="http://www.w3.org/2000/svg">
<path fill-rule="evenodd" clip-rule="evenodd" d="M27.1314 0.846717C17.3673 3.31282 12.9632 8.82628 12.2623 19.4612C11.9153 24.7283 11.4309 26.0708 8.66134 29.4437C6.07502 32.5933 6.24047 33.7496 9.39793 34.5927L10.8862 34.9899L10.6538 36.6823C10.4352 38.2767 10.4743 38.3989 11.3245 38.7874C11.9599 39.0775 12.1555 39.3601 11.986 39.7407C11.8535 40.0384 11.7766 40.63 11.8154 41.056C11.9527 42.5647 11.9712 44.7748 11.8586 46.2219C11.6372 49.0662 13.8058 50.1699 19.3086 50.0133C24.6477 49.8612 26.2843 51.3017 26.6293 56.4563C26.806 59.0989 26.8318 59.1681 27.2701 58.177C28.2614 55.937 26.735 51.3823 24.4871 49.8725C23.2247 49.0246 23.2662 48.9003 24.9862 48.3851C26.9217 47.8053 28.6849 46.8861 30.0177 45.7614C31.5094 44.5029 31.1188 44.3322 29.333 45.4624C21.3293 50.5281 11.386 50.1306 12.8732 44.8047C13.1499 43.8133 13.1701 42.9237 12.9391 41.8926C12.578 40.2807 12.6165 40.2321 14.4315 40.0174C15.4101 39.9014 15.3634 39.8498 13.4876 38.9743C11.4409 38.0193 11.2374 37.6538 11.918 36.1555C12.4411 35.0047 11.78 34.2888 9.53248 33.571C7.37419 32.8817 7.38517 32.4377 9.63511 29.4599C12.6491 25.4713 12.6467 25.4789 13.0764 18.9233C14.0667 3.81045 27.9473 -3.42475 42.6891 3.48764C53.7576 8.67762 56.4829 19.5941 49.9109 32.414C44.9339 42.1225 44.9792 46.5237 50.1237 52.9581C52.3637 55.7604 52.5106 55.0921 50.3396 51.9745C45.7443 45.376 45.767 42.1555 50.4728 32.9309C60.1618 13.9374 46.9899 -4.16843 27.1314 0.846717ZM29.2417 5.01666C27.843 5.43685 26.134 6.6847 25.3785 7.83723C25.0212 8.38235 24.0515 9.38964 23.224 10.0759C17.9721 14.4306 18.6819 20.1096 24.7085 21.9497C25.4729 22.183 26.5922 22.9381 27.2828 23.6866C29.67 26.2742 33.5891 26.8802 34.3906 24.7858C34.6367 24.1429 34.2313 23.6274 33.8919 24.1515C32.7743 25.877 30.7348 25.6327 28.4155 23.4959C27.083 22.2684 25.7547 21.428 24.3134 20.9015C19.5915 19.1759 19.3042 14.2781 23.7128 10.6561C24.5787 9.9444 25.4983 8.95293 25.7564 8.45289C26.7333 6.55909 28.7687 5.57588 31.7655 5.55076C33.2535 5.53837 34.2866 5.43135 34.0618 5.31262C33.2977 4.90998 30.2247 4.72139 29.2417 5.01666ZM5.93841 7.33203C1.95065 9.81087 5.19187 15.7531 9.47791 13.8211L10.6559 13.2901L9.42436 13.4784C6.39355 13.9412 4.24693 11.5715 5.53099 9.1804C6.28303 7.78044 7.77338 7.05431 8.70047 7.63694C9.40617 8.08019 9.68419 9.48118 9.0667 9.48118C8.73651 9.48118 8.72724 9.57789 9.02826 9.8797C10.1603 11.0147 10.8145 8.47251 9.72813 7.16031C9.21807 6.54395 7.04742 6.64237 5.93841 7.33203ZM30.5882 8.98941C28.6424 10.9407 31.3354 13.1315 33.468 11.3323C34.9803 10.0566 40.2226 10.2035 41.312 11.5526C42.2491 12.713 43.8836 12.0629 43.7154 10.5969L43.6069 9.65325L39.1448 9.76269C35.1735 9.85974 34.5331 9.79366 33.3231 9.16045C31.6914 8.30663 31.2942 8.28186 30.5882 8.98941ZM44.6367 14.3917C44.2591 14.6202 42.0195 14.9286 39.6597 15.0772C37.2999 15.2256 34.0563 15.4341 32.4516 15.5408C30.051 15.7005 29.3319 15.6261 28.3928 15.1209C26.9097 14.3232 26.1017 14.7747 26.1017 16.4015C26.1017 17.8644 27.9799 18.3562 28.6654 17.0722C29.068 16.3179 30.1238 16.185 32.5375 16.5849C33.8164 16.7969 33.8246 16.8086 33.8246 18.4488C33.8246 20.5071 34.878 21.5261 37.0054 21.5261C37.8072 21.5261 38.8702 21.8313 39.5632 22.2608L40.7491 22.9959L41.4418 22.3014C42.8577 20.8818 41.4363 19.4007 39.5811 20.3622C36.2922 22.0674 32.7187 19.0338 35.1529 16.6028C36.1792 15.5783 43.0203 15.5057 44.5392 16.5037C45.6863 17.257 46.7919 16.9593 47.0768 15.8202C47.4639 14.2747 46.1246 13.4908 44.6367 14.3917ZM56.4132 15.8557C56.2845 15.9851 56.3456 16.5006 56.5491 17.0017C56.7523 17.5027 56.9353 19.3064 56.9555 21.0099C56.9933 24.2345 57.0616 23.9846 54.6195 29.5586C53.4823 32.1548 54.8601 30.3601 56.2656 27.4143C58.0543 23.6663 58.1768 14.0878 56.4132 15.8557ZM5.33568 17.8961C5.33568 18.0131 5.57218 18.4711 5.86153 18.9137C7.48402 21.3963 6.8123 24.6846 3.90575 28.4856C-1.37843 35.3973 -1.28782 42.7333 4.09865 44.0889C5.42355 44.4224 5.20594 43.6849 3.77943 43.0062C-0.250546 41.0887 -0.16302 34.9344 3.96822 29.762C7.3227 25.5618 8.28755 21.959 6.81265 19.1377C6.26724 18.0943 5.33568 17.3111 5.33568 17.8961ZM49.4877 19.2892C48.8482 22.5602 48.1772 23.2127 44.8941 23.7547C43.1923 24.0355 43.2081 23.9987 44.2076 25.3553C45.6012 27.2467 45.2881 29.5239 43.1902 32.7585C39.3947 38.6099 39.3593 43.9877 43.0852 48.7045C44.7427 50.8027 44.7712 50.0924 43.1305 47.5678C40.3644 43.3112 40.3959 38.6673 43.2205 34.2899C45.987 30.0019 46.1998 29.1302 45.4491 25.1619C45.352 24.6485 45.5768 24.442 46.4301 24.2606C48.911 23.7334 50.1766 21.8492 49.8851 19.1171L49.7564 17.9126L49.4877 19.2892ZM16.7484 22.6342C16.3238 22.8397 15.9761 23.1446 15.9761 23.3115C15.9761 23.4784 16.2799 23.4522 16.6509 23.253C17.0223 23.0537 17.9875 22.9725 18.7962 23.0723L20.2666 23.2537L19.0653 22.7602C17.6192 22.1662 17.7067 22.171 16.7484 22.6342ZM37.0219 25.6451C35.5937 26.247 34.7572 30.4737 36.0663 30.4737C36.8774 30.4737 37.0648 29.4908 36.3951 28.7489C34.8224 27.0065 38.3578 25.3828 40.0441 27.0736C42.1262 29.1612 38.9643 34.25 35.5758 34.2644C34.6511 34.2685 34.4692 34.3539 34.8543 34.6034C37.3281 36.206 41.3704 32.6693 41.3742 28.8989C41.3766 26.312 39.2368 24.7121 37.0219 25.6451ZM57.1402 31.0629C53.8962 34.8684 52.4124 36.8857 51.7867 38.3401C51.0848 39.9716 51.486 40.0993 52.3149 38.5083C52.6946 37.7801 54.1097 35.8681 55.4597 34.2592C58.196 30.9985 60.0512 28.435 59.8333 28.2165C59.7543 28.137 58.5423 29.4179 57.1402 31.0629ZM55.6203 39.5659C51.7891 41.8716 50.4209 46.7391 52.6287 50.2094C53.8674 52.1569 54.4749 54.6038 54.1887 56.4945C54.0287 57.552 54.0758 57.7489 54.4128 57.4326C55.4044 56.5031 55.0083 52.8369 53.6395 50.2731C51.3062 45.9022 52.5154 41.9081 56.7386 40.0349C60.2592 38.4732 63.8193 41.5867 61.8066 44.4675C60.7154 46.0299 57.9262 45.7022 58.3374 44.06C58.5804 43.0892 58.0924 42.6731 57.5209 43.3638C56.3484 44.7799 58.2218 46.5695 60.4401 46.152C62.0441 45.8506 63 44.5273 63 42.6098C63 39.1725 59.0091 37.5265 55.6203 39.5659ZM2.72706 49.539C-2.27738 54.5566 3.90403 58.8542 12.1332 56.078C17.5718 54.2434 21.4803 54.7927 23.0043 57.606L23.4999 58.5211L23.5137 57.6391C23.5658 54.293 18.0864 53.2688 11.6619 55.4238C4.7333 57.7482 -0.458549 54.7424 3.11973 50.4786C5.13455 48.0782 8.90916 49.7094 7.08003 52.19C6.51506 52.9564 6.4797 53.1573 6.88335 53.3125C7.67658 53.6178 8.42484 52.5547 8.42484 51.1224C8.42484 48.3084 4.92483 47.3355 2.72706 49.539ZM38.1151 54.3395C37.1712 54.7803 35.0431 56.3265 33.3863 57.7753C27.6761 62.7678 24.8437 63.3301 21.1223 60.2098C19.2812 58.666 17.0989 57.4529 16.7645 57.7877C16.6729 57.88 17.2688 58.3786 18.0891 58.8962C18.9091 59.4135 20.3009 60.4448 21.182 61.1875C25.0164 64.4207 28.155 63.5094 35.6585 56.9849C40.1697 53.0624 45.4872 53.6316 45.4934 58.0376C45.4958 59.716 42.6421 60.8575 41.4445 59.6568C40.5415 58.7513 41.7006 56.8389 42.7561 57.4932C42.9407 57.6077 43.0921 57.5372 43.0921 57.3369C43.0921 56.7285 41.1778 56.9298 40.571 57.6019C39.8382 58.4137 39.8553 58.7565 40.6815 59.8096C42.638 62.3035 46.508 60.4607 46.0772 57.2402C45.6362 53.9427 41.888 52.5771 38.1151 54.3395Z" fill="white"/>
</svg>
