<svg width="87" height="111" viewBox="0 0 87 111" fill="none" xmlns="http://www.w3.org/2000/svg">
<path fill-rule="evenodd" clip-rule="evenodd" d="M43.9571 2.23817C43.9627 4.13861 44.0974 4.83382 44.2572 3.7834C44.4163 2.73298 44.4121 1.17807 44.2475 0.328059C44.0829 -0.521955 43.9523 0.337734 43.9571 2.23817ZM27.0886 2.91611C27.0886 3.74885 29.9732 8.92771 30.2718 8.63055C30.7067 8.19794 28.6444 3.45929 27.7936 2.93546C27.406 2.69704 27.0886 2.68806 27.0886 2.91611ZM58.3787 5.97201C57.5806 7.52899 57.1882 8.80332 57.507 8.80332C58.2057 8.80332 60.627 3.93267 60.1596 3.46758C59.9783 3.2879 59.1774 4.41504 58.3787 5.97201ZM15.2807 9.90489C15.2807 10.285 16.531 11.8109 18.0591 13.2953C19.5871 14.7797 20.8374 15.6836 20.8374 15.3035C20.8374 14.9234 19.5871 13.3975 18.0591 11.9131C16.531 10.4287 15.2807 9.5248 15.2807 9.90489ZM69.8052 12.2587C68.3133 13.779 67.4047 15.0229 67.7868 15.0229C68.1688 15.0229 69.7024 13.779 71.1944 12.2587C72.6863 10.7383 73.5948 9.49439 73.2128 9.49439C72.8308 9.49439 71.2972 10.7383 69.8052 12.2587ZM35.1408 13.9276C19.742 20.3849 16.3191 36.4537 27.4463 50.0442C31.9895 55.5935 33.5607 58.8982 33.0203 61.7647C32.4063 65.0224 34.2365 65.5863 45.8422 65.7135C61.6571 65.8869 58.5794 62.1835 41.913 60.9845L34.8575 60.4773L33.7524 57.6183C33.1446 56.0461 30.8852 52.5825 28.732 49.9219C14.9786 32.9299 24.1887 12.5475 45.0594 13.788C64.3576 14.9352 71.775 33.8912 59.0635 49.5764C54.9037 54.7089 52.5977 58.8311 52.9457 60.5125C53.0922 61.2195 53.8868 60.1898 54.9857 57.8692C55.9761 55.7787 58.5398 51.9039 60.684 49.2585C75.9613 30.404 57.3243 4.62512 35.1408 13.9276ZM51.0516 21.3835C53.734 22.3137 56.8256 25.1713 58.0015 27.8077C58.51 28.948 58.9517 29.4614 58.9823 28.9487C59.1955 25.4498 54.2841 20.5017 50.7043 20.6088C49.0498 20.6579 49.0665 20.6945 51.0516 21.3835ZM6.5985 24.5168C7.49034 25.4007 14.0201 27.5651 14.4632 27.1235C14.8626 26.7269 10.8472 24.993 7.94946 24.3102C6.59017 23.9902 6.1373 24.0593 6.5985 24.5168ZM78.1402 24.6744C77.3761 24.993 75.848 25.6039 74.7444 26.0317C73.6414 26.4594 72.885 26.9556 73.0635 27.1339C73.5462 27.6142 80.4434 25.4629 80.9296 24.6799C81.4304 23.8741 80.0634 23.8714 78.1402 24.6744ZM35.5625 31.7468C32.9328 34.3632 36.2293 41.9746 39.9918 41.9746C40.7919 41.9746 40.9802 43.5558 40.9802 50.2674C40.9802 55.335 41.2504 58.5602 41.6748 58.5602C42.0991 58.5602 42.3693 55.335 42.3693 50.2674C42.3693 42.4355 42.4464 41.9746 43.7585 41.9746C45.0608 41.9746 45.1483 42.439 45.1581 49.4036C45.1643 53.4892 45.472 57.299 45.8422 57.8692C46.2972 58.5699 46.5187 56.1615 46.5264 50.4402C46.5347 43.5834 46.725 41.9746 47.5252 41.9746C51.0925 41.9746 54.1765 36.3306 52.438 32.9845C50.2848 28.8422 46.8633 31.2852 45.9582 37.6119C45.2525 42.544 42.759 42.8212 42.0394 38.0473C41.1108 31.8843 38.2352 29.0876 35.5625 31.7468ZM6.78743 34.9174C3.37635 35.341 0.728613 40.9601 2.61509 43.7714C3.5236 45.1252 6.26788 46.2088 7.66746 45.7672C9.2122 45.2793 10.9473 42.6657 9.72689 42.6657C9.31917 42.6657 8.80587 43.1321 8.58639 43.7023C7.50562 46.5032 3.4729 44.2987 3.4729 40.9069C3.4729 32.46 13.3095 35.1413 16.0628 44.3394C17.6201 49.5425 19.128 51.9232 22.1036 53.8762C25.3695 56.0192 25.3042 55.1961 21.9772 52.2819C19.2266 49.8728 18.5383 48.7201 17.2811 44.4148C15.0626 36.8185 12.2176 34.2436 6.78743 34.9174ZM74.3311 37.0196C73.0649 38.2795 71.8223 40.8005 70.8387 44.1031C69.5982 48.2695 68.7376 49.7816 66.2476 52.1679C64.5618 53.7836 63.4873 55.1049 63.8596 55.1049C65.9086 55.1049 70.0657 49.7035 71.4444 45.2489C73.4066 38.909 74.0567 37.8669 76.7475 36.7487C80.7101 35.1012 84.7387 37.3396 84.7387 41.1889C84.7387 44.1549 80.7726 46.0001 80.078 43.3567C79.6057 41.5593 78.4874 41.5696 78.4874 43.3713C78.4874 47.3553 84.8477 46.1991 85.7646 42.0485C87.1204 35.9056 79.0278 32.3466 74.3311 37.0196ZM69.5781 54.3482C66.0823 55.5493 60.4284 60.0336 60.4284 61.6051C60.4284 61.9852 61.6008 61.1614 63.0331 59.7751C72.1939 50.9074 86.9842 55.6578 80.2038 65.2899C77.9644 68.4708 70.8471 67.6271 70.8471 64.18C70.8471 62.3121 73.1475 60.4344 74.179 61.4607C75.1167 62.3936 76.0724 61.7772 75.3903 60.6797C73.9366 58.3391 70.1525 61.1877 70.1525 64.6223C70.1525 69.3782 76.3419 70.5081 80.3816 66.4889C87.153 59.7516 79.355 50.9889 69.5781 54.3482ZM8.0981 55.1422C2.49146 59.5298 5.7282 68.9263 12.8469 68.9263C15.1064 68.9263 18.0591 66.0687 18.0591 63.8815C18.0591 60.7647 13.5367 58.5789 12.6386 61.2616C12.4073 61.9534 12.6677 62.0999 13.5373 61.7682C16.2712 60.7247 17.7152 64.3155 15.3995 66.4004C12.317 69.1757 6.25121 65.8807 6.25121 61.4309C6.25121 53.7248 17.2943 52.2342 24.1137 59.0191C27.3886 62.2775 28.1464 61.9907 25.2646 58.583C21.2208 53.8015 12.1378 51.9806 8.0981 55.1422ZM32.9092 68.5476C32.1625 70.4846 35.436 72.1674 42.3693 73.4113C46.4965 74.1521 43.2681 72.5799 38.047 71.307C35.4583 70.6761 33.3398 69.882 33.3398 69.5427C33.3398 68.1039 51.169 70.0838 54.6634 71.9103C57.7056 73.5011 65.5447 71.7133 63.6769 69.8551C63.4679 69.647 62.5816 69.9746 61.7078 70.5834C59.7546 71.9442 57.4806 71.9946 55.0107 70.7306C53.4131 69.9131 38.1678 67.5441 34.5039 67.5441C33.8399 67.5441 33.1217 67.9954 32.9092 68.5476ZM7.32712 73.5025C8.49331 73.9863 10.6416 74.186 12.3107 73.9669C14.3882 73.6933 15.7517 73.9116 16.9845 74.7153L18.7245 75.8501L15.0321 83.2722C13.0018 87.355 10.9486 91.6811 10.4708 92.8863L9.60117 95.0777L5.38716 92.368C1.59128 89.9264 0 89.1987 0 89.9023C0 90.6362 9.96513 96.5925 10.384 96.1094C10.659 95.7922 11.4411 93.9775 12.1218 92.077C12.8025 90.1766 14.9175 85.7075 16.8213 82.145L20.2824 75.669L18.8537 74.2468C17.6458 73.0457 16.4844 72.8121 11.3508 72.7389C5.94213 72.6622 5.50176 72.7458 7.32712 73.5025ZM81.2658 73.1031C80.6552 73.5136 78.3499 73.6297 75.698 73.3843C66.9894 72.5772 65.6113 75.4057 70.9749 83.0814C74.138 87.6086 74.6124 88.7413 74.8784 92.4018C75.0451 94.6941 75.4723 96.569 75.8279 96.569C77.0066 96.569 87.6962 90.7543 86.9641 90.5118C86.5689 90.3805 84.0309 91.3825 81.3248 92.7384C76.4162 95.1979 76.4037 95.2 76.4037 93.5933C76.4037 90.3694 74.279 85.0834 71.5528 81.5244C67.1352 75.7561 68.1695 74.2724 76.3766 74.6048C80.2399 74.7609 81.4616 74.5564 82.432 73.591C83.7433 72.2855 82.9661 71.9601 81.2658 73.1031ZM42.7166 75.6296C41.5706 75.7823 38.0386 76.5522 34.8686 77.3407C29.4335 78.6924 25.739 78.7588 22.7475 77.5591C21.973 77.2481 21.532 77.3877 21.532 77.944C21.532 78.4243 19.94 82.0448 17.9938 85.9894C16.0483 89.934 14.6334 93.6216 14.8508 94.1848C15.3134 95.3838 18.5098 96.7286 20.0879 96.3879C20.7318 96.249 20.1081 95.7514 18.58 95.1848C15.2905 93.9643 15.3037 93.7861 19.2662 85.8492L22.5578 79.257L25.5654 79.7056C27.6901 80.0228 30.2948 79.6938 34.4428 78.5846C41.8373 76.6075 42.1804 77.009 37.294 81.9218C32.3285 86.9141 32.1701 89.6583 36.8474 89.6583C38.563 89.6583 43.7404 86.5278 44.7719 84.8664C45.7575 83.2797 48.706 84.2949 53.9306 88.0184C63.7061 94.9851 65.6815 97.0182 64.939 99.3471C64.293 101.372 63.6644 101.136 56.5339 96.1896C52.9457 93.7004 50.0097 91.9402 50.0097 92.2775C50.0097 92.6154 52.5102 94.6831 55.5663 96.8724C64.1006 102.986 63.024 106.547 54.1925 101.415C51.4773 99.8377 48.8859 98.6692 48.433 98.8198C47.9808 98.9698 49.6339 100.157 52.1066 101.459C57.1896 104.134 58.4155 106.244 54.8884 106.244C53.6951 106.244 51.7989 105.771 50.6744 105.192C45.1282 102.338 43.3779 102.389 48.3031 105.261C52.4463 107.677 51.9795 108.699 46.8098 108.527C43.9689 108.433 43.1417 108.577 44.1058 108.997C46.516 110.047 52.0879 109.826 52.5366 108.663C52.7568 108.093 53.6368 107.626 54.4925 107.626C55.3482 107.626 56.7693 107.004 57.6501 106.244C58.5308 105.484 59.6206 104.862 60.0721 104.862C65.6391 104.862 67.5895 97.4439 63.0331 93.5967C49.9229 82.5279 47.0195 81.4664 41.863 85.8574C34.9526 91.7426 32.309 87.8139 39.0701 81.7062C46.3889 75.0954 46.866 75.0035 56.7249 78.3124C59.4629 79.2315 62.5135 79.9834 63.504 79.9834C66.8741 79.9834 71.7841 92.7439 69.4781 95.5082C68.9912 96.0915 68.9057 96.569 69.2878 96.569C72.362 96.569 72.0647 91.4986 68.5459 83.9211C66.1482 78.7588 66.0031 78.6012 63.6255 78.6012C62.278 78.6012 58.7419 77.8279 55.7664 76.8825C50.68 75.2661 47.6454 74.9752 42.7166 75.6296ZM24.0568 96.6194C20.9666 99.0375 22.0043 103.625 25.3521 102.348C26.0717 102.073 26.394 102.393 26.394 103.382C26.394 104.808 28.6118 106.572 29.4092 105.778C29.6391 105.549 30.1538 106.214 30.5525 107.257C31.1297 108.767 31.5971 109.073 32.8515 108.759C33.9545 108.484 34.681 108.773 35.2777 109.724C36.4779 111.636 37.7955 111.415 39.8765 108.955C42.0644 106.368 42.2117 104.181 40.2321 103.666C39.4389 103.46 38.5089 102.556 38.1657 101.657C37.7469 100.562 36.9884 100.024 35.8625 100.024C34.9387 100.024 34.0031 99.5579 33.7829 98.9877C33.5544 98.3941 32.5174 97.9511 31.3589 97.9511C29.9183 97.9511 29.2293 97.5524 28.9709 96.569C28.5 94.7764 26.3843 94.7978 24.0568 96.6194Z" fill="white"/>
</svg>
